<?xml version="1.0" encoding="utf-8"?>
<!-- Generator: Adobe Illustrator 19.1.0, SVG Export Plug-In . SVG Version: 6.00 Build 0)  -->
<svg version="1.1" id="logo" xmlns="http://www.w3.org/2000/svg" xmlns:xlink="http://www.w3.org/1999/xlink" x="0px" y="0px"
	 viewBox="-259 331.5 505 88.5" style="enable-background:new -259 331.5 505 88.5;" xml:space="preserve">
<style type="text/css">
	.st0{fill:#73A71A;}
	.st1{fill:#4AADC7;}
	.st2{fill:#E03A67;}
	.st3{fill:#E03965;}
	.st4{fill:#3F4141;}
	.st5{fill:#444545;}
</style>
<g id="titre_1_">
	<g>
		<path class="st0" d="M86.2,391l13-0.3c-0.4,3.4-2.3,6.1-5.6,8.3s-7.5,3.3-12.3,3.3c-5.1,0-9.5-1.2-13-3.6
			c-3.5-2.4-5.3-5.3-5.3-8.8c0-3.3,1.8-6.1,5.4-8.5c3.6-2.4,7.8-3.5,12.8-3.5c4.4,0,8.2,0.9,11.5,2.8c3.3,1.8,5.4,4.2,6.2,7.1
			l-13.3,0.3c-1.1-1-2.6-1.5-4.3-1.5c-1.5,0-2.7,0.3-3.7,1c-1,0.7-1.4,1.5-1.4,2.5s0.5,1.9,1.5,2.6c1,0.7,2.3,1,3.8,1
			C83.6,393.6,85.2,392.7,86.2,391z"/>
		<path class="st1" d="M127.1,377.9c4.9,0,9.2,1.2,12.7,3.6s5.3,5.2,5.3,8.6s-1.8,6.3-5.4,8.6c-3.6,2.4-7.9,3.6-13,3.6
			s-9.4-1.2-13-3.6c-3.6-2.4-5.4-5.3-5.4-8.6c0-3.4,1.8-6.3,5.4-8.6S121.8,377.9,127.1,377.9z M126.8,386.5c-1.4,0-2.6,0.3-3.6,1
			s-1.5,1.5-1.5,2.5s0.5,1.8,1.5,2.5s2.2,1,3.5,1c1.4,0,2.6-0.3,3.6-1s1.5-1.5,1.5-2.5s-0.5-1.8-1.5-2.5S128.2,386.5,126.8,386.5z"
			/>
		<path class="st0" d="M204.2,401.7h-13.1v-12.6c0-1-0.2-1.6-0.5-2c-0.3-0.4-0.9-0.6-1.6-0.6c-1.5,0-2.2,0.9-2.2,2.6v12.6h-13.1
			v-12.6c0-1-0.2-1.6-0.5-2c-0.3-0.4-0.9-0.6-1.7-0.6c-1.4,0-2.2,0.9-2.2,2.6v12.6h-13.1v-14.4c0-2.6,1.3-4.9,4-6.7
			c2.7-1.8,5.8-2.8,9.6-2.8c3.9,0,7.3,1.1,10.4,3.3c3.4-2.2,6.9-3.3,10.3-3.3c4.4,0,7.9,1.1,10.5,3.2c2.1,1.7,3.1,4.1,3.1,7.2v13.5
			H204.2z"/>
	</g>
	<g>
		<path class="st2" d="M-211.2,379.9l-14,14.2h16v9.2h-43.7l13.9-14.2h-14.5V380h42.3V379.9z"/>
		<path class="st1" d="M-178.4,379.9v23.4h-17v-23.4H-178.4z M-186.9,369.4c2.3,0,4.3,0.4,6,1.3c1.7,0.9,2.5,1.8,2.5,3
			c0,1.2-0.8,2.2-2.4,3c-1.6,0.8-3.6,1.2-6.1,1.2s-4.5-0.4-6.1-1.2c-1.6-0.8-2.4-1.8-2.4-3c0-1.1,0.8-2.1,2.5-3
			C-191.2,369.8-189.2,369.4-186.9,369.4z"/>
		<path class="st3" d="M-143.8,371.2v32h-17.1v-32C-160.9,371.2-143.8,371.2-143.8,371.2z M-117.7,379.9l-8.3,8.5l12.4,14.9h-18.9
			l-10.7-15.3l7.8-8.1H-117.7z"/>
	</g>
	<g>
		<g>
			<path class="st4" d="M-85.9,381.3l-0.5-0.4c0.3-0.4,0.7-1.2,1.2-2.1c1.1-1.1,1.7-1.8,1.8-1.9c0.3-0.3,0.7-0.5,1.2-0.6
				c0.1,0,1.1-0.2,3.1-0.5c0,0,0.1-0.1,0.2-0.2l0.5,0.2c-0.1,0.4-0.4,0.7-0.8,0.9c-0.2,0.1-0.4,0.2-0.6,0.3
				c-0.3,0.2-0.5,0.3-0.6,0.3c-0.2,0-0.4,0.1-0.7,0.1c-0.3,0.5-0.8,0.8-1.4,1.1c-0.8,0.4-1.2,1-1.3,1.7c-0.5,0.5-0.8,0.8-0.9,0.9
				c-0.1,0.1-0.1,0.6-0.1,1.6l-0.2,1.2l0.1,0.5l-0.1,1c0.3,0.3,0.6,0.6,0.7,0.9c0.4,0.8,0.9,1.3,1.4,1.4c0.2,0.1,0.5,0.1,1.1,0.1
				l0.4,0.3h0.6c0.4,0.4,0.7,0.6,1,0.5l0.3-0.1c0.1-0.1,0.4-0.1,0.8-0.2l0,0c0.4-0.1,0.6,0,0.6,0.2c0,0.1-0.3,0.5-1,1.3
				c-1.2,1.3-2.1,2.2-2.6,2.9c-1,0.1-2.2-0.1-3.4-0.7c-0.4-0.2-0.5-0.2-0.5-0.2s-0.2-0.5-0.6-1.4c-0.1-0.2-0.3-0.4-0.5-0.8
				c-0.4-0.5-0.6-1.2-0.8-1.9c0-0.1,0.1-0.4,0.4-1l-0.6-1.9c0-0.2,0.2-1,0.8-2.3C-86.2,381.9-86,381.5-85.9,381.3z"/>
			<path class="st4" d="M-58.1,357.4l0.6,0.9l1.3-0.3c0,0.2,0.1,0.5,0.1,0.6c0.1,0.3,0.6,0.8,1.6,1.3c0,0.5,0,0.8,0,1
				c0,0.1,0.1,0.3,0.2,0.6c0.2,0,0.4-0.1,0.5-0.1c0.4-0.1,0.7-0.1,1.1,0.1c0.3,0.1,0.6,0.2,0.9,0.2l1,1.1c0.5,0.2,0.9,0.4,1.2,0.6
				c0.4,0.3,0.8,0.6,1.2,0.8l1.1-0.5c0.3,0.5,1.2,1.1,2.6,2c1.5,1,2.7,1.7,3.5,2c0.8,0.4,1.3,0.8,1.7,1.3c0.2,0.2,0.6,0.5,1.2,0.9
				l5.1,3.1c0.6,0.4,1,0.6,1,0.8c0,0.2,0,0.4-0.2,0.6c0.4,0.3,0.7,0.5,0.8,0.6c0.5,0.4,0.9,0.6,1.1,0.6c0,0,0.3,0,0.9,0l0.8,0.5
				l0.5-0.1l0.1-0.1c0.5,0.3,0.9,0.5,1.1,0.7c1.4,0.9,2.3,1.4,2.6,1.5l1.4,0.5c0.3,0.1,0.8,0.5,1.4,1.1l1.3,0.7l1.5,1l2,1.1
				c0.4,0.7,0.7,1,0.7,1c0.2,0.1,0.8,0.1,1.8,0.1l2,1.1h0.6v0.2c0.6,0.2,1.1,0.3,1.4,0.4c0.1,0,1.2,0.7,3.2,2.1l3.7,1.8
				c0.8,0.6,1.5,0.9,2.2,1.1c-0.2,0.4-0.2,0.7-0.2,0.9c0,0.1,0.6,0.4,1.7,0.9c2.7,1.4,4.2,2.2,4.7,2.3c0.5,0.2,1.1,0.4,1.8,0.6
				l0.2-0.5v-0.1c0,0-0.1-0.1-0.2-0.3c-0.2-0.4-0.4-0.8-0.5-1.1c-0.2-0.7-0.3-2-0.4-3.7c0-0.6-0.1-1.1-0.2-1.6
				c0-0.2-0.1-0.4-0.2-0.6c-0.5-1.3-0.8-2-0.8-2c-0.1-0.4,0.2-0.9,0.7-1.6c-1.2-0.8-1.8-1.5-2-2.3c0-0.1,0-0.4,0-1
				c0-0.1,0-0.1,0-0.2s-0.3-0.6-0.8-1.7l-0.4-2.4c-0.4-0.8-0.6-1.2-0.7-1.3c0-0.1,0-0.6,0.1-1.5V373c0-0.2-0.1-0.5-0.3-0.8
				c-0.2-0.3-0.3-0.6-0.3-0.9c0-0.2-0.1-0.5,0-0.7c0.1-0.5,0.1-0.8,0.1-0.9l-0.3-0.5c0-0.1-0.1-0.1-0.1-0.1s0-0.1,0-0.2
				c0-0.5,0.1-0.7,0.1-0.7s0,0,0-0.1c0-0.1-0.1-0.1-0.1-0.1l-0.7-3.9l-0.7-2.5l-0.7-2.6c-0.6-1.3-0.9-2-0.9-2.1s0.1-0.5,0.3-1.1
				c0,0,0,0,0-0.1c0-0.2-0.4-0.4-1.1-0.6c0.1-0.4,0-0.8,0-1c0-0.1-0.2-0.4-0.6-1.1c-0.1-0.6-0.3-1-0.4-1.2c-0.2-0.4-0.4-0.7-0.7-1
				l0.7-0.8l-0.1-0.3l-1.6-0.4c0-0.3,0.1-0.6,0.2-0.7c0.1-0.1,1-0.8,2.7-2c1.3-1,2.1-1.5,2.3-1.6c0.3-0.1,0.6,0.1,0.9,0.5
				c0.5,0.7,0.8,1.2,0.8,1.4c0,0.1,0,1.4-0.1,3.8l1.3,4.8c-0.2,1.3-0.2,2.2-0.1,2.7c0.1,0.4,0.4,0.7,0.9,1.1v0.6l1,5.1l0.4,0.6
				c-0.7,0.3-0.9,0.6-0.8,1l1.5,2.1v0.1c0,0.1-0.3,0.3-1.1,0.7c-0.8,0.3-1.1,0.7-1.1,1l3,2.7l0,0l0.2,2.2l0.5,2.4l0,0v0.6l0.6,1
				l0.4,1.6l0.9,1.7c0,0,0,0.2-0.1,0.4l-0.9,0.3c0.1,0.2,0.1,0.4,0.1,0.5c0.1,0.3,0.4,0.6,0.9,0.8c0.2,0.3,0.3,0.5,0.3,0.6l0.2,1.4
				l0.5,1.2l0.3,1l0.5,0.8l-1.7,3.5l2.7,0.5l-5.9,2.5l6.8,0.5c-0.2,0.7-0.2,1.3-0.1,1.9c0,0.1,0.3,0.6,0.7,1.4c0,0,0,0,0,0.1
				c0.1,0.4-0.4,1-1.4,1.8c-1,0.9-2,1.5-2.9,1.7c-0.2-0.5-0.4-0.8-0.4-1c-0.3-0.7-0.7-1-1.1-0.9c-0.4,0.1-0.9,0.4-1.7,1
				c-0.5,0-1-0.3-1.5-0.9l-1.3-1L2,400.2c-1-0.7-1.6-1.2-1.6-1.4c0-0.1,0-0.4,0-0.8c-0.5-0.1-1.3-0.2-2.4-0.2
				c-1-0.8-1.7-1.4-2.2-1.7c-0.5-0.3-1.1-0.6-2-1C-6,394.6-6,394.2-6,394c0-0.1-0.4-0.4-1.2-0.9c-1.1-0.4-1.8-0.7-2-0.8
				c-0.4-0.3-0.9-0.5-1.5-0.8c0-0.2,0.1-0.5,0.3-0.9c0,0,0-0.1,0-0.2s0-0.1,0-0.2l-0.8,0.2c-0.2-0.4-0.4-0.6-0.6-0.6
				c-0.2-0.1-0.5-0.2-0.7-0.2l-0.8-0.4c-1.3,0.1-2-0.1-2.2-0.7c-0.1-0.2-0.1-0.5-0.1-0.9l-1,0.1l-0.5-0.6l-6-3.4l-0.1-0.3l1.7-1.2
				l-0.1-0.2c-0.5-0.1-0.8-0.1-1-0.1c-0.3,0.1-0.7,0.3-1.1,0.7c-0.5-0.2-1.3-0.6-2.4-1.1c-1.1-0.3-1.9-0.7-2.3-1
				c-0.5-0.4-1.2-0.9-2-1.2c-0.1,0-0.3-0.2-0.7-0.5c-0.5-0.4-0.9-0.7-1-0.9c-0.4-0.6-0.8-0.9-1-1c-0.2,0-0.4,0-0.6,0
				c-0.2,0-0.4,0.1-0.6,0.2c-0.3-0.2-0.6-0.4-0.9-0.6c-0.8-0.5-1.5-1-2-1.4c-0.6,0-0.8,0-0.8-0.1c-0.4-0.3-1-0.7-1.8-1.1
				c-1.9-1.2-3.2-1.9-3.8-2.2l-0.1-0.2l0.1-0.1l0.8-0.4c-0.7-0.6-1.5-0.9-2.4-0.9l-0.3,0.5c-0.9-0.2-1.5-0.4-1.6-0.7
				c-0.1-0.1-0.2-0.3-0.2-0.6c-1.2-0.3-2.3-0.6-3.1-1c-2.2-1-3.7-1.6-4.3-1.9l-0.3,0.3c-0.4,0.8-0.7,1.2-0.8,1.1l-2.3,1.4l2.6,0.2
				c0.8,0.1,1.2,0.4,1.3,0.9c0,0.1,0,0.2,0,0.5c-0.2,1.2-0.3,2-0.2,2.4c0.1,0.9,0.2,1.4,0.1,1.7c0,0.2-0.2,0.5-0.5,0.9
				c0.5,0.3,0.8,0.6,1,0.9c0.2,0.2,0.5,0.6,0.9,1.3l0.3,2.3c0.6,1.3,0.8,2,0.8,2c0,0.1,0,0.6-0.2,1.2l-0.7,0.2l0.6,0.8l0.1,0.4
				c0.1,0.3,0.5,0.6,1.2,0.9c0,0.7,0,1.2,0.1,1.6c0,0.2,0.1,0.3,0.1,0.5c0.7,2.2,1,3.4,1,3.5s0,0.4-0.1,0.8l-1.2,0.3
				c0.2,0.4,0.4,0.6,0.4,0.7c0.2,0.4,0.3,0.7,0.4,0.8c0.3,0.4,0.4,0.6,0.4,0.6l0.2,1l0.4,0.8l0.2,1.6c0,0.1,0.2,0.4,0.4,0.7
				c-0.2,0.2-0.5,0.4-0.9,0.5l-0.1,0.2l0.6,1.9l0.9-0.3c0.3,0.6,0.6,1.1,0.7,1.5c0.1,0.2,0.3,1.1,0.6,2.7l0.5,1.2
				c0.3,1.2,0.6,2.1,0.9,2.7c0.2,0.3,0.3,0.6,0.3,0.9c0,0.1,0,0.3,0,0.6l0.6,1.2c0.1,0.2-0.1,0.6-0.4,1.3c-0.3-0.1-0.5-0.2-0.5-0.2
				s-1.5,1-4.3,3c-0.3,0.2-0.6,0.4-1.2,0.7c-0.2-0.3-0.3-0.4-0.3-0.6c0-0.2,0-0.9,0-2.3l-0.2-1.1v-1.2l-0.3-1.5l0.2-0.4
				c0.2-0.5,0.4-0.9,0.4-1c0,0,0.5-0.4,1.6-1.2c0.3-0.8,0.4-1.2,0.4-1.4c0-0.1-0.1-0.2-0.2-0.2c0,0-0.8-0.2-2.4-0.5
				c-0.5-0.1-0.8-0.3-0.9-0.6v-0.1c0-0.1,0-0.4-0.1-0.6c-0.1-0.2-0.1-0.5-0.2-0.6c-0.2-0.6-0.3-0.9-0.4-1.1
				c-0.1-0.3,0.1-0.8,0.5-1.5l-1.2-0.2c-0.1-0.5-0.2-1.5-0.3-3.3l-0.3-1.6c0-0.5,0-0.8,0-0.9c0,0,0-0.1-0.1-0.3
				c-0.3-0.6-0.6-1.4-0.9-2.4c-0.3-1.1-0.5-1.8-0.7-2.1c-0.1-0.2-0.1-0.4-0.2-0.5c0-0.2,0.2-0.6,0.7-1.1c-0.3-0.2-0.5-0.4-0.5-0.5
				c0-0.1,0-0.1,0-0.3c0-0.3,0-0.5-0.1-0.7l-1-1.5l-0.3-1.2c0-0.1-0.1-0.2-0.1-0.5c-0.1-0.5-0.3-1-0.3-1.4c-0.1-0.2-0.1-0.7-0.2-1.5
				c-0.1-0.8-0.1-1.2,0-1.3l0.3-1.2c0,0-0.1-0.1-0.2-0.2c-1.1,0.2-1.7,0.1-1.8-0.5c0-0.1-0.1-0.3-0.1-0.6c0-0.2-0.1-0.4-0.1-0.6
				c-0.1-0.4-0.2-1-0.5-1.7l0.6-0.5v-0.5c0.7-0.3,1-0.6,1.1-0.8c0-0.1,0-0.3,0-0.5c-0.1-0.4-0.4-0.8-1-1.3l-0.8,0.6l-0.5-0.2
				c2-1,3-1.5,3-1.7c0,0-1.3-0.1-3.8-0.2l-0.4-2.6c-0.6-1.3-1-2.1-1-2.4c0-0.1,0-0.2-0.1-0.4l-1.3,0.1c0-0.2-0.1-0.4-0.2-0.5
				c0-0.1-0.1-0.2-0.1-0.2c0-0.2,0-0.3,0.1-0.5c0,0,0.4-0.4,1.3-1l0.4-0.6l0.7-0.7c1.4-1.4,2.1-2.2,2.2-2.3
				C-59.6,358.4-59,358-58.1,357.4z"/>
			<path class="st4" d="M27.5,365.8c0-0.4,0.1-0.6,0.3-0.8c0.5-0.5,0.7-0.8,0.7-0.8s0-0.4,0-1.2l0.2-1.5l-0.1-0.6l0.1-0.5l-0.6-0.9
				c-0.3-0.5-0.7-1-1.2-1.5c-0.2-0.2-0.5-0.4-1-0.5c-0.4-0.1-0.9-0.2-1.4-0.4c-0.1-0.2-0.3-0.4-0.6-0.6c-0.3,0.1-0.8,0.2-1.4,0.5
				h-0.1c-0.4,0.1-0.6,0-0.7-0.3l1.1-1.4c1.1-1.1,1.9-2,2.4-2.7c1-0.1,1.6-0.1,2,0c0.1,0,0.4,0.2,0.9,0.4s0.9,0.3,1,0.4
				c0,0,0.3,0.5,0.7,1.4l0.5,0.8l0.2,0.5c0.4,0.7,0.6,1.1,0.6,1.3c0,0.2-0.1,0.5-0.4,1l0.6,2c0,0.2-0.1,0.7-0.5,1.7
				c-0.2,0.5-0.5,1-1,1.6l0.1,0.2l0.5,0.3c-0.3,0.5-0.8,1.2-1.3,2.2c-1.3,1.5-2.3,2.3-2.9,2.5c-0.1,0-0.3,0-0.7,0.1
				c-0.3,0-0.5,0-0.6,0.1l-1.7,0.4c-0.1,0-0.4,0.1-0.8,0.1c-0.1-0.1-0.2-0.2-0.2-0.3c0-0.2,0-0.3,0.2-0.4c0.8-0.5,1.2-0.7,1.3-0.8
				c0.1-0.1,0.4-0.2,0.9-0.3l0.8-0.6C26.4,366.6,27,366.1,27.5,365.8z"/>
		</g>
	</g>
</g>
<g>
	<g>
		<g>
			<g>
				<g>
					<path class="st5" d="M237.5,416.8c0.7,0,0.4-0.2,0.5-0.2C236.8,416.6,237.5,416.8,237.5,416.8z"/>
					<polygon class="st5" points="226.1,417.3 226.3,417.2 224.6,417.4 					"/>
					<path class="st5" d="M215.5,417.3c1,0.4,3.9-0.1,5.7,0.1l0.3,0.1l0.9-0.3C220.1,417.2,217.1,417.4,215.5,417.3z"/>
					<path class="st5" d="M209.8,416.5c0.3,0.1-1.2,0.1,1.3,0c-0.1,0-0.2,0-0.2,0C210.6,416.5,210.3,416.5,209.8,416.5z"/>
					<path class="st5" d="M210.9,416.5C212,416.5,210.1,416.4,210.9,416.5L210.9,416.5z"/>
					<path class="st5" d="M205.7,416.6l1.5-0.1c-0.3-0.1-1.6-0.1-1.1-0.2C204.5,416.4,204.8,416.4,205.7,416.6z"/>
					<path class="st5" d="M204.3,416.8l0.8-0.1C204.9,416.7,204.7,416.7,204.3,416.8z"/>
					<path class="st5" d="M206.7,416.7l-1.6,0.1c0.2,0.1,0.2,0.2,0.7,0C205.7,416.8,206,416.7,206.7,416.7z"/>
					<path class="st5" d="M207.6,416.7c0.8,0.1,1.9,0.1,0.4,0.3C210.8,416.9,210.4,416.7,207.6,416.7z"/>
					<path class="st5" d="M214.9,417.6l1.1,0.1l1-0.1C216.5,417.7,214.8,417.5,214.9,417.6z"/>
					<path class="st5" d="M196.5,416.4c-0.1,0.1,0.5,0.2,0.6,0.3l1.1-0.1C197.6,416.5,196.6,416.5,196.5,416.4z"/>
					<path class="st5" d="M197.1,416.7l-1.6,0.1C196.9,416.8,197.2,416.8,197.1,416.7z"/>
					<polygon class="st5" points="204,417.2 206.7,417 203.5,417.2 					"/>
					<polygon class="st5" points="190.3,416.4 191.2,416.2 189.6,416.5 					"/>
					<path class="st5" d="M186.2,416.4c0.7-0.1-0.9-0.2-0.2-0.3c-1.1,0-2.1,0.2-2.9,0.3C183.9,416.3,184.9,416.3,186.2,416.4z"/>
					<path class="st5" d="M181.6,416.5c0.5,0,0.9-0.1,1.4-0.2C182.5,416.4,182,416.4,181.6,416.5z"/>
					<path class="st5" d="M192.7,416.8c-0.1,0-0.4-0.2-1.3-0.2l0.6,0.2C192.3,416.8,192.5,416.8,192.7,416.8z"/>
					<path class="st5" d="M192.1,416.8L192.1,416.8c-0.7,0-1.2,0-1.4,0C190.9,416.8,191.3,416.8,192.1,416.8z"/>
					<path class="st5" d="M192.9,416.8c-0.1,0-0.1,0-0.2,0C192.8,416.8,192.8,416.8,192.9,416.8z"/>
					<path class="st5" d="M199.8,417c-1,0.1-3,0.2-1,0.4C199.4,417.3,198.3,417.2,199.8,417z"/>
					<path class="st5" d="M193.7,417h1.7c0-0.1-0.3-0.1,0.1-0.2L193.7,417z"/>
					<polygon class="st5" points="192.8,417.1 193.7,417 193,417 					"/>
					<path class="st5" d="M184.5,416.7c-0.7,0.1-1.6,0.1-2.5,0.1c1,0,2,0.1,3,0.1C185.2,416.8,185.6,416.7,184.5,416.7z"/>
					<path class="st5" d="M188.2,416.8c-0.1,0-0.1,0-0.2,0C188.1,416.8,188.2,416.8,188.2,416.8z"/>
					<path class="st5" d="M172.9,416.8c0.1,0,0.1,0,0.1,0l0,0H172.9z"/>
					<path class="st5" d="M185.2,416.9c0.7,0,1.2,0,1.6-0.1c-0.6,0-1.1,0-1.8,0C185,416.9,184.9,416.9,185.2,416.9z"/>
					<path class="st5" d="M179,416.6c0.4,0,0.8,0.1,1.3,0.1C179.9,416.6,179.2,416.5,179,416.6z"/>
					<path class="st5" d="M187.8,416.7h0.1C187.6,416.7,187.7,416.7,187.8,416.7z"/>
					<path class="st5" d="M187.8,416.7c-0.4,0-0.7,0.1-1,0.1c0.5,0,0.9,0,1.2-0.1C187.9,416.8,187.8,416.7,187.8,416.7z"/>
					<path class="st5" d="M170.2,418.2c0.1-0.2,2.1-0.4,3.8-0.2c1.7-0.1,0.6-0.8-0.9-1.2c-0.1,0.1-0.1,0.2-1.8,0.3
						c0.6,0.1,3.8,0.3,2.4,0.4c-2.3,0.1-1.9-0.1-3-0.2c0.9,0.2-2.9,0.4-2.4,0.7l2-0.1C170.3,418,169.6,418.1,170.2,418.2z"/>
					<path class="st5" d="M176.3,416.9h0.7c-0.8,0-1.4-0.1-2.4-0.3c-1.2,0.1-1.4,0.2-1.5,0.2h3.5L176.3,416.9z"/>
					<path class="st5" d="M180.2,416.8c-0.5,0.2-2.2,0.3-1.2,0.5c2.1,0,1.4-0.2,2.7-0.3C178.3,417.2,182.6,417,180.2,416.8
						c0.7,0,1.3,0,1.8,0C181.4,416.8,180.8,416.7,180.2,416.8l0.2-0.1l0,0l0,0c0.1,0,0.2,0,0,0L180.2,416.8
						C180.3,416.8,180.3,416.8,180.2,416.8c-1,0-0.2-0.1,0.2-0.1l0,0l0,0l-3.3,0.1C177.7,416.9,178.6,416.9,180.2,416.8z"/>
					<path class="st5" d="M197,417.9c-0.1,0-0.1,0-0.1-0.1C196.6,417.9,196.6,417.9,197,417.9z"/>
					<path class="st5" d="M195.6,417.8c0.2,0,0.4-0.1,1.2-0.1c0.7,0.1,0,0.1,0,0.2c0.5-0.1,1.7-0.2,0.2-0.3h-0.2
						c-1.3-0.1-3.1-0.3-2.8-0.4C194.3,417.5,194.7,417.6,195.6,417.8z"/>
					<path class="st5" d="M187.8,417.4l-2.8,0.1l1.4,0.2l-0.1-0.1C187.9,417.6,187.6,417.5,187.8,417.4z"/>
					<polygon class="st5" points="172.6,416.7 173,416.5 171.4,416.8 					"/>
					<polygon class="st5" points="169,416.7 169.1,416.5 168.2,416.7 					"/>
					<path class="st5" d="M-34.9,419.2l-0.8,0.1C-35.4,419.2-35.1,419.2-34.9,419.2z"/>
					<path class="st5" d="M-29,419.2l0.1-0.1C-29.2,419.2-29.3,419.2-29,419.2z"/>
					<path class="st5" d="M80.2,416.8c-1.2-0.2-2.5-0.5-2.4-0.2l0.4,0.2C79.1,416.7,79.7,416.7,80.2,416.8z"/>
					<path class="st5" d="M19.5,418c0.1,0,0.2,0,0.3,0.1c0.3-0.1,0.6-0.1,0.8-0.2C20.3,418,19.9,418,19.5,418z"/>
					<path class="st5" d="M18.6,418.9l-1.6-0.1C17.4,418.9,17.9,418.9,18.6,418.9z"/>
					<path class="st5" d="M-67.3,419.4l-1,0.2C-66.7,419.6-67.4,419.5-67.3,419.4z"/>
					<path class="st5" d="M132,416.8c-1-0.1-1.8-0.1-2.6-0.1C130.7,416.8,131.7,417,132,416.8z"/>
					<path class="st5" d="M-32.6,416.9c-0.5,0-0.7,0.1-0.7,0.1C-32.8,417-32.5,416.9-32.6,416.9z"/>
					<path class="st5" d="M126.5,416.7c0.2,0,0.4,0,0.5,0.1c0.8,0,1.5-0.1,2.4-0.1C128.5,416.6,127.5,416.5,126.5,416.7z"/>
					<path class="st5" d="M-184.4,419.2c-0.1,0-0.2,0-0.3,0C-184.7,419.2-184.6,419.2-184.4,419.2z"/>
					<path class="st5" d="M-218.6,417c0.3,0,0.9,0,1.4,0C-217.4,417-217.8,417-218.6,417z"/>
					<path class="st5" d="M154.5,416.6C155.2,416.6,154.6,416.6,154.5,416.6L154.5,416.6z"/>
					<path class="st5" d="M158.2,417.5c-0.2,0-0.3,0.1-0.3,0.1C157.9,417.5,158,417.5,158.2,417.5z"/>
					<path class="st5" d="M118.8,418L118.8,418C119,418.1,118.9,418.1,118.8,418z"/>
					<path class="st5" d="M155.6,416.7c-0.3,0-0.6,0-1-0.1C154.8,416.7,155.1,416.7,155.6,416.7z"/>
					<path class="st5" d="M155.5,416.6c0.3,0,0.5,0,0.7,0C156.2,416.6,156.1,416.6,155.5,416.6z"/>
					<path class="st5" d="M153.4,416.6c0.4,0,0.8,0,1.2,0c-0.2,0-0.2,0-0.2,0C154.2,416.6,153.9,416.6,153.4,416.6z"/>
					<path class="st5" d="M-121.6,418.7c-0.1,0-0.1,0-0.2,0C-122.6,418.7-122.2,418.7-121.6,418.7z"/>
					<path class="st5" d="M60.3,419L60.3,419L60.3,419L60.3,419z"/>
					<path class="st5" d="M57.5,419.2c1.2-0.3,1.8-0.2,2.7-0.2l-0.9-0.6L57.5,419.2z"/>
					<path class="st5" d="M-49.1,419.3l1.9,0.2c-2.3,0.3-4,0.2-2.2,0.5c0.3-0.7,7.5-0.1,7.8-0.7l1.3,0.1c-0.4,0-0.4,0-0.8,0
						c2.5,0.3,1.8-0.5,5-0.4c1.1,0.1,1.9,0.2,1.1,0.2l2.5-0.2c0.7,0,0.5,0.1-0.2,0.1l3.8-0.1l0,0c0.5-0.1,1.8-0.3,2.4-0.3
						c1,0.1-0.5,0.1-0.2,0.2l2.1-0.2c0.9,0.2-0.9,0.3-2.3,0.3c2,0.7,1.7-0.2,6,0.2l-2,0.1c1.3,0.4,2.8,0.2,5.1,0.5
						c-0.5-0.1-4.5-0.6-2.2-0.8c0.6,0.1,1.5,0.1,2.7-0.1c0,0.2,1.2,0.2,2.7,0.2l-0.1,0.3c1.6-0.1,1.5-0.3,2.4-0.4
						c1.8,0,2.2,0.3,2.6,0.5c2.9,0.1-2-0.4,1.4-0.5c2.4,0.1,4.1,0,7-0.2c1.7,0.1-0.3,0.2,0.3,0.3l1.5-0.3c0.4,0,0.2,0.1,0.2,0.1
						c1.3-0.1,0.1-0.3,2.1-0.4c0.5-0.4,4.1,0.5,6.5,0.1c0.6,0.1-0.3,0.2-0.1,0.3c3.4-0.3,2.9-0.2,5.6-0.5l2.3,0.2
						c-1.7-0.2,0.5-0.5,2.4-0.8c-0.6-0.1-1.1-0.2-1.5-0.3l3.1-0.2c0.4,0.1,0.1,0.2-0.4,0.3c0.2,0,0.4-0.1,0.6-0.1
						c1.1,0.1,0.5,0.3-0.3,0.5c-0.4-0.1-0.7-0.1-1.1-0.2c-0.8,0.2-1.5,0.4-1.3,0.6c0.2,0,0.6-0.1,1-0.1c-0.2,0.1-0.3,0.1-0.2,0.1
						c0.1,0,0.4,0,0.9-0.1l0.7,0.4l0.2-0.1l4,0.2c2.9-0.4,5.4-0.9,10-1c-1.1,0.3-0.2,0.4-0.3,0.7c-1.2-0.3-3.5,0.1-5.9,0.1
						c1.2,0,1,0.2,0.7,0.2l4.2-0.3c-0.1,0.3,0.9,0.2,2,0.3c-0.8-0.5,3.2-0.3,4.9-0.5c0.1,0.2-0.3,0.3-2.4,0.3c2.3,0.4,3-0.6,5.3-0.3
						c-0.5,0-0.8,0-1,0.1c1.2-0.1,4.1,0,3.4,0.1h-0.5c3.4,0.1,10.4,0,10.9-0.4c0,0.1-0.4,0.5-0.7,0.6l6.1-1.4
						c-0.5,0.4,1.5,1.2-1.3,1.4c0.8,0.1,1.8,0.1,3.5,0c-0.6-0.1-1.4-0.5-0.6-0.6c2.1,0.4,1.4,0.2,4,0.6c-0.8-0.1,0.1-0.7,1.4-0.6
						c-0.2,0.1,0.1,0.6-0.4,0.6l3.3-0.6c-0.8,0.1-0.1,0.5,0.6,0.6c-0.3-0.1,2.8,0,3.7,0l-1.4-0.1c3.7,0.1,3.6-0.8,7.3-0.8
						c-0.4,0.1-1.1,0.7,0.8,0.8c0.9-0.3,3.8-1.4,7-1.6l0.6,0.2l2.5-0.2c-1.5,0.4-5.9,1.3-8.2,1.7c1.4,0.1,0.4,0.2,2.4,0.2
						c0.7,0.2-1.1,0.2-1.7,0.2l4.8,0.1c-0.2-0.3,3.7-0.3,3.5-0.6l-5.2,0.3c-0.2-0.3,3-1,6.4-0.9c0.9,0.1-0.6,0.6-0.6,0.7
						c0.4-0.1,3.2-0.2,3.5-0.1l-1.4,0.2c1.9,0.1,3.1-0.4,5.4-0.1c0.8,0,2.3,0.4,2.5,0.2c-1.3-0.4-1.5-1.6-0.7-1.9
						c0.3,0,4.1,0.4,5,0.6c1.3,0.3-1.9,0.7-0.8,1c0-0.1,0.8-0.2,1.1-0.2c0.8,0.1-0.3,0.3,1.5,0.2c0.3-0.3,3.6,0,0.8-0.3
						c1.8-0.1,1.9,0.1,3.9,0.1c-0.7-0.2,1.8-0.8,3.6-0.8c-0.1,0.1,0.3,0.2,0.5,0.3c3.6,0,5.5,0.2,8.9,0.2c0.3,0.1,1.9,0.2,1.2,0.3
						c0.5-0.1,0.9-0.2,2-0.2c2,0.3-2.3,0-0.8,0.4c0.1-0.2,2.7-0.3,4.1-0.4c-0.5-0.3-3.4-0.1-4.9,0.1c0-0.4,2.6-0.9,6.1-1.1
						c2.8-0.1,1.2,0.3,1.7,0.2c5.2,0.1,4.5-0.7,8.8-0.4c1.7,0.3,0.1,0.5,0.5,0.7c-2.3,0.1-3.5-0.2-5-0.2l1.9,0.1
						c-0.7,0.1-2.2,0.2-3.1,0.1c1.4,0.2,8.8,0,12.9,0.3c0.7-0.1,2-0.2,1.4-0.3h-1.3c-1.2-0.2,2.4-0.3,0.8-0.4c1.7-0.2,3.6-0.4,6-0.3
						l0.5,0.3c-0.1-0.1-1.6-0.2-2.3-0.1c1-0.1,3.7,0.4,4.8,0l-1.7-0.2c1.7-0.2,3.8-0.5,6-0.4c-1-0.3-0.5,0-2-0.3
						c1.3,0.4-5.5,0-3.4,0.4c-1.6-0.4-2.7-0.2-4.7-0.5c0.1,0.1,0.7,0.2-1.1,0.1c-0.1,0-0.3,0.1-0.4,0.1s-0.1,0-0.1,0h0.1
						c-0.1,0-0.1,0,0,0c0.4,0,0.8,0.1,0.9,0.2c-0.9,0.2-3.7,0.2-4.7,0.3c-1.1,0,0.4-0.1-0.1-0.2l-1.4,0.2c-0.1-0.2-2.8-0.4-0.3-0.5
						h-2.3c-1.3-0.1-3.2-0.2-4.3-0.1c-1.1,0-2.7,0.2-1.8,0.1l-3.5,0.1v-0.1c-3.5,0-7.2,0.4-11.2,0c-1.2,0.1-2.4,0.1-4.4,0.1
						l-0.4-0.2c-1.5,0.1-4.5-0.2-5.2,0c-1.6-0.5-7.3-0.1-10-0.2l-0.1,0.3c-1.8,0-3.6,0.1-5.8,0.2l0.1,0.2c-2,0.2-5-0.2-8.1-0.1
						c0.2-0.1,1-0.1,1.6,0c-3.7-0.5-7.8,0.4-11.1,0c-0.8,0.1-1.4,0.1-2,0c0.1,0,0.1,0,0.2,0c-0.1,0-0.2,0-0.3,0
						c-0.4,0-0.7-0.1-1.2-0.1c0.3,0.1,0.7,0.1,1,0.1c-0.6,0-1.6,0-2.6,0.1l-0.4-0.2c-0.1,0-0.1,0-0.2,0c-0.9-0.1-0.8,0.1-0.3,0.3
						c-0.5,0-0.9,0.1-1.3,0.1c-0.8-0.4-2.5,0.1-3.6-0.3c-0.6,0.2-4.8,0.2-5.3,0.6c0-0.1-0.3-0.1,0.2-0.1c-1.1,0-2.1-0.1-3.1,0
						l-0.5-0.3l-2.3,0.4c-1.4-0.2-2-0.3-0.6-0.5c-3.4,0.4-2.8,0.1-5.6,0.5l0.1-0.2c-1,0-2.7,0.3-3.3,0.1c-2.3-0.4-11.4-0.1-17.4-0.4
						c1.1,0.6-2.8-0.3-3,0.2c-0.3-0.1-1.2-0.2-0.2-0.3c-3,0.1-4.5-0.2-6.6,0.2c-0.3-0.1,0.6-0.2,0.3-0.3c-0.2,0-1,0.1-1.3,0
						s0.4-0.1,0.9-0.2c-3.1,0-3.4,0.4-3.6,0.8c-1.6-0.2-2.3-0.2-3.5,0.1C18,417.2,17,417,19,417c-1.1,0-6.6-0.2-6.7,0.1
						c-0.3-0.1-1.5,0-1.8,0c-2.4,0-2.6,0-5,0l0.7,0.1c-0.9,0.4-2,0.1-3.9,0.1h0.1c-4.4-0.3-1.9,0.1-6.2-0.2l-0.2,0.4
						c-0.4,0.5-3.8-0.3-6.4-0.1l0.9,0.1c-1.4,0.2-3.8-0.7-5.2-0.8c-0.3,0,0.5-0.1,0.9-0.1c-3.6-0.3-0.5,0.3-3.2,0.4
						c-0.5-0.2,0.6-0.4-1.2-0.5c-0.9-0.1-5.3,0.6-7.7,0.2c0.5,0.1,1.1,0.3-0.2,0.4c-1.9,0-5.2-0.5-6.9-0.1c-0.2,0-0.3-0.1-0.3-0.1
						c-1.5,0.1-4.8,0.2-5.7,0.4c-1.4-0.8-9.1,0.4-9.1-0.4h-4.5l0.1-0.1c-2.9-0.1-3.9,0.1-4.9,0.3c-0.7-0.1-0.2-0.1-0.1-0.2
						c-4.2-0.2-4.6-0.1-8.2,0.3l-0.4-0.2c-1,0.1-6.1-0.4-10.2-0.1c0,0,0.1-0.1,0.5-0.1c-4.7,0.3-11.1-0.7-12.8,0.2l-3.1,0.2
						c4,0.1-0.6,0.4,1,0.5c-1.6,0.1-4-0.3-2.1-0.3h0.3c0.7-0.5-4.9-0.2-4.8-0.5c-7.8,0-15.4-0.2-22.7-0.3l0.8,0.4h-2.6
						c-0.7-0.1-0.9-0.3,0.9-0.3c-1-0.2-3.1,0.2-3.1,0.3c-3.6-0.1,1.4-0.4,0.3-0.4h-1.5h0.3c-1.2,0.1-1.3,0.3-3.5,0.3
						c-1.4-0.1-0.7-0.2-1.3-0.2c0,0-0.2,0-0.8,0h-3.2l1.3,0.3c-1.4,0.1-3,0-1.5,0.3c-2.2-0.5-12-0.2-13.3-0.3c-2,0.2-4,0.2-6.4,0.2
						c0.6,0.1,1,0.4-1.1,0.3c0.8-0.7-3.9-0.3-5.6-0.8c1.5,0.3-6,0.1-3.6,0.5c-1.8-0.1-0.1-0.3-1.4-0.4c-4.2,0.3-9.2-0.2-14.4-0.1
						c-0.1,0.1,0.8,0.2-0.3,0.4l-2.7-0.4c-1,0-0.9,0.5-2.8,0.2c0.3,0.1,0.7,0.2,0,0.2c-10.1-0.4-20.7,0.4-31-0.5
						c1.4,0.2,0.5,0.2-0.6,0.2c0.7,0,0,0.2,0.1,0.3l-4.3-0.3c-0.8,0.3-4.6,0-5.1,0.3l1.4-0.1c-1.8,0.4,2.5,0.8,2.3,1.3
						c2-0.4,5.4,0.6,8.7,0c0.7,0.1-0.6,0.2-0.2,0.3c0.8-0.2,1.9-0.2,3.8-0.2l-0.2,0.1c5.3-0.1,7.6,0.2,13.5,0.3l-0.4-0.2
						c1.3,0,1.6,0.1,2.2,0.2c1.5-0.4-3.6,0-2.3-0.4c1.7,0.5,9,0,10.2,0.6c2,0-0.6-0.3,1.4-0.3l0.5,0.1l0.5-0.2c1.3,0,1.9,0.2,2,0.3
						c-0.3,0-0.9,0-1.2,0c1.7,0.2,4.7-0.1,5.3,0l-2.1,0.2c5.4-0.1,11.9,0.1,17.1-0.2l-0.4-0.1c4-0.2,3.2,0.1,7.5,0h-0.2
						c0.9-0.1,2-0.2,3.2-0.2c-1.1,0.1,2.1,0.3,0.6,0.4c4.3-0.2,2.1-0.2,5-0.6l0.7,0.2c1-0.2,1-0.3,3.2-0.3c-1.8,0.2,1.4,0.3-0.6,0.5
						c4.6,0.4,6.8-0.4,8.9,0.2c2.1-0.5-4-0.3-2.8-0.4c-1-0.2,1.7-0.4,3.2-0.3c1.5,0,2.5,0.7,6.2,0.6c-0.4,0-0.4,0-0.8,0
						c1.4,0.1,2.7-0.2,4.4,0c0.9-0.3,2.2,0,2.5-0.4l-3.4,0.1c1.9-0.1,3.7-0.6,6.8-0.3c-0.2,0.1-1.2,0.2-1.8,0.2
						c0.9,0.1,1.8-0.1,2.7,0c-0.3,0.4-4.1,0.1-6.1,0.4c1,0.2,3.9-0.3,2.8,0.1c1.5-0.5,3.6,0.1,6.1-0.3l-0.2,0.2
						c0.4,0,1.2-0.1,1.9-0.1l-1.3,0.3c2-0.3,3.9,0.2,5.8,0.1c-4,0-0.9-0.3-2.6-0.5c5-0.3,2.9,0.6,8.4,0.5c-0.8,0-2.8-0.1-1.7-0.3
						c1.1,0,2.5,0.1,3.1,0.3c3.7,0-0.6-0.2,1-0.4c1.3,0.3,1.8-0.1,3.4-0.2v0.2c4.2,0.2,1.1-0.5,4.9-0.3l-1.6,0.3l2-0.1l-0.4,0.3
						c2.2-0.2,2.8-0.2,4.9-0.1c-0.5-0.2,0.3-0.4,2.1-0.4c1.3,0.1-0.7,0.2,1.9,0.2c-0.6,0.2-1.3,0.3-2.4,0.1
						c-0.1,0.1-0.6,0.2-0.7,0.2c1.4,0.2,3.4,0,4.4,0c-0.4,0-0.8,0-1-0.1l3.8-0.3c0.6,0.1,0.1,0.2-0.3,0.2c0.8,0,1.3-0.1,2.5-0.2
						c-0.3,0.2-0.2,0.4-1.8,0.5l3.7-0.2c0.2,0.1,1.9,0.2,1.4,0.3c2,0.1,5-0.4,7.7-0.2c0.1,0,0.4-0.1,1-0.1c2.5,0,4.8,0.3,7.8,0
						l1.7,0.4c2.3-0.1-2.3-0.4,1.6-0.6c2.8-0.1,1,0.3,2,0.4c1.4-0.2,3.8-0.5,6.3-0.3C-47.7,419.3-48.3,419.2-49.1,419.3z
						 M-20.2,419.1c-0.6,0.1-1.7,0.2-2.1,0.1C-21.7,418.9-21.2,419-20.2,419.1z M23.7,418.5c-0.4,0.1-1.1,0-1.8-0.1
						C22.4,418.4,23,418.5,23.7,418.5z M146.1,416.8C146,416.8,146,416.8,146.1,416.8C144.7,416.8,145.2,416.8,146.1,416.8z
						 M148.6,416.9c0.3,0,0.2-0.1,0.1-0.1c-0.2,0.1-0.8,0.1-1.4,0C147.5,416.9,147.9,417,148.6,416.9z M-129.8,417l0.5,0.1
						C-130.5,417.2-130.2,417.1-129.8,417z"/>
					<path class="st5" d="M18.7,418.8c-0.2,0-0.2-0.1-0.2-0.1C18.3,418.8,18.3,418.8,18.7,418.8z"/>
					<path class="st5" d="M-67.1,419.4L-67.1,419.4c-0.1,0-0.2,0-0.2,0H-67.1z"/>
					<path class="st5" d="M108.5,419c-0.5,0-0.8-0.1-1-0.1C107.4,418.9,107.7,419,108.5,419z"/>
					<path class="st5" d="M162.4,416.5l-1.7,0.1c0.8,0,1.1,0,1.5,0.1C162.2,416.6,161.9,416.5,162.4,416.5z"/>
					<path class="st5" d="M176.8,418c0.2,0,0.5,0,0.8,0l-0.1-0.1C176.5,417.9,175.7,418,176.8,418z"/>
					<path class="st5" d="M163.9,417.3c0.1,0.2,1.2,0.1,2.3,0.1c-0.1,0-0.1,0-0.2,0C166.4,417.1,165.2,417.2,163.9,417.3z"/>
					<path class="st5" d="M166.5,417.4c0.4,0,0.7,0,1.1,0C167.7,417.3,167.2,417.4,166.5,417.4z"/>
					<path class="st5" d="M151.9,416.8c0.6,0.1,0.3-0.3,0.7-0.2C153.2,416.4,148.9,416.9,151.9,416.8z"/>
					<polygon class="st5" points="164.9,418 164.5,417.7 163.8,418 					"/>
					<path class="st5" d="M155.7,417.8l1.9,0.1c0,0,0.2-0.1,0.5-0.1C156.9,417.8,155.6,417.7,155.7,417.8z"/>
					<path class="st5" d="M158,417.8c0.6,0,1.2,0,1.5,0C159.2,417.8,158.5,417.8,158,417.8z"/>
					<polygon class="st5" points="162.3,418.1 161.8,418 160.5,418 					"/>
					<path class="st5" d="M135.7,417.8l-2,0.1c-0.2,0.1,0.3,0.1,1.1,0.1C135.3,417.9,136,417.8,135.7,417.8z"/>
					<path class="st5" d="M141.8,418.5c-0.5-0.1-0.6-0.1-0.9-0.2l-0.1,0.3L141.8,418.5z"/>
					<path class="st5" d="M135.9,418.5c-0.2,0.1-2.9,0.2-0.4,0.2C135.7,418.7,137.8,418.6,135.9,418.5z"/>
					<polygon class="st5" points="105.3,418.1 105.9,418.1 105.8,417.6 					"/>
					<path class="st5" d="M78.4,419.4c2.4,0.1,0.6-0.3,2.7-0.2c0.6-0.1-1.8-0.1-1.2-0.2C78.5,419.1,77.7,419,78.4,419.4z"/>
					<path class="st5" d="M79.9,419c0.2,0,0.5,0,0.7-0.1C80.3,418.9,80.1,418.9,79.9,419z"/>
					<polygon class="st5" points="-224.2,416.8 -225.8,416.7 -224.8,416.8 					"/>
					<path class="st5" d="M-227.2,417.2l-0.4-0.3l-0.9,0.3C-228.2,417.1-227.5,417.1-227.2,417.2z"/>
					<path class="st5" d="M-15.9,419.7l0.1-0.1c-0.2-0.1-0.6-0.1-1.3-0.1L-15.9,419.7z"/>
					<polygon class="st5" points="-36.9,419.5 -36.5,419.5 -37.2,419.2 					"/>
					<path class="st5" d="M-54.5,419.9c0.7,0,1.6-0.1,2.3,0C-53.8,419.9-54.7,419.5-54.5,419.9z"/>
				</g>
			</g>
		</g>
	</g>
</g>
</svg>
