<?xml version="1.0" encoding="utf-8"?>
<!-- Generator: Adobe Illustrator 19.1.0, SVG Export Plug-In . SVG Version: 6.00 Build 0)  -->
<svg version="1.1" id="Calque_1" xmlns="http://www.w3.org/2000/svg" xmlns:xlink="http://www.w3.org/1999/xlink" x="0px" y="0px"
	 viewBox="-10 317.3 589.7 158.7" style="enable-background:new -10 317.3 589.7 158.7;" xml:space="preserve">
 <style type="text/css">
        .entour{
           fill: #4AADC7;               
}
   
 </style>
<g>
    <path class="entour" d="M133.4,340.9c0,0-4.5,1.4-12.7,4.2c-8.3,2.8-20.4,7.2-35.5,13.3c-7.6,3.1-15.9,6.6-24.8,10.8c-8.9,4.2-18.4,9-28.1,14.9
            c-4.8,3-9.7,6.2-14.4,10c-4.6,3.8-9.2,8-12.7,13.2c-1.7,2.6-3,5.5-3.6,8.5c-0.6,3-0.1,6.2,1.2,9.1c1.3,2.9,3.5,5.4,5.9,7.6
            c2.5,2.2,5.3,4.2,8.3,5.9c6,3.5,12.5,6.2,19.4,8.6c6.8,2.4,13.9,4.4,21.2,6.3c3.6,0.9,7.3,1.8,11.1,2.6c1.9,0.4,3.7,0.8,5.6,1.2
            c1.9,0.3,3.8,0.7,5.7,1c1.9,0.3,3.8,0.7,5.8,1c1.9,0.3,3.9,0.5,5.8,0.8c2,0.3,3.9,0.5,5.9,0.8c1,0.1,2,0.2,3,0.4c1,0.1,2,0.2,3,0.3
            c4,0.4,8,0.8,12,1.2c4,0.4,8.1,0.6,12.2,0.9c8.2,0.7,16.5,1,24.9,1.5c4.2,0.3,8.4,0.4,12.7,0.6c4.2,0.2,8.5,0.3,12.8,0.5
            c4.3,0.1,8.6,0.2,12.9,0.4c4.3,0.1,8.7,0.3,13.1,0.3c35,0.6,71.2,0.2,107.8-1.7c2.3-0.1,4.6-0.2,6.9-0.4c2.3-0.2,4.6-0.3,6.9-0.5
            c2.3-0.2,4.6-0.3,6.9-0.5c2.3-0.2,4.6-0.3,6.9-0.5c4.6-0.4,9.2-0.8,13.8-1.3l3.5-0.3c1.2-0.1,2.3-0.3,3.4-0.4l6.9-0.8
            c4.6-0.6,9.2-1.1,13.8-1.9c4.6-0.8,9.2-1.4,13.7-2.2c9.2-1.7,18.3-3.4,27.5-5.3c18.3-3.6,36.6-7.5,54.6-11.8
            c18-4.4,35.9-9.2,53.2-15.2c4.3-1.5,8.6-3.1,12.7-4.9c4.2-1.7,8.3-3.6,12.2-5.8c3.9-2.1,7.7-4.5,11-7.3c1.6-1.4,3-3,4.1-4.7
            c1.1-1.7,1.6-3.6,1.5-5.4s-0.9-3.6-2.2-5.2c-1.2-1.6-2.8-3-4.4-4.4c-3.4-2.6-7.2-4.7-11.2-6.6c-7.9-3.7-16.2-6.6-24.6-9.1
            c-16.7-5-33.5-8.7-50-12c-16.5-3.3-32.7-6-48.6-8.5c-31.7-4.9-61.8-8.7-89.6-11.8c-27.8-3.1-53.4-5.7-76-7.8
            c-22.7-2.1-42.4-3.8-58.7-5.1c-16.3-1.5-29.1-2.5-37.9-3.1c-8.7-0.6-13.4-0.9-13.4-0.9s4.7,0.2,13.4,0.7s21.6,1.2,37.9,2.3
            s36.1,2.5,58.8,4.4c22.7,1.9,48.3,4.1,76.2,7.1s58,6.5,89.8,11.2c15.9,2.4,32.2,5,48.8,8.2c16.6,3.2,33.5,6.9,50.3,11.9
            c8.4,2.5,16.9,5.4,25.1,9.2c4.1,1.9,8.1,4.1,11.9,7c1.8,1.5,3.6,3.1,5.1,5c1.5,2,2.7,4.4,2.9,7.1c0.2,2.7-0.7,5.4-2,7.5
            c-1.3,2.1-3,3.9-4.8,5.5c-3.6,3.2-7.6,5.6-11.6,7.8c-4.1,2.2-8.3,4.1-12.5,5.9c-4.3,1.8-8.6,3.4-12.9,5
            c-17.5,6.1-35.4,11-53.5,15.5c-18.1,4.4-36.4,8.4-54.7,12c-9.2,1.8-18.4,3.5-27.5,5.2c-4.6,0.8-9.3,1.5-13.9,2.2
            c-4.6,0.8-9.3,1.3-13.9,1.8l-6.9,0.8c-1.2,0.1-2.3,0.3-3.5,0.4l-3.5,0.3c-4.6,0.4-9.3,0.8-13.9,1.2c-2.3,0.2-4.6,0.4-6.9,0.5
            c-2.3,0.2-4.6,0.3-6.9,0.5c-2.3,0.2-4.6,0.3-6.9,0.5c-2.3,0.2-4.6,0.3-6.9,0.4c-36.8,1.8-73,2.1-108.1,1.5
            c-35.1-0.7-68.9-2.5-100.9-6c-1-0.1-2-0.2-3-0.3s-2-0.3-3-0.4c-2-0.3-4-0.5-5.9-0.8c-2-0.3-3.9-0.5-5.9-0.8
            c-1.9-0.4-3.9-0.7-5.8-1.1c-1.9-0.3-3.8-0.7-5.7-1c-1.9-0.4-3.8-0.8-5.7-1.3c-3.8-0.9-7.5-1.8-11.1-2.7c-7.3-1.9-14.5-4-21.4-6.5
            s-13.6-5.3-19.7-8.9c-3.1-1.8-6-3.9-8.6-6.2c-2.6-2.4-4.9-5.1-6.4-8.4c-1.5-3.2-1.9-6.9-1.3-10.3c0.6-3.4,2.2-6.5,4-9.2
            c3.7-5.4,8.5-9.7,13.2-13.5c4.8-3.7,9.8-7,14.7-9.9c9.8-5.8,19.4-10.5,28.4-14.6s17.4-7.5,25-10.5c15.2-6,27.4-10,35.7-12.7
            C128.9,342.2,133.4,340.9,133.4,340.9z"/>
</g>
</svg>
