<?xml version="1.0" encoding="utf-8"?>
<!-- Generator: Adobe Illustrator 19.1.0, SVG Export Plug-In . SVG Version: 6.00 Build 0)  -->
<svg version="1.1" id="symb-res-soc" xmlns="http://www.w3.org/2000/svg" xmlns:xlink="http://www.w3.org/1999/xlink" x="0px"
	 y="0px" viewBox="-317 -340 364 340" style="enable-background:new -317 -340 364 340;" xml:space="preserve">
<style type="text/css">
	.st0{fill:none;stroke:#4AADC7;stroke-width:11;stroke-linecap:round;stroke-linejoin:round;}
	.st1{fill:#4AADC7;}
	.st2{fill:none;stroke:#73A71A;stroke-width:11;stroke-linecap:round;stroke-linejoin:round;stroke-miterlimit:10;}
	.st3{opacity:0.27;}
	.st4{fill:none;}
	.st5{opacity:0.15;fill:url(#SVGID_1_);enable-background:new    ;}
	.st6{opacity:0.5;fill:url(#SVGID_2_);enable-background:new    ;}
	.st7{fill:url(#SVGID_3_);}
	.st8{opacity:3.000000e-002;fill:none;stroke:#FAFEFF;stroke-width:2;stroke-miterlimit:10;enable-background:new    ;}
	.st9{fill:none;stroke:#73A71A;stroke-width:11;stroke-linecap:round;stroke-linejoin:round;}
	.st10{fill:#73A71A;}
	.st11{fill:none;stroke:#E03A67;stroke-width:11;stroke-linecap:round;stroke-linejoin:round;}
	.st12{fill:#E03A67;}
</style>
<g id="fBleu">
	<g>
		<g>
			<polyline class="st0" points="-299.7,-18.3 -299.7,-114.6 -299.7,-156.7 -256.1,-155.1 -256.2,-235.5 -250.4,-235.5 -223,-235.4 
							"/>
			<g>
				<polygon class="st1" points="-244.9,-216.6 -226.2,-235.3 -244.9,-253.9 -229,-253.9 -210.4,-235.3 -229,-216.6 				"/>
			</g>
		</g>
	</g>
</g>
<circle id="cercle" class="st2" cx="-123.1" cy="-216.4" r="80.6"/>
<g id="oeuil_1_" class="st3">
	<line class="st4" x1="-122.8" y1="-216.4" x2="-124.8" y2="-254.1"/>
	<circle class="st4" cx="-122.8" cy="-216.4" r="31.4"/>
	<circle class="st4" cx="-122.8" cy="-216.4" r="37.7"/>
	<polyline class="st4" points="-122.8,-216.4 -159.9,-212.6 -122.8,-216.4 -85.6,-220.2 -122.8,-216.4 -126.6,-253.5 -122.8,-216.4 
		-118.9,-179.3 -122.8,-216.4 -229.8,-195 -122.8,-216.4 -15.7,-237.9 -122.8,-216.4 -144.2,-323.5 -122.8,-216.4 -101.3,-109.3 
		-122.8,-216.4 -245.9,-304.2 -122.8,-216.4 0.3,-128.6 -122.8,-216.4 -34.9,-339.5 -122.8,-216.4 -210.6,-93.3 -122.8,-216.4 
		-125.1,-216.6 -122.8,-216.4 -120.4,-216.2 -122.8,-216.4 -122.6,-218.7 -122.8,-216.4 -122.9,-214.1 -122.8,-216.4 -180.3,-223.7 
		-122.8,-216.4 -65.2,-209.1 -122.8,-216.4 -115.5,-274 -122.8,-216.4 -130.1,-158.8 -122.8,-216.4 -159,-218.4 -122.8,-216.4 
		-86.5,-214.5 -122.8,-216.4 -120.8,-252.7 -122.8,-216.4 -124.7,-180.1 -122.8,-216.4 -244.8,-349 -122.8,-216.4 -0.7,-83.8 
		-122.8,-216.4 9.8,-338.5 -122.8,-216.4 -255.3,-94.3 -122.8,-216.4 -167.1,-220.2 -122.8,-216.4 -78.4,-212.7 -122.8,-216.4 
		-119,-260.7 -122.8,-216.4 -126.5,-172.1 -122.8,-216.4 -231,-242.2 -122.8,-216.4 -14.5,-190.6 -122.8,-216.4 -97,-324.6 
		-122.8,-216.4 -148.5,-108.2 -122.8,-216.4 -222.9,-228.3 -122.8,-216.4 -22.7,-204.5 -122.8,-216.4 -110.9,-316.5 -122.8,-216.4 
		-134.6,-116.3 -122.8,-216.4 -159.9,-279.4 -122.8,-216.4 -85.6,-153.5 -122.8,-216.4 -59.8,-253.6 -122.8,-216.4 -185.7,-179.2 
		-122.8,-216.4 -242.6,-327.6 -122.8,-216.4 -2.9,-105.2 -122.8,-216.4 -11.6,-336.3 -122.8,-216.4 -233.9,-96.5 -122.8,-216.4 
		-174.1,-313.5 -122.8,-216.4 -71.4,-119.3 -122.8,-216.4 -25.7,-267.8 -122.8,-216.4 -219.8,-165.1 -122.8,-216.4 -197.5,-313.7 
		-122.8,-216.4 -48,-119.1 -122.8,-216.4 -25.5,-291.2 -122.8,-216.4 -220,-141.6 -122.8,-216.4 -232.5,-200.2 -122.8,-216.4 
		-13,-232.6 -122.8,-216.4 -138.9,-326.2 -122.8,-216.4 -106.6,-106.7 	"/>
	
		<radialGradient id="SVGID_1_" cx="-122.8" cy="-121.6" r="75.4" gradientTransform="matrix(1 0 0 -1 0 -338)" gradientUnits="userSpaceOnUse">
		<stop  offset="0" style="stop-color:#080101"/>
		<stop  offset="0.73" style="stop-color:#4C120A"/>
		<stop  offset="1" style="stop-color:#080101"/>
	</radialGradient>
	<circle class="st5" cx="-122.8" cy="-216.4" r="75.4"/>
	
		<radialGradient id="SVGID_2_" cx="-122.8" cy="-121.6" r="37.7505" gradientTransform="matrix(1 0 0 -1 0 -338)" gradientUnits="userSpaceOnUse">
		<stop  offset="0.15" style="stop-color:#FAFEFF"/>
		<stop  offset="0.1815" style="stop-color:#E1DEDF"/>
		<stop  offset="0.2549" style="stop-color:#AC989A"/>
		<stop  offset="0.3211" style="stop-color:#816163"/>
		<stop  offset="0.3777" style="stop-color:#63393C"/>
		<stop  offset="0.4225" style="stop-color:#502124"/>
		<stop  offset="0.45" style="stop-color:#49181B"/>
		<stop  offset="0.6059" style="stop-color:#290D0E"/>
		<stop  offset="0.7572" style="stop-color:#110405"/>
		<stop  offset="0.85" style="stop-color:#080101"/>
		<stop  offset="0.8576" style="stop-color:#0C0201"/>
		<stop  offset="0.8654" style="stop-color:#190402"/>
		<stop  offset="0.8734" style="stop-color:#2D0704"/>
		<stop  offset="0.8815" style="stop-color:#4A0C06"/>
		<stop  offset="0.8896" style="stop-color:#701309"/>
		<stop  offset="0.8977" style="stop-color:#9D1B0D"/>
		<stop  offset="0.9" style="stop-color:#AB1D0E"/>
		<stop  offset="0.9114" style="stop-color:#82160B"/>
		<stop  offset="0.9238" style="stop-color:#5D1008"/>
		<stop  offset="0.9368" style="stop-color:#3E0A05"/>
		<stop  offset="0.9504" style="stop-color:#260603"/>
		<stop  offset="0.9648" style="stop-color:#150302"/>
		<stop  offset="0.9805" style="stop-color:#0B0201"/>
		<stop  offset="1" style="stop-color:#080101"/>
	</radialGradient>
	<circle class="st6" cx="-122.8" cy="-216.4" r="37.7"/>
	
		<radialGradient id="SVGID_3_" cx="-122.8" cy="-121.6" r="31.4643" gradientTransform="matrix(1 0 0 -1 0 -338)" gradientUnits="userSpaceOnUse">
		<stop  offset="0.15" style="stop-color:#FAFEFF"/>
		<stop  offset="0.2807" style="stop-color:#BFC2C3"/>
		<stop  offset="0.4239" style="stop-color:#868889"/>
		<stop  offset="0.5625" style="stop-color:#575858"/>
		<stop  offset="0.6929" style="stop-color:#313232"/>
		<stop  offset="0.8129" style="stop-color:#171717"/>
		<stop  offset="0.919" style="stop-color:#070707"/>
		<stop  offset="1" style="stop-color:#010101"/>
	</radialGradient>
	<circle class="st7" cx="-122.8" cy="-216.4" r="31.4"/>
	<polyline class="st8" points="-122.8,-216.4 -159.9,-212.6 -122.8,-216.4 -85.6,-220.2 -122.8,-216.4 -126.6,-253.5 -122.8,-216.4 
		-118.9,-179.3 -122.8,-216.4 -229.8,-195 -122.8,-216.4 -15.7,-237.9 -122.8,-216.4 -144.2,-323.5 -122.8,-216.4 -101.3,-109.3 
		-122.8,-216.4 -245.9,-304.2 -122.8,-216.4 0.3,-128.6 -122.8,-216.4 -34.9,-339.5 -122.8,-216.4 -210.6,-93.3 -122.8,-216.4 
		-125.1,-216.6 -122.8,-216.4 -120.4,-216.2 -122.8,-216.4 -122.6,-218.7 -122.8,-216.4 -122.9,-214.1 -122.8,-216.4 -180.3,-223.7 
		-122.8,-216.4 -65.2,-209.1 -122.8,-216.4 -115.5,-274 -122.8,-216.4 -130.1,-158.8 -122.8,-216.4 -159,-218.4 -122.8,-216.4 
		-86.5,-214.5 -122.8,-216.4 -120.8,-252.7 -122.8,-216.4 -124.7,-180.1 -122.8,-216.4 -244.8,-349 -122.8,-216.4 -0.7,-83.8 
		-122.8,-216.4 9.8,-338.5 -122.8,-216.4 -255.3,-94.3 -122.8,-216.4 -167.1,-220.2 -122.8,-216.4 -78.4,-212.7 -122.8,-216.4 
		-119,-260.7 -122.8,-216.4 -126.5,-172.1 -122.8,-216.4 -231,-242.2 -122.8,-216.4 -14.5,-190.6 -122.8,-216.4 -97,-324.6 
		-122.8,-216.4 -148.5,-108.2 -122.8,-216.4 -222.9,-228.3 -122.8,-216.4 -22.7,-204.5 -122.8,-216.4 -110.9,-316.5 -122.8,-216.4 
		-134.6,-116.3 -122.8,-216.4 -159.9,-279.4 -122.8,-216.4 -85.6,-153.5 -122.8,-216.4 -59.8,-253.6 -122.8,-216.4 -185.7,-179.2 
		-122.8,-216.4 -242.6,-327.6 -122.8,-216.4 -2.9,-105.2 -122.8,-216.4 -11.6,-336.3 -122.8,-216.4 -233.9,-96.5 -122.8,-216.4 
		-174.1,-313.5 -122.8,-216.4 -71.4,-119.3 -122.8,-216.4 -25.7,-267.8 -122.8,-216.4 -219.8,-165.1 -122.8,-216.4 -197.5,-313.7 
		-122.8,-216.4 -48,-119.1 -122.8,-216.4 -25.5,-291.2 -122.8,-216.4 -220,-141.6 -122.8,-216.4 -232.5,-200.2 -122.8,-216.4 
		-13,-232.6 -122.8,-216.4 -138.9,-326.2 -122.8,-216.4 -106.6,-106.7 	"/>
</g>
<g id="fVerte">
	<g>
		<g>
			<polyline class="st9" points="-38.5,-13.1 -62.1,-56.2 -42,-82.1 -107,-103.4 -87.5,-138.5 -120,-210.7 			"/>
			<g>
				<polygon class="st10" points="-94,-198.4 -118.6,-207.7 -128,-183.1 -134.5,-197.5 -125.1,-222.2 -100.5,-212.8 				"/>
			</g>
		</g>
	</g>
</g>
<g id="fRose">
	<g>
		<g>
			<polyline class="st11" points="-9.7,-12.1 -9.7,-62.4 14.5,-62.5 14.5,-67.5 -47.3,-162.6 20.9,-164.4 21,-247.1 			"/>
			<g>
				<polygon class="st12" points="39.6,-225.2 21,-243.8 2.3,-225.2 2.3,-241 21,-259.7 39.6,-241 				"/>
			</g>
		</g>
	</g>
</g>
</svg>
