<?xml version="1.0" encoding="utf-8"?>
<!-- Generator: Adobe Illustrator 19.1.0, SVG Export Plug-In . SVG Version: 6.00 Build 0)  -->
<svg version="1.1" id="symb_x5F_strat_x5F_market" xmlns="http://www.w3.org/2000/svg" xmlns:xlink="http://www.w3.org/1999/xlink"
	 x="0px" y="0px" viewBox="-288 -44.8 422 489.8" style="enable-background:new -288 -44.8 422 489.8;" xml:space="preserve">
<style type="text/css">
	.st0{fill:#9E005D;}
	.st1{fill:#ED1E79;}
	.st2{fill:#FFFFFF;}
	.st3{display:none;fill:#333333;}
	.st4{opacity:0.69;}
	.st5{fill:none;}
	.st6{opacity:0.15;fill:url(#SVGID_1_);enable-background:new    ;}
	.st7{opacity:0.5;fill:url(#SVGID_2_);enable-background:new    ;}
	.st8{fill:url(#SVGID_3_);}
	.st9{opacity:3.000000e-002;fill:none;stroke:#FAFEFF;stroke-width:2;stroke-miterlimit:10;enable-background:new    ;}
</style>
<path id="cornée" class="st0" d="M-59,420c-40.9-3-82.8-19-116.6-42.3c-33.2-22.9-57-57.1-68.8-95.6c-12.8-41.5-15-87.4-4.9-129.8
	c9.6-40.2,30.7-77.4,60.3-106.2c29.2-28.4,66.1-49.4,106.2-57.5c5.2-1.1,10.5-2,15.7-2.6l10.1-1l0.2,9.4c0.1,8.7,0,17.5-0.3,26.2
	v0.9l-2,0.2c-4-0.6-8.5,0.1-12.4,0.3c-36.6,2.6-72.2,17.7-100.3,41c-26.8,22.3-46.5,52.5-56.6,85.8c-11.2,36.9-10.5,77.4,3.2,113.6
	c12.4,32.7,34.8,61.5,62.9,82.1c29.6,21.8,66,34.2,102.8,34.2l2.4,0.1c1.4,11.1-0.1,24.5,0,35.6v5.5L-59,420L-59,420z"/>
<circle id="oeil" class="st1" cx="-60.5" cy="195.9" r="158.5"/>
<rect id="retine" x="-100.8" y="168.2" class="st0" width="80.9" height="80.9"/>
<rect id="lumière" x="-112.7" y="157.3" class="st2" width="33.6" height="33.6"/>
<circle id="pupille" class="st3" cx="-60.3" cy="208.7" r="8.4"/>
<g id="hallo">
	<g class="st4">
		<line class="st5" x1="-92.4" y1="181.6" x2="-45.8" y2="248.3"/>
		<circle class="st5" cx="-92.4" cy="181.6" r="67.8"/>
		<path class="st5" d="M-92.4,181.6l55.6,157.6L-92.4,181.6L-148,24l54,153.1c0.9,2.5-0.4,5.2-2.9,6L-250,237.2L-92.4,181.6
			L65.2,126l-153.5,54.2c-2.3,0.8-3.6,3.3-3,5.6L-48,357.3L-92.4,181.6L-136.8,5.9L-93.5,177c0.6,2.5-0.9,5.1-3.4,5.8L-268.1,226
			L-92.4,181.6l175.7-44.4l-156.7,39.6c-4.8,1.2-4.8,8.1,0.1,9.2l366.9,85.2L-92.4,181.6l-386-89.6L-97,180.5
			c2.6,0.6,4.1,3.1,3.5,5.7L-182,567.6L-92.4,181.6l89.6-386l-88.4,380.7c-0.6,2.8,1.3,5.5,4.2,5.8l380.2,35.6L-92.4,181.6
			L-478,145.5l380.9,35.7c2.6,0.2,4.5,2.6,4.3,5.2l-35.7,380.8L-92.4,181.6L-56.3-204l-36,384.9c0,0.5,0,0.9,0.1,1.4L-57,357.5
			L-92.4,181.6L-127.7,5.8L-93.3,177c0.5,2.6-1.1,5.1-3.7,5.6l-171.2,34.3L-92.4,181.6l175.8-35.3l-170.2,34.2
			c-2.9,0.6-4.6,3.7-3.4,6.5l1.9,4.7L-92.4,181.6l-4.1-10l2.3,5.6c1,2.4-0.2,5.2-2.6,6.2l-5.6,2.3L-92.4,181.6l10-4.1l0,0
			c-3.8,1.6-3.9,7-0.2,8.7l247.9,114.7L-92.4,181.6L-350.1,62.3l253.4,117.3c2.4,1.1,3.4,3.9,2.3,6.3l-117.3,253.4L-92.4,181.6
			L26.9-76.1L-90.8,178.1c-0.9,2-0.3,4.4,1.4,5.8l265.3,200.8L-92.4,181.6L-360.8-21.5l264.6,200.2c2.1,1.6,2.5,4.6,0.9,6.6
			L-295.5,450L-92.4,181.6L110.7-86.7L-91,179.8c-0.9,1.2-1.2,2.7-0.8,4.1l83.5,312L-92.4,181.6l-84.2-314.2L-93.7,177
			c0.7,2.5-0.8,5.1-3.4,5.8l-309.6,82.9L-92.4,181.6l314.2-84.1L-82.7,179c-3.9,1-4.8,6.1-1.5,8.4l113.4,81L-92.4,181.6L-214,94.7
			l117.7,84.1c2.1,1.5,2.6,4.5,1.1,6.6l-84.1,117.8L-92.4,181.6L-5.5,60L-91,179.6c-0.9,1.3-1.1,2.9-0.6,4.4l67.1,181.7L-92.4,181.6
			l-68-184.1l66.3,179.7c0.9,2.5-0.3,5.2-2.8,6.1l-179.6,66.3L-92.4,181.6l184.1-68l-175.9,65c-3.5,1.3-4.2,6-1.2,8.2l113.3,84.9
			L-92.4,181.6l-120.3-90.1l116.4,87.3c2.1,1.6,2.5,4.5,1,6.6l-87.3,116.4L-92.4,181.6L-2.3,61.4l-88.2,117.7
			c-1.1,1.5-1.3,3.6-0.3,5.2L33.3,396.2L-92.4,181.6L-218.2-33l123.3,210.5c1.3,2.3,0.6,5.2-1.7,6.5L-307,307.4L-92.4,181.6
			L122.2,55.9L-84.5,177c-3.3,1.9-3.1,6.8,0.4,8.4l63.2,28.7L-92.4,181.6l-71.6-32.5l67.2,30.5c2.4,1.1,3.4,3.9,2.4,6.3l-30.5,67.3
			L-92.4,181.6l32.5-71.5l-31.8,70c-0.5,1-0.5,2.2-0.2,3.2l15.3,54.6L-92.4,181.6l-15.8-56.3l14.5,51.7c0.7,2.5-0.8,5.1-3.3,5.8
			l-51.7,14.5L-92.4,181.6l56.3-15.8"/>
		
			<radialGradient id="SVGID_1_" cx="-92.4" cy="218.8" r="162.7" gradientTransform="matrix(1 0 0 -1 0 400.4)" gradientUnits="userSpaceOnUse">
			<stop  offset="0" style="stop-color:#080101"/>
			<stop  offset="0.73" style="stop-color:#4C120A"/>
			<stop  offset="1" style="stop-color:#080101"/>
		</radialGradient>
		<circle class="st6" cx="-92.4" cy="181.6" r="162.7"/>
		
			<radialGradient id="SVGID_2_" cx="-92.4" cy="218.8" r="81.4" gradientTransform="matrix(1 0 0 -1 0 400.4)" gradientUnits="userSpaceOnUse">
			<stop  offset="0.15" style="stop-color:#FAFEFF"/>
			<stop  offset="0.1815" style="stop-color:#E1DEDF"/>
			<stop  offset="0.2549" style="stop-color:#AC989A"/>
			<stop  offset="0.3211" style="stop-color:#816163"/>
			<stop  offset="0.3777" style="stop-color:#63393C"/>
			<stop  offset="0.4225" style="stop-color:#502124"/>
			<stop  offset="0.45" style="stop-color:#49181B"/>
			<stop  offset="0.6059" style="stop-color:#290D0E"/>
			<stop  offset="0.7572" style="stop-color:#110405"/>
			<stop  offset="0.85" style="stop-color:#080101"/>
			<stop  offset="0.8576" style="stop-color:#0C0201"/>
			<stop  offset="0.8654" style="stop-color:#190402"/>
			<stop  offset="0.8734" style="stop-color:#2D0704"/>
			<stop  offset="0.8815" style="stop-color:#4A0C06"/>
			<stop  offset="0.8896" style="stop-color:#701309"/>
			<stop  offset="0.8977" style="stop-color:#9D1B0D"/>
			<stop  offset="0.9" style="stop-color:#AB1D0E"/>
			<stop  offset="0.9114" style="stop-color:#82160B"/>
			<stop  offset="0.9238" style="stop-color:#5D1008"/>
			<stop  offset="0.9368" style="stop-color:#3E0A05"/>
			<stop  offset="0.9504" style="stop-color:#260603"/>
			<stop  offset="0.9648" style="stop-color:#150302"/>
			<stop  offset="0.9805" style="stop-color:#0B0201"/>
			<stop  offset="1" style="stop-color:#080101"/>
		</radialGradient>
		<circle class="st7" cx="-92.4" cy="181.6" r="81.4"/>
		
			<radialGradient id="SVGID_3_" cx="-92.4" cy="218.8" r="67.8" gradientTransform="matrix(1 0 0 -1 0 400.4)" gradientUnits="userSpaceOnUse">
			<stop  offset="0.15" style="stop-color:#FAFEFF"/>
			<stop  offset="0.2807" style="stop-color:#BFC2C3"/>
			<stop  offset="0.4239" style="stop-color:#868889"/>
			<stop  offset="0.5625" style="stop-color:#575858"/>
			<stop  offset="0.6929" style="stop-color:#313232"/>
			<stop  offset="0.8129" style="stop-color:#171717"/>
			<stop  offset="0.919" style="stop-color:#070707"/>
			<stop  offset="1" style="stop-color:#010101"/>
		</radialGradient>
		<circle class="st8" cx="-92.4" cy="181.6" r="67.8"/>
		<path class="st9" d="M-92.4,181.6l55.6,157.6L-92.4,181.6L-148,24l54,153.1c0.9,2.5-0.4,5.2-2.9,6L-250,237.2L-92.4,181.6
			L65.2,126l-153.5,54.2c-2.3,0.8-3.6,3.3-3,5.6L-48,357.3L-92.4,181.6L-136.8,5.9L-93.5,177c0.6,2.5-0.9,5.1-3.4,5.8L-268.1,226
			L-92.4,181.6l175.7-44.4l-156.7,39.6c-4.8,1.2-4.8,8.1,0.1,9.2l366.9,85.2L-92.4,181.6l-386-89.6L-97,180.5
			c2.6,0.6,4.1,3.1,3.5,5.7L-182,567.6L-92.4,181.6l89.6-386l-88.4,380.7c-0.6,2.8,1.3,5.5,4.2,5.8l380.2,35.6L-92.4,181.6
			L-478,145.5l380.9,35.7c2.6,0.2,4.5,2.6,4.3,5.2l-35.7,380.8L-92.4,181.6L-56.3-204l-36,384.9c0,0.5,0,0.9,0.1,1.4L-57,357.5
			L-92.4,181.6L-127.7,5.8L-93.3,177c0.5,2.6-1.1,5.1-3.7,5.6l-171.2,34.3L-92.4,181.6l175.8-35.3l-170.2,34.2
			c-2.9,0.6-4.6,3.7-3.4,6.5l1.9,4.7L-92.4,181.6l-4.1-10l2.3,5.6c1,2.4-0.2,5.2-2.6,6.2l-5.6,2.3L-92.4,181.6l10-4.1l0,0
			c-3.8,1.6-3.9,7-0.2,8.7l247.9,114.7L-92.4,181.6L-350.1,62.3l253.4,117.3c2.4,1.1,3.4,3.9,2.3,6.3l-117.3,253.4L-92.4,181.6
			L26.9-76.1L-90.8,178.1c-0.9,2-0.3,4.4,1.4,5.8l265.3,200.8L-92.4,181.6L-360.8-21.5l264.6,200.2c2.1,1.6,2.5,4.6,0.9,6.6
			L-295.5,450L-92.4,181.6L110.7-86.7L-91,179.8c-0.9,1.2-1.2,2.7-0.8,4.1l83.5,312L-92.4,181.6l-84.2-314.2L-93.7,177
			c0.7,2.5-0.8,5.1-3.4,5.8l-309.6,82.9L-92.4,181.6l314.2-84.1L-82.7,179c-3.9,1-4.8,6.1-1.5,8.4l113.4,81L-92.4,181.6L-214,94.7
			l117.7,84.1c2.1,1.5,2.6,4.5,1.1,6.6l-84.1,117.8L-92.4,181.6L-5.5,60L-91,179.6c-0.9,1.3-1.1,2.9-0.6,4.4l67.1,181.7L-92.4,181.6
			l-68-184.1l66.3,179.7c0.9,2.5-0.3,5.2-2.8,6.1l-179.6,66.3L-92.4,181.6l184.1-68l-175.9,65c-3.5,1.3-4.2,6-1.2,8.2l113.3,84.9
			L-92.4,181.6l-120.3-90.1l116.4,87.3c2.1,1.6,2.5,4.5,1,6.6l-87.3,116.4L-92.4,181.6L-2.3,61.4l-88.2,117.7
			c-1.1,1.5-1.3,3.6-0.3,5.2L33.3,396.2L-92.4,181.6L-218.2-33l123.3,210.5c1.3,2.3,0.6,5.2-1.7,6.5L-307,307.4L-92.4,181.6
			L122.2,55.9L-84.5,177c-3.3,1.9-3.1,6.8,0.4,8.4l63.2,28.7L-92.4,181.6l-71.6-32.5l67.2,30.5c2.4,1.1,3.4,3.9,2.4,6.3l-30.5,67.3
			L-92.4,181.6l32.5-71.5l-31.8,70c-0.5,1-0.5,2.2-0.2,3.2l15.3,54.6L-92.4,181.6l-15.8-56.3l14.5,51.7c0.7,2.5-0.8,5.1-3.3,5.8
			l-51.7,14.5L-92.4,181.6l56.3-15.8"/>
	</g>
</g>
</svg>
