<?xml version="1.0" encoding="utf-8"?>
<!-- Generator: Adobe Illustrator 19.1.0, SVG Export Plug-In . SVG Version: 6.00 Build 0)  -->
<svg version="1.1" id="symb_x5F_formation" xmlns="http://www.w3.org/2000/svg" xmlns:xlink="http://www.w3.org/1999/xlink" x="0px"
	 y="0px" viewBox="-259 -48.1 480.3 496.1" style="enable-background:new -259 -48.1 480.3 496.1;" xml:space="preserve">
<style type="text/css">
	.st0{fill:#4AADC7;}
	.st1{fill:#333333;}
	.st2{opacity:0.94;}
	.st3{fill:none;}
	.st4{opacity:0.15;fill:url(#SVGID_1_);enable-background:new    ;}
	.st5{opacity:0.5;fill:url(#SVGID_2_);enable-background:new    ;}
	.st6{fill:url(#SVGID_3_);}
	.st7{opacity:3.000000e-002;fill:none;stroke:#FAFEFF;stroke-width:2;stroke-miterlimit:10;enable-background:new    ;}
	.st8{fill:#FFFFFF;}
	.st9{fill:#73A71A;}
</style>
<circle id="oeil" class="st0" cx="-18" cy="283.4" r="158.5"/>
<circle id="pupille" class="st1" cx="-17.8" cy="283.4" r="30.4"/>
<g class="st2">
	<line class="st3" x1="-35.7" y1="263.2" x2="1.8" y2="317"/>
	<circle class="st3" cx="-35.7" cy="263.2" r="54.7"/>
	<path class="st3" d="M-35.7,263.2l44.8,127L-35.7,263.2l-44.8-127L-37,259.6c0.7,2-0.3,4.2-2.3,4.9L-162.7,308L-35.7,263.2
		l127-44.8L-32.4,262c-1.9,0.7-2.9,2.6-2.4,4.5l35,138.2L-35.7,263.2l-35.8-141.6l34.9,137.9c0.5,2-0.7,4.1-2.8,4.6L-177.3,299
		L-35.7,263.2l141.6-35.8l-126.3,31.9c-3.9,1-3.8,6.5,0.1,7.4l295.7,68.7L-35.7,263.2L-346.8,191l307.4,71.4
		c2.1,0.5,3.3,2.5,2.9,4.6L-108,574.3L-35.7,263.2L36.5-47.9l-71.2,306.8c-0.5,2.3,1.1,4.5,3.4,4.7l306.5,28.7L-35.7,263.2
		l-310.8-29.1l307,28.7c2.1,0.2,3.6,2.1,3.4,4.2l-28.7,307L-35.7,263.2L-6.6-47.6l-29,310.3c0,0.4,0,0.7,0.1,1.1l28.3,141.1
		L-35.7,263.2l-28.5-141.7l27.7,138c0.4,2.1-0.9,4.1-3,4.5l-138,27.7L-35.7,263.2L106,234.7l-137.2,27.6c-2.4,0.5-3.7,3-2.8,5.2
		l1.6,3.8L-35.7,263.2l-3.3-8.1l1.9,4.5c0.8,2-0.1,4.2-2.1,5l-4.5,1.9L-35.7,263.2l8.1-3.3l0,0c-3.1,1.3-3.2,5.6-0.1,7L172,359.4
		L-35.7,263.2l-207.7-96.1l204.2,94.5c1.9,0.9,2.8,3.2,1.9,5.1l-94.6,204.2L-35.7,263.2L60.4,55.5l-94.8,204.9
		c-0.8,1.6-0.3,3.6,1.2,4.7l213.8,161.8L-35.7,263.2L-252,99.5l213.2,161.4c1.7,1.3,2,3.7,0.7,5.4l-161.3,213.2L-35.7,263.2
		L128,46.9L-34.6,261.7c-0.7,0.9-0.9,2.2-0.6,3.3l67.3,251.5L-35.7,263.2L-103.5,10l66.8,249.6c0.5,2-0.7,4.1-2.7,4.7L-289,331
		L-35.7,263.2l253.3-67.8l-245.4,65.7c-3.1,0.8-3.9,4.9-1.2,6.8l91.4,65.3L-35.7,263.2l-98-70l94.9,67.8c1.7,1.2,2.1,3.6,0.9,5.3
		l-67.8,94.9L-35.7,263.2l70-98l-68.8,96.3c-0.7,1-0.9,2.4-0.5,3.5l54.1,146.5L-35.7,263.2l-54.8-148.3L-37,259.7
		c0.7,2-0.3,4.2-2.3,4.9L-184.1,318L-35.7,263.2l148.4-54.8l-141.8,52.4c-2.8,1-3.4,4.8-1,6.6l91.3,68.4L-35.7,263.2l-96.9-72.6
		l93.9,70.4c1.7,1.3,2,3.7,0.8,5.4l-70.4,93.9L-35.7,263.2l72.6-96.9l-71.1,94.9c-0.9,1.2-1,2.9-0.2,4.2L65.7,436.2L-35.7,263.2
		L-137.1,90.3l99.4,169.6c1.1,1.8,0.5,4.2-1.4,5.2l-169.6,99.5L-35.7,263.2l172.9-101.3l-166.6,97.6c-2.7,1.6-2.5,5.5,0.4,6.8
		l50.9,23.1L-35.7,263.2L-93.4,237l54.2,24.6c1.9,0.9,2.8,3.1,1.9,5.1l-24.6,54.2L-35.7,263.2l26.2-57.7l-25.6,56.4
		c-0.4,0.8-0.4,1.7-0.2,2.6l12.3,44L-35.7,263.2l-12.7-45.3l11.7,41.7c0.6,2-0.6,4.1-2.7,4.7l-41.7,11.6L-35.7,263.2l45.4-12.7"/>
	
		<radialGradient id="SVGID_1_" cx="-35.7" cy="136.6" r="131.2" gradientTransform="matrix(1 0 0 -1 0 399.8)" gradientUnits="userSpaceOnUse">
		<stop  offset="0" style="stop-color:#080101"/>
		<stop  offset="0.73" style="stop-color:#4C120A"/>
		<stop  offset="1" style="stop-color:#080101"/>
	</radialGradient>
	<circle class="st4" cx="-35.7" cy="263.2" r="131.2"/>
	
		<radialGradient id="SVGID_2_" cx="-35.7" cy="136.6" r="65.6" gradientTransform="matrix(1 0 0 -1 0 399.8)" gradientUnits="userSpaceOnUse">
		<stop  offset="0.15" style="stop-color:#FAFEFF"/>
		<stop  offset="0.1815" style="stop-color:#E1DEDF"/>
		<stop  offset="0.2549" style="stop-color:#AC989A"/>
		<stop  offset="0.3211" style="stop-color:#816163"/>
		<stop  offset="0.3777" style="stop-color:#63393C"/>
		<stop  offset="0.4225" style="stop-color:#502124"/>
		<stop  offset="0.45" style="stop-color:#49181B"/>
		<stop  offset="0.6059" style="stop-color:#290D0E"/>
		<stop  offset="0.7572" style="stop-color:#110405"/>
		<stop  offset="0.85" style="stop-color:#080101"/>
		<stop  offset="0.8576" style="stop-color:#0C0201"/>
		<stop  offset="0.8654" style="stop-color:#190402"/>
		<stop  offset="0.8734" style="stop-color:#2D0704"/>
		<stop  offset="0.8815" style="stop-color:#4A0C06"/>
		<stop  offset="0.8896" style="stop-color:#701309"/>
		<stop  offset="0.8977" style="stop-color:#9D1B0D"/>
		<stop  offset="0.9" style="stop-color:#AB1D0E"/>
		<stop  offset="0.9114" style="stop-color:#82160B"/>
		<stop  offset="0.9238" style="stop-color:#5D1008"/>
		<stop  offset="0.9368" style="stop-color:#3E0A05"/>
		<stop  offset="0.9504" style="stop-color:#260603"/>
		<stop  offset="0.9648" style="stop-color:#150302"/>
		<stop  offset="0.9805" style="stop-color:#0B0201"/>
		<stop  offset="1" style="stop-color:#080101"/>
	</radialGradient>
	<circle class="st5" cx="-35.7" cy="263.2" r="65.6"/>
	
		<radialGradient id="SVGID_3_" cx="-35.7" cy="136.6" r="54.6249" gradientTransform="matrix(1 0 0 -1 0 399.8)" gradientUnits="userSpaceOnUse">
		<stop  offset="0.15" style="stop-color:#FAFEFF"/>
		<stop  offset="0.2807" style="stop-color:#BFC2C3"/>
		<stop  offset="0.4239" style="stop-color:#868889"/>
		<stop  offset="0.5625" style="stop-color:#575858"/>
		<stop  offset="0.6929" style="stop-color:#313232"/>
		<stop  offset="0.8129" style="stop-color:#171717"/>
		<stop  offset="0.919" style="stop-color:#070707"/>
		<stop  offset="1" style="stop-color:#010101"/>
	</radialGradient>
	<circle class="st6" cx="-35.7" cy="263.2" r="54.7"/>
	<path class="st7" d="M-35.7,263.2l44.8,127L-35.7,263.2l-44.8-127L-37,259.6c0.7,2-0.3,4.2-2.3,4.9L-162.7,308L-35.7,263.2
		l127-44.8L-32.4,262c-1.9,0.7-2.9,2.6-2.4,4.5l35,138.2L-35.7,263.2l-35.8-141.6l34.9,137.9c0.5,2-0.7,4.1-2.8,4.6L-177.3,299
		L-35.7,263.2l141.6-35.8l-126.3,31.9c-3.9,1-3.8,6.5,0.1,7.4l295.7,68.7L-35.7,263.2L-346.8,191l307.4,71.4
		c2.1,0.5,3.3,2.5,2.9,4.6L-108,574.3L-35.7,263.2L36.5-47.9l-71.2,306.8c-0.5,2.3,1.1,4.5,3.4,4.7l306.5,28.7L-35.7,263.2
		l-310.8-29.1l307,28.7c2.1,0.2,3.6,2.1,3.4,4.2l-28.7,307L-35.7,263.2L-6.6-47.6l-29,310.3c0,0.4,0,0.7,0.1,1.1l28.3,141.1
		L-35.7,263.2l-28.5-141.7l27.7,138c0.4,2.1-0.9,4.1-3,4.5l-138,27.7L-35.7,263.2L106,234.7l-137.2,27.6c-2.4,0.5-3.7,3-2.8,5.2
		l1.6,3.8L-35.7,263.2l-3.3-8.1l1.9,4.5c0.8,2-0.1,4.2-2.1,5l-4.5,1.9L-35.7,263.2l8.1-3.3l0,0c-3.1,1.3-3.2,5.6-0.1,7L172,359.4
		L-35.7,263.2l-207.7-96.1l204.2,94.5c1.9,0.9,2.8,3.2,1.9,5.1l-94.6,204.2L-35.7,263.2L60.4,55.5l-94.8,204.9
		c-0.8,1.6-0.3,3.6,1.2,4.7l213.8,161.8L-35.7,263.2L-252,99.5l213.2,161.4c1.7,1.3,2,3.7,0.7,5.4l-161.3,213.2L-35.7,263.2
		L128,46.9L-34.6,261.7c-0.7,0.9-0.9,2.2-0.6,3.3l67.3,251.5L-35.7,263.2L-103.5,10l66.8,249.6c0.5,2-0.7,4.1-2.7,4.7L-289,331
		L-35.7,263.2l253.3-67.8l-245.4,65.7c-3.1,0.8-3.9,4.9-1.2,6.8l91.4,65.3L-35.7,263.2l-98-70l94.9,67.8c1.7,1.2,2.1,3.6,0.9,5.3
		l-67.8,94.9L-35.7,263.2l70-98l-68.8,96.3c-0.7,1-0.9,2.4-0.5,3.5l54.1,146.5L-35.7,263.2l-54.8-148.3L-37,259.7
		c0.7,2-0.3,4.2-2.3,4.9L-184.1,318L-35.7,263.2l148.4-54.8l-141.8,52.4c-2.8,1-3.4,4.8-1,6.6l91.3,68.4L-35.7,263.2l-96.9-72.6
		l93.9,70.4c1.7,1.3,2,3.7,0.8,5.4l-70.4,93.9L-35.7,263.2l72.6-96.9l-71.1,94.9c-0.9,1.2-1,2.9-0.2,4.2L65.7,436.2L-35.7,263.2
		L-137.1,90.3l99.4,169.6c1.1,1.8,0.5,4.2-1.4,5.2l-169.6,99.5L-35.7,263.2l172.9-101.3l-166.6,97.6c-2.7,1.6-2.5,5.5,0.4,6.8
		l50.9,23.1L-35.7,263.2L-93.4,237l54.2,24.6c1.9,0.9,2.8,3.1,1.9,5.1l-24.6,54.2L-35.7,263.2l26.2-57.7l-25.6,56.4
		c-0.4,0.8-0.4,1.7-0.2,2.6l12.3,44L-35.7,263.2l-12.7-45.3l11.7,41.7c0.6,2-0.6,4.1-2.7,4.7l-41.7,11.6L-35.7,263.2l45.4-12.7"/>
</g>
<circle id="pupille_1_" class="st8" cx="-42.7" cy="263.5" r="11.5"/>
<g>
	<path class="st9" d="M204.9,214.3c0,12.1,0,23.8,0,36.2c-4.2-2.5-7.8-4.7-11.4-7c-2.9-1.8-6-3.6-8.7-5.6c-2.1-1.5-3.6-1.2-5.6,0.2
		c-5.1,3.7-10.3,7.2-15.5,10.8c-0.7,0.5-1.4,0.8-2.5,1.3c0-12.1,0-23.8,0-35.9c4,0,7.8-0.2,11.5,0.1c3.3,0.2,4.2-0.8,4.2-4.1
		c-0.1-26-0.1-52-0.1-78c0-6.7,0-13.3,0-21.1c-16.1,8.6-31.4,16.8-47.6,25.4c0-6.2-0.2-11.6,0.1-17c0.2-3.6-0.8-5.6-4.4-7.3
		c-29.2-13.9-59.4-24.5-91-31.2c-29.8-6.4-59.8-7.7-90-2.7c-18.8,3.1-37.2,8-55.2,14.3c-17.5,6.1-34.6,13.3-51.1,21.9
		c-1.1,0.6-2.1,2.3-2.3,3.6c-0.3,3-0.1,6.1-0.1,10.1c-28.8-13.1-56.9-25.8-85.7-38.9c7.6-4.4,14.6-8.4,21.6-12.4
		c28.2-16.2,56.4-32.3,84.6-48.5c25-14.3,50-28.5,75-42.8c14.4-8.2,28.7-16.4,43.1-24.7c1.8-1,3.2-1.7,5.4-0.4
		C12.4-20.9,45.7-2.6,79,15.9c23.2,12.9,46.4,25.8,69.7,38.7c0.2,0.1,0.5,0.2,0.8,0.3c8.6-7.5,19-8.6,29.9-7.7
		c4.2,0.3,8.2,5.7,8.8,11.7c0.4,4.2,0.3,8.4-0.1,12.6c-0.3,3.8,1,5.8,4.3,7.5c6.4,3.2,12.6,6.8,18.9,10.3c0.7,0.4,1.4,0.9,2.7,1.8
		c-3.5,2-6.7,3.8-9.9,5.6c-4.1,2.2-8.3,4.5-12.5,6.5c-2.5,1.2-3.5,2.8-3.5,5.7c0.1,33.7,0.2,67.3,0,101c0,4,1.2,4.9,4.8,4.6
		C196.8,214.1,200.7,214.3,204.9,214.3z M160.9,92.7c0.1,5.9,5.5,11.1,11.3,10.9c5.7-0.2,10.9-5.4,10.8-11.1
		c-0.1-6-5.2-11.1-11.1-11.1C166,81.5,160.9,86.8,160.9,92.7z M176.5,69.9c0-3.4,0.4-6-0.2-8.3c-0.3-1.3-2.1-3.2-3.3-3.2
		c-3.5,0-6.7,1.5-9.9,4.2C167.8,65.2,171.8,67.4,176.5,69.9z"/>
	<path class="st9" d="M-149.5,195.1c0-7.3,0-14.1,0-20.9c0-16.2,0.1-32.4-0.1-48.6c0-2.5,0.8-3.6,3-4.7
		c18.4-9.6,37.6-17.1,57.3-23.2c32.8-10.1,66.1-14.3,100.4-9.2c25,3.7,49,10.5,72.5,19.7c9.4,3.7,18.6,8,27.8,12.2
		c1.1,0.5,2.5,2.2,2.5,3.4c0.1,23.3,0.1,46.5,0.1,69.8c0,0.4-0.1,0.7-0.3,1.5c-6.1-2.2-12-4.5-18-6.5c-35.9-12.1-72.3-21.8-110.4-22
		c-14.8-0.1-29.6,1.6-44.3,3.6c-23.6,3.3-46.4,9.8-68.9,17.3C-135,189.7-141.9,192.3-149.5,195.1z"/>
</g>
</svg>
