<?xml version="1.0" encoding="utf-8"?>
<!-- Generator: Adobe Illustrator 19.1.0, SVG Export Plug-In . SVG Version: 6.00 Build 0)  -->
<svg version="1.1" id="symb_x5F_formation" xmlns="http://www.w3.org/2000/svg" xmlns:xlink="http://www.w3.org/1999/xlink" x="0px"
	 y="0px" viewBox="-288 -44.8 422 489.8" style="enable-background:new -288 -44.8 422 489.8;" xml:space="preserve">
<style type="text/css">
	.st0{fill:#73A71A;}
	.st1{fill:#3F4141;stroke:#3F4141;stroke-miterlimit:10;}
	.st2{fill:none;stroke:#73A71A;stroke-width:3;stroke-miterlimit:10;}
	.st3{fill:#3F4141;}
	.st4{fill:none;stroke:#E03A67;stroke-width:5;stroke-miterlimit:10;}
	.st5{fill:#E03A67;}
	.st6{opacity:0.79;}
	.st7{opacity:0.25;fill:url(#SVGID_1_);enable-background:new    ;}
	.st8{fill:url(#SVGID_2_);}
	.st9{fill:url(#SVGID_3_);}
	.st10{opacity:0.2;fill:url(#SVGID_4_);enable-background:new    ;}
	.st11{fill:none;}
	.st12{opacity:0.15;fill:url(#SVGID_5_);enable-background:new    ;}
	.st13{opacity:0.5;fill:url(#SVGID_6_);enable-background:new    ;}
	.st14{fill:url(#SVGID_7_);}
	.st15{opacity:3.000000e-002;fill:none;stroke:#FAFEFF;stroke-width:2;stroke-miterlimit:10;enable-background:new    ;}
	.st16{opacity:0.5;fill:url(#SVGID_8_);enable-background:new    ;}
	.st17{fill:url(#SVGID_9_);}
	.st18{fill:url(#SVGID_10_);}
	.st19{fill:url(#SVGID_11_);}
	.st20{fill:url(#SVGID_12_);}
	.st21{fill:url(#SVGID_13_);}
</style>
<circle id="grand_cercle" class="st0" cx="-95.8" cy="205" r="180.9"/>
<circle id="cercle_gris" class="st1" cx="-95.8" cy="205" r="149.5"/>
<circle id="cercle_moyen" class="st0" cx="-87.8" cy="206" r="37.9"/>
<line id="croix_horizontal" class="st2" x1="-276" y1="205.5" x2="85" y2="205.5"/>
<line id="croix_vertical" class="st2" x1="-95.5" y1="24" x2="-95.5" y2="381"/>
<circle id="cercle_milieu" class="st3" cx="-95.8" cy="205" r="7.8"/>
<g id="fleche">
	<g>
		<line class="st4" x1="-43.1" y1="159.3" x2="75.8" y2="50.2"/>
		<g>
			<polygon class="st5" points="-20.3,163.5 -38.6,155.2 -45.3,136.2 -65.1,179.5 			"/>
		</g>
		<g>
			<polygon class="st5" points="96.9,54.9 95.7,54.7 75.3,54 107.2,24.6 129,25.4 			"/>
			<path class="st5" d="M105.3-0.4L103.8,21L71.9,50.3c1.3-6.9,1.7-14.1,1.4-21.3L105.3-0.4z"/>
		</g>
	</g>
</g>
<g class="st6">
	
		<radialGradient id="SVGID_1_" cx="-92.6" cy="203.7" r="110.1" gradientTransform="matrix(1 0 0 -1 0 400.4)" gradientUnits="userSpaceOnUse">
		<stop  offset="0.1" style="stop-color:#010101"/>
		<stop  offset="0.1224" style="stop-color:#050402"/>
		<stop  offset="0.2298" style="stop-color:#100C04"/>
		<stop  offset="0.3806" style="stop-color:#171106"/>
		<stop  offset="0.8" style="stop-color:#191206"/>
		<stop  offset="1" style="stop-color:#010101"/>
	</radialGradient>
	<circle class="st7" cx="-92.6" cy="196.7" r="110.1"/>
	
		<radialGradient id="SVGID_2_" cx="-68.5879" cy="167.1" r="3.6693" gradientTransform="matrix(1 0 0 -1 0 400.4)" gradientUnits="userSpaceOnUse">
		<stop  offset="0" style="stop-color:#95C053"/>
		<stop  offset="8.572400e-003" style="stop-color:#91BB51"/>
		<stop  offset="8.980721e-002" style="stop-color:#6F903E"/>
		<stop  offset="0.1773" style="stop-color:#52692E"/>
		<stop  offset="0.2701" style="stop-color:#394920"/>
		<stop  offset="0.3697" style="stop-color:#242F15"/>
		<stop  offset="0.4788" style="stop-color:#151A0C"/>
		<stop  offset="0.6021" style="stop-color:#090C06"/>
		<stop  offset="0.7515" style="stop-color:#030402"/>
		<stop  offset="1" style="stop-color:#010101"/>
	</radialGradient>
	<circle class="st8" cx="-68.6" cy="233.3" r="3.7"/>
	
		<radialGradient id="SVGID_3_" cx="-66.4832" cy="163.8835" r="3.6713" gradientTransform="matrix(1 0 0 -1 0 400.4)" gradientUnits="userSpaceOnUse">
		<stop  offset="0" style="stop-color:#95C053"/>
		<stop  offset="8.572400e-003" style="stop-color:#91BB51"/>
		<stop  offset="8.980721e-002" style="stop-color:#6F903E"/>
		<stop  offset="0.1773" style="stop-color:#52692E"/>
		<stop  offset="0.2701" style="stop-color:#394920"/>
		<stop  offset="0.3697" style="stop-color:#242F15"/>
		<stop  offset="0.4788" style="stop-color:#151A0C"/>
		<stop  offset="0.6021" style="stop-color:#090C06"/>
		<stop  offset="0.7515" style="stop-color:#030402"/>
		<stop  offset="1" style="stop-color:#010101"/>
	</radialGradient>
	<circle class="st9" cx="-66.5" cy="236.5" r="3.7"/>
	
		<radialGradient id="SVGID_4_" cx="-67.5" cy="165.5" r="27.5" gradientTransform="matrix(1 0 0 -1 0 400.4)" gradientUnits="userSpaceOnUse">
		<stop  offset="5.000000e-002" style="stop-color:#010101"/>
		<stop  offset="0.231" style="stop-color:#040F05"/>
		<stop  offset="0.5361" style="stop-color:#072209"/>
		<stop  offset="0.75" style="stop-color:#08290B"/>
		<stop  offset="0.8198" style="stop-color:#282805"/>
		<stop  offset="0.86" style="stop-color:#352803"/>
		<stop  offset="0.9013" style="stop-color:#312503"/>
		<stop  offset="0.9381" style="stop-color:#271D02"/>
		<stop  offset="0.9731" style="stop-color:#141002"/>
		<stop  offset="1" style="stop-color:#010101"/>
	</radialGradient>
	<circle class="st10" cx="-67.5" cy="234.9" r="27.5"/>
	<line class="st11" x1="-87.4" y1="204.7" x2="-66.5" y2="236.5"/>
	
		<radialGradient id="SVGID_5_" cx="-87.4" cy="195.7" r="73.4" gradientTransform="matrix(1 0 0 -1 0 400.4)" gradientUnits="userSpaceOnUse">
		<stop  offset="0" style="stop-color:#080101"/>
		<stop  offset="0.73" style="stop-color:#4C120A"/>
		<stop  offset="1" style="stop-color:#080101"/>
	</radialGradient>
	<circle class="st12" cx="-87.4" cy="204.7" r="73.4"/>
	
		<radialGradient id="SVGID_6_" cx="-87.4" cy="195.7" r="36.7558" gradientTransform="matrix(1 0 0 -1 0 400.4)" gradientUnits="userSpaceOnUse">
		<stop  offset="0.15" style="stop-color:#FAFEFF"/>
		<stop  offset="0.1815" style="stop-color:#E1DEDF"/>
		<stop  offset="0.2549" style="stop-color:#AC989A"/>
		<stop  offset="0.3211" style="stop-color:#816163"/>
		<stop  offset="0.3777" style="stop-color:#63393C"/>
		<stop  offset="0.4225" style="stop-color:#502124"/>
		<stop  offset="0.45" style="stop-color:#49181B"/>
		<stop  offset="0.6059" style="stop-color:#290D0E"/>
		<stop  offset="0.7572" style="stop-color:#110405"/>
		<stop  offset="0.85" style="stop-color:#080101"/>
		<stop  offset="0.8576" style="stop-color:#0C0201"/>
		<stop  offset="0.8654" style="stop-color:#190402"/>
		<stop  offset="0.8734" style="stop-color:#2D0704"/>
		<stop  offset="0.8815" style="stop-color:#4A0C06"/>
		<stop  offset="0.8896" style="stop-color:#701309"/>
		<stop  offset="0.8977" style="stop-color:#9D1B0D"/>
		<stop  offset="0.9" style="stop-color:#AB1D0E"/>
		<stop  offset="0.9114" style="stop-color:#82160B"/>
		<stop  offset="0.9238" style="stop-color:#5D1008"/>
		<stop  offset="0.9368" style="stop-color:#3E0A05"/>
		<stop  offset="0.9504" style="stop-color:#260603"/>
		<stop  offset="0.9648" style="stop-color:#150302"/>
		<stop  offset="0.9805" style="stop-color:#0B0201"/>
		<stop  offset="1" style="stop-color:#080101"/>
	</radialGradient>
	<circle class="st13" cx="-87.4" cy="204.7" r="36.7"/>
	
		<radialGradient id="SVGID_7_" cx="-87.4" cy="195.7" r="30.6368" gradientTransform="matrix(1 0 0 -1 0 400.4)" gradientUnits="userSpaceOnUse">
		<stop  offset="0.15" style="stop-color:#FAFEFF"/>
		<stop  offset="0.2807" style="stop-color:#BFC2C3"/>
		<stop  offset="0.4239" style="stop-color:#868889"/>
		<stop  offset="0.5625" style="stop-color:#575858"/>
		<stop  offset="0.6929" style="stop-color:#313232"/>
		<stop  offset="0.8129" style="stop-color:#171717"/>
		<stop  offset="0.919" style="stop-color:#070707"/>
		<stop  offset="1" style="stop-color:#010101"/>
	</radialGradient>
	<circle class="st14" cx="-87.4" cy="204.7" r="30.6"/>
	<polyline class="st15" points="-87.4,204.7 -115.8,253.7 -87.4,204.7 -58.9,155.7 -87.4,204.7 -136.3,176.2 -87.4,204.7 
		-38.4,233.1 -87.4,204.7 -91.3,273.4 -87.4,204.7 -83.4,135.9 -87.4,204.7 -156.1,200.7 -87.4,204.7 -18.6,208.6 -87.4,204.7 
		-157.7,249.7 -87.4,204.7 -17,159.6 -87.4,204.7 -132.4,134.3 -87.4,204.7 -42.3,275 -87.4,204.7 -214.5,274.4 -87.4,204.7 
		39.8,134.9 -87.4,204.7 -157.1,77.5 -87.4,204.7 -17.6,331.9 -87.4,204.7 -128.7,298.5 -87.4,204.7 -46,110.8 -87.4,204.7 
		-181.2,163.3 -87.4,204.7 6.5,246 -87.4,204.7 -109.1,359.8 -87.4,204.7 -65.6,49.5 -87.4,204.7 -242.5,182.9 -87.4,204.7 
		67.8,226.4 -87.4,204.7 -229,284.9 -87.4,204.7 54.3,124.5 -87.4,204.7 -167.6,63 -87.4,204.7 -7.2,346.3 -87.4,204.7 -101,347.8 
		-87.4,204.7 -73.7,61.5 -87.4,204.7 -230.5,191 -87.4,204.7 55.8,218.3 -87.4,204.7 -120.8,368 -87.4,204.7 -53.9,41.3 
		-87.4,204.7 -250.7,171.2 -87.4,204.7 76,238.1 -87.4,204.7 -79,290 -87.4,204.7 -95.7,119.3 -87.4,204.7 -172.7,213 -87.4,204.7 
		-2,196.3 -87.4,204.7 -84.7,296.3 -87.4,204.7 -90,113 -87.4,204.7 -179,207.3 -87.4,204.7 4.3,202 -87.4,204.7 -131.4,289.2 
		-87.4,204.7 -43.3,120.1 -87.4,204.7 -171.9,160.6 -87.4,204.7 -2.8,248.7 -87.4,204.7 -222.1,302 -87.4,204.7 47.4,107.3 
		-87.4,204.7 -184.7,69.9 -87.4,204.7 10,339.4 -87.4,204.7 -129.5,248.9 -87.4,204.7 -45.2,160.5 -87.4,204.7 -131.6,162.5 
		-87.4,204.7 -43.2,246.8 -87.4,204.7 -88.8,210.7 -87.4,204.7 -86,198.7 -87.4,204.7 -93.4,203.3 -87.4,204.7 -81.3,206.1 	"/>
	
		<radialGradient id="SVGID_8_" cx="-66.5" cy="163.9" r="55.1" gradientTransform="matrix(1 0 0 -1 0 400.4)" gradientUnits="userSpaceOnUse">
		<stop  offset="0.64" style="stop-color:#010101"/>
		<stop  offset="0.7427" style="stop-color:#010301"/>
		<stop  offset="0.7797" style="stop-color:#020A03"/>
		<stop  offset="0.8" style="stop-color:#031205"/>
		<stop  offset="0.8307" style="stop-color:#0B0602"/>
		<stop  offset="0.86" style="stop-color:#0E0101"/>
		<stop  offset="0.871" style="stop-color:#0A0101"/>
		<stop  offset="0.9051" style="stop-color:#030101"/>
		<stop  offset="1" style="stop-color:#010101"/>
	</radialGradient>
	<circle class="st16" cx="-66.5" cy="236.5" r="55.1"/>
	
		<radialGradient id="SVGID_9_" cx="-70.1" cy="169.3753" r="12.1789" gradientTransform="matrix(1 0 0 -1 0 400.4)" gradientUnits="userSpaceOnUse">
		<stop  offset="0.1" style="stop-color:#621B08"/>
		<stop  offset="0.1101" style="stop-color:#601A08"/>
		<stop  offset="0.2793" style="stop-color:#3E1105"/>
		<stop  offset="0.452" style="stop-color:#230A03"/>
		<stop  offset="0.6276" style="stop-color:#100502"/>
		<stop  offset="0.808" style="stop-color:#050201"/>
		<stop  offset="1" style="stop-color:#010101"/>
	</radialGradient>
	<circle class="st17" cx="-70.1" cy="231" r="12.2"/>
	
		<radialGradient id="SVGID_10_" cx="-67.2221" cy="165" r="6.4111" gradientTransform="matrix(1 0 0 -1 0 400.4)" gradientUnits="userSpaceOnUse">
		<stop  offset="0.1" style="stop-color:#010101"/>
		<stop  offset="0.1101" style="stop-color:#030201"/>
		<stop  offset="0.2793" style="stop-color:#250B04"/>
		<stop  offset="0.452" style="stop-color:#401206"/>
		<stop  offset="0.6276" style="stop-color:#531707"/>
		<stop  offset="0.808" style="stop-color:#5E1A08"/>
		<stop  offset="1" style="stop-color:#621B08"/>
	</radialGradient>
	<circle class="st18" cx="-67.2" cy="235.4" r="6.4"/>
	
		<radialGradient id="SVGID_11_" cx="-75.1" cy="177.0702" r="11.4428" gradientTransform="matrix(1 0 0 -1 0 400.4)" gradientUnits="userSpaceOnUse">
		<stop  offset="0.1" style="stop-color:#010101"/>
		<stop  offset="0.2173" style="stop-color:#020202"/>
		<stop  offset="1" style="stop-color:#030605"/>
	</radialGradient>
	<circle class="st19" cx="-75.1" cy="223.3" r="11.5"/>
	
		<radialGradient id="SVGID_12_" cx="-68.3" cy="166.7" r="16.7513" gradientTransform="matrix(1 0 0 -1 0 400.4)" gradientUnits="userSpaceOnUse">
		<stop  offset="0.1" style="stop-color:#010101"/>
		<stop  offset="0.1262" style="stop-color:#010202"/>
		<stop  offset="0.549" style="stop-color:#03090D"/>
		<stop  offset="1" style="stop-color:#030B11"/>
	</radialGradient>
	<circle class="st20" cx="-68.3" cy="233.7" r="16.8"/>
	
		<radialGradient id="SVGID_13_" cx="-70.4" cy="169.9" r="16.7508" gradientTransform="matrix(1 0 0 -1 0 400.4)" gradientUnits="userSpaceOnUse">
		<stop  offset="0.1" style="stop-color:#3D3254"/>
		<stop  offset="0.2252" style="stop-color:#2D253E"/>
		<stop  offset="0.41" style="stop-color:#1A1523"/>
		<stop  offset="0.5991" style="stop-color:#0C0A10"/>
		<stop  offset="0.7932" style="stop-color:#040305"/>
		<stop  offset="1" style="stop-color:#010101"/>
	</radialGradient>
	<circle class="st21" cx="-70.4" cy="230.5" r="16.8"/>
</g>
</svg>
