<?xml version="1.0" encoding="utf-8"?>
<!-- Generator: Adobe Illustrator 19.1.0, SVG Export Plug-In . SVG Version: 6.00 Build 0)  -->
<svg version="1.1" id="Calque_1" xmlns="http://www.w3.org/2000/svg" xmlns:xlink="http://www.w3.org/1999/xlink" x="0px" y="0px"
	 viewBox="0 0 1008 353.8" style="enable-background:new 0 0 1008 353.8;" xml:space="preserve">
<style type="text/css">
	.st0{fill:#E03A67;}
	.st1{fill:#4AADC7;}
	.st2{fill:#73A71A;}
	.st3{fill:#444545;}
	.st4{fill:#3F4141;}
</style>
<g>
	<path class="st0" d="M27.9,265.7V238c4.3,1.8,8.1,2.7,11.3,2.7c10.4,0,17.1-5.8,20.1-17.5c-5.6,3.3-11,4.9-16.4,4.9
		c-7.9,0-14.4-2.9-19.5-8.8c-5.1-5.9-7.7-13.4-7.7-22.5v-53.5h31.9v45.7c0,5.1,2.1,7.6,6.3,7.6c4,0,6.1-2.8,6.1-8.4v-45H92v75.9
		c0,14.2-4,25.6-11.9,34.3c-9.5,10.4-21,15.5-34.5,15.5C39.7,269.1,33.8,268,27.9,265.7z"/>
	<path class="st1" d="M151,141.6c12.1,0,22.4,4.3,31,13c8.6,8.7,12.9,19.1,12.9,31.2c0,12.3-4.4,22.8-13.1,31.4
		c-8.7,8.6-19.3,13-31.6,13c-12.3,0-22.9-4.3-31.7-13c-8.8-8.7-13.1-19.1-13.1-31.4c0-12.5,4.4-22.9,13.1-31.4
		C127.3,145.8,138.1,141.6,151,141.6z M150.1,173.1c-3.4,0-6.3,1.2-8.7,3.7c-2.4,2.5-3.6,5.5-3.6,9.1c0,3.5,1.2,6.5,3.6,9
		c2.4,2.5,5.3,3.8,8.7,3.8c3.4,0,6.3-1.3,8.7-3.8c2.4-2.5,3.6-5.5,3.6-9c0-3.6-1.2-6.6-3.6-9.1S153.6,173.1,150.1,173.1z"/>
	<path class="st0" d="M208.2,144.6h31.9v48c0,4.8,2,7.3,6.1,7.3c4,0,6-2.4,6-7.3v-48h31.9V192c0,11-3.7,20.3-11,27.9
		s-16.3,11.4-27,11.4c-12.1,0-21.9-4.4-29.3-13.2c-5.7-6.9-8.6-16.4-8.6-28.7V144.6z"/>
</g>
<g>
	<path class="st1" d="M808.4,148.6h30.4v45.7c0,4.6,1.9,6.9,5.8,6.9c3.8,0,5.7-2.3,5.7-6.9v-45.7h30.4v45.2
		c0,10.5-3.5,19.4-10.5,26.6c-7,7.2-15.5,10.8-25.7,10.8c-11.5,0-20.8-4.2-27.9-12.6c-5.5-6.6-8.2-15.7-8.2-27.3V148.6z"/>
	<path class="st2" d="M949.1,148.6v32c-4.3,0-7.2,0.8-8.8,2.4c-1.6,1.6-2.6,4.8-3,9.5c-1.4,15.7-7.5,26.7-18.2,33.1
		c-5.7,3.4-13.8,5-24.2,5h-4.2v-32.2h1.4c4.9,0,8.4-1,10.4-3c2.1-2,3.3-5.6,3.6-10.7c0.4-8.3,1.2-14.1,2.3-17.5
		c1.1-3.4,3.4-6.7,6.8-10c6-5.8,14.2-8.7,24.8-8.7H949.1z"/>
</g>
<g>
	<g>
		<g>
			<g>
				<g>
					<path class="st3" d="M1042.5,264c1.4,0,0.9-0.4,1.1-0.5C1041.3,263.6,1042.6,264.1,1042.5,264z"/>
					<polygon class="st3" points="1018.9,264.9 1019.4,264.8 1015.9,265.2 					"/>
					<path class="st3" d="M996.9,264.9c2.1,0.7,8-0.1,11.9,0.1l0.6,0.2l1.8-0.6C1006.4,264.7,1000.2,265.1,996.9,264.9z"/>
					<path class="st3" d="M985.1,263.4c0.7,0.3-2.5,0.2,2.7,0.1c-0.3,0-0.3,0-0.5-0.1C986.9,263.4,986.2,263.4,985.1,263.4z"/>
					<path class="st3" d="M987.4,263.4C989.7,263.4,985.9,263.2,987.4,263.4L987.4,263.4z"/>
					<path class="st3" d="M976.6,263.6l3.1-0.2c-0.6-0.2-3.4-0.2-2.4-0.3C974.2,263.1,974.9,263.3,976.6,263.6z"/>
					<path class="st3" d="M973.7,264.1l1.6-0.1C975.1,263.9,974.6,263.9,973.7,264.1z"/>
					<path class="st3" d="M978.7,263.8l-3.4,0.2c0.4,0.1,0.5,0.3,1.5-0.1C976.6,264.1,977.3,263.9,978.7,263.8z"/>
					<path class="st3" d="M980.6,263.9c1.7,0.2,3.9,0.3,0.9,0.5C987.3,264.3,986.4,263.8,980.6,263.9z"/>
					<path class="st3" d="M995.8,265.7l2.3,0.2l2-0.2C999,265.8,995.6,265.4,995.8,265.7z"/>
					<path class="st3" d="M957.6,263.2c-0.2,0.2,1,0.4,1.3,0.6l2.3-0.2C959.9,263.5,957.7,263.4,957.6,263.2z"/>
					<path class="st3" d="M958.8,263.8l-3.4,0.3C958.5,264.1,959,264,958.8,263.8z"/>
					<polygon class="st3" points="973.2,264.9 978.8,264.3 972.1,264.9 					"/>
					<polygon class="st3" points="944.7,263.2 946.6,262.8 943.2,263.4 					"/>
					<path class="st3" d="M936.1,263.2c1.4-0.3-1.9-0.5-0.4-0.7c-2.3,0.1-4.3,0.3-6.1,0.5C931.5,263,933.5,263,936.1,263.2z"/>
					<path class="st3" d="M926.6,263.4c0.9-0.1,1.9-0.2,3-0.3C928.6,263.2,927.6,263.3,926.6,263.4z"/>
					<path class="st3" d="M949.7,264c-0.3-0.1-0.8-0.3-2.7-0.4l1.3,0.4C948.8,264,949.2,264,949.7,264z"/>
					<path class="st3" d="M948.4,264L948.4,264c-1.5,0-2.5,0-2.9,0C945.9,263.9,946.7,264,948.4,264z"/>
					<path class="st3" d="M950,264c-0.1,0-0.2,0-0.3,0C949.8,264,949.9,264,950,264z"/>
					<path class="st3" d="M964.3,264.5c-2,0.2-6.1,0.5-2.1,0.9C963.6,265.1,961.3,264.8,964.3,264.5z"/>
					<path class="st3" d="M951.7,264.5l3.6,0.1c-0.1-0.1-0.7-0.3,0.3-0.4L951.7,264.5z"/>
					<polygon class="st3" points="949.9,264.6 951.7,264.5 950.4,264.5 					"/>
					<path class="st3" d="M932.7,263.8c-1.6,0.2-3.2,0.2-5.2,0.2c2.1,0.1,4.2,0.1,6.2,0.1C934,264,934.9,263.8,932.7,263.8z"/>
					<path class="st3" d="M940.3,263.9c-0.1,0-0.2,0-0.3,0C940.2,264,940.4,264,940.3,263.9z"/>
					<path class="st3" d="M908.7,264c0.1,0,0.2,0.1,0.3,0.1c0,0,0,0,0.1-0.1L908.7,264z"/>
					<path class="st3" d="M934.1,264.3c1.5,0.1,2.5,0,3.3-0.2c-1.2,0-2.4,0.1-3.7,0.1C933.6,264.2,933.6,264.3,934.1,264.3z"/>
					<path class="st3" d="M921.3,263.6c0.8,0.1,1.7,0.2,2.7,0.2C923.2,263.7,921.6,263.5,921.3,263.6z"/>
					<path class="st3" d="M939.5,263.8c0.1,0,0.1,0,0.2,0C939.2,263.7,939.3,263.8,939.5,263.8z"/>
					<path class="st3" d="M939.5,263.8c-0.8,0.1-1.4,0.2-2,0.3c0.9,0,1.8-0.1,2.6-0.1C939.8,263.9,939.6,263.9,939.5,263.8z"/>
					<path class="st3" d="M903,266.8c0.3-0.4,4.3-0.8,7.8-0.3c3.4-0.3,1.2-1.6-1.8-2.3c-0.1,0.2-0.1,0.3-3.7,0.6
						c1.2,0.2,7.9,0.5,4.9,0.9c-4.7,0.2-3.9-0.1-6.1-0.3c1.9,0.5-6,0.7-5,1.4l4.1-0.3C903.3,266.5,901.8,266.7,903,266.8z"/>
					<path class="st3" d="M915.7,264.2l1.5,0c-1.7-0.1-2.9-0.2-5.1-0.5c-2.4,0.2-2.9,0.3-3.1,0.5l7.2,0.1L915.7,264.2z"/>
					<path class="st3" d="M923.8,264.1c-1.1,0.4-4.6,0.6-2.5,1.1c4.3,0,3-0.4,5.6-0.5C919.9,264.8,928.8,264.4,923.8,264.1
						c1.4,0,2.6,0,3.8-0.1c-1.2-0.1-2.4-0.1-3.6-0.2c0.1,0,0.1,0,0.2,0l0,0c0,0,0,0,0,0c0.3,0.1,0.4,0.1,0.1,0.1c0,0-0.1,0-0.1,0
						C924,264,923.9,264.1,923.8,264.1c-2-0.1-0.3-0.1,0.3-0.2c0,0,0.1,0,0.1-0.1c0,0,0,0,0,0l-6.9,0.2
						C918.7,264.2,920.5,264.2,923.8,264.1z"/>
					<path class="st3" d="M958.5,266.3c-0.2,0-0.2-0.1-0.2-0.1C957.9,266.2,957.7,266.3,958.5,266.3z"/>
					<path class="st3" d="M955.7,266c0.5-0.1,0.9-0.2,2.6-0.2c1.4,0.1,0,0.2,0.1,0.3c1-0.1,3.5-0.3,0.4-0.5l-0.5,0.1
						c-2.8-0.1-6.4-0.7-5.9-0.7C953.1,265.4,953.8,265.6,955.7,266z"/>
					<path class="st3" d="M939.5,265.2l-5.8,0.2l2.9,0.4l-0.1-0.2C939.8,265.6,939.1,265.3,939.5,265.2z"/>
					<polygon class="st3" points="908,263.8 908.8,263.4 905.5,264 					"/>
					<polygon class="st3" points="900.5,263.9 900.8,263.5 898.8,263.7 					"/>
					<path class="st3" d="M477.5,268.8l-1.7,0.1C476.6,268.9,477.1,268.8,477.5,268.8z"/>
					<path class="st3" d="M489.8,268.8l0.3-0.2C489.5,268.7,489.3,268.8,489.8,268.8z"/>
					<path class="st3" d="M716.4,263.9c-2.5-0.4-5.2-0.9-4.9-0.5l0.8,0.4C714,263.8,715.3,263.8,716.4,263.9z"/>
					<path class="st3" d="M590.3,266.5c0.2,0,0.5,0.1,0.7,0.1c0.6-0.1,1.2-0.3,1.7-0.4C592,266.3,591.2,266.4,590.3,266.5z"/>
					<path class="st3" d="M588.6,268.3l-3.3-0.3C586.1,268.1,587.1,268.2,588.6,268.3z"/>
					<path class="st3" d="M410.5,269.3l-2,0.4C411.6,269.7,410.2,269.5,410.5,269.3z"/>
					<path class="st3" d="M823.7,264c-2.1-0.2-3.8-0.2-5.3-0.3C821,264,823.1,264.4,823.7,264z"/>
					<path class="st3" d="M482.3,264.2c-1,0.1-1.5,0.2-1.4,0.3C481.9,264.4,482.5,264.3,482.3,264.2z"/>
					<path class="st3" d="M812.3,263.8c0.4,0,0.7,0.1,1.1,0.1c1.6-0.1,3.1-0.1,5-0.1C816.5,263.6,814.4,263.5,812.3,263.8z"/>
					<path class="st3" d="M167.4,268.9c-0.2,0-0.4,0-0.6-0.1C166.8,268.9,167,268.9,167.4,268.9z"/>
					<path class="st3" d="M96.6,264.5c0.7,0,1.8,0,2.9,0C99,264.5,98.1,264.5,96.6,264.5z"/>
					<path class="st3" d="M870.4,263.7C871.9,263.7,870.6,263.6,870.4,263.7L870.4,263.7z"/>
					<path class="st3" d="M878.1,265.4c-0.3,0-0.6,0.1-0.6,0.2C877.6,265.5,877.8,265.5,878.1,265.4z"/>
					<path class="st3" d="M796.4,266.5c0,0-0.1,0-0.1,0C796.8,266.6,796.7,266.6,796.4,266.5z"/>
					<path class="st3" d="M872.8,263.9c-0.6-0.1-1.3-0.1-2-0.1C871,263.8,871.7,263.8,872.8,263.9z"/>
					<path class="st3" d="M872.4,263.7c0.5,0,1,0,1.4,0C874,263.7,873.8,263.6,872.4,263.7z"/>
					<path class="st3" d="M868.1,263.7c0.9,0,1.8,0,2.6,0c-0.3,0-0.4-0.1-0.4-0.1C869.9,263.7,869.2,263.7,868.1,263.7z"/>
					<path class="st3" d="M297.6,267.7c-0.1,0-0.2,0-0.3,0C295.7,267.9,296.4,267.8,297.6,267.7z"/>
					<path class="st3" d="M675,268.4c0.1,0,0.1,0,0.2,0C675.1,268.4,675,268.4,675,268.4L675,268.4z"/>
					<path class="st3" d="M669.3,268.8c2.4-0.5,3.8-0.5,5.7-0.4l-1.9-1.3L669.3,268.8z"/>
					<path class="st3" d="M448.1,268.9l4,0.4c-4.8,0.6-8.3,0.4-4.6,1c0.6-1.4,15.6-0.1,16.1-1.5l2.6,0.3c-0.8,0-0.9,0.1-1.6,0.1
						c5.1,0.7,3.8-1,10.4-0.8c2.3,0.1,3.9,0.3,2.3,0.5l5.1-0.3c1.5,0,1.1,0.3-0.4,0.2l7.8-0.1l-0.1,0c1.1-0.2,3.7-0.5,4.9-0.7
						c2,0.2-1,0.1-0.5,0.3l4.3-0.3c1.8,0.4-1.8,0.7-4.8,0.6c4.1,1.4,3.6-0.3,12.4,0.4l-4.1,0.2c2.6,0.8,5.8,0.5,10.5,1
						c-1.1-0.3-9.3-1.2-4.6-1.5c1.3,0.1,3.1,0.2,5.6-0.1c0,0.5,2.5,0.4,5.6,0.3l-0.2,0.6c3.4-0.2,3.1-0.5,5.1-0.8
						c3.7,0.1,4.5,0.6,5.4,1c6,0.1-4.1-0.8,3-0.9c5,0.2,8.5,0,14.5-0.4c3.5,0.2-0.6,0.4,0.6,0.6l3.1-0.5c0.8,0,0.5,0.2,0.4,0.2
						c2.6-0.2,0.2-0.6,4.3-0.8c1.1-0.7,8.4,1,13.5,0.2c1.3,0.2-0.6,0.4-0.2,0.6c7-0.5,6-0.4,11.7-1.1l4.9,0.4c-3.6-0.5,1-1,5-1.5
						c-1.3-0.2-2.4-0.4-3.1-0.5l6.4-0.3c0.8,0.1,0.1,0.3-0.9,0.6c0.4-0.1,0.8-0.1,1.2-0.2c2.3,0.2,1.1,0.6-0.5,1
						c-0.8-0.1-1.6-0.3-2.3-0.4c-1.6,0.4-3.1,0.8-2.7,1.2c0.4-0.1,1.2-0.1,2.1-0.2c-0.4,0.1-0.7,0.2-0.5,0.3
						c0.2,0.1,0.9-0.1,1.9-0.2l1.5,0.7l0.4-0.3l8.4,0.4c6-0.7,11.2-1.8,20.7-2.1c-2.4,0.5-0.5,0.9-0.6,1.5
						c-2.6-0.7-7.4,0.3-12.3,0.1c2.6,0.1,2,0.4,1.3,0.5l8.8-0.6c-0.2,0.5,1.9,0.4,4.2,0.6c-1.7-1,6.5-0.7,10.1-1
						c0.2,0.3-0.6,0.7-5,0.6c4.8,0.8,6.2-1.2,10.9-0.5c-1.1,0-1.6,0-2.1,0.1c2.5-0.3,8.6-0.1,7.1,0.2l-1.1,0
						c7.1,0.1,21.5,0,22.5-0.8c0.1,0.1-0.9,1-1.4,1.2l12.6-2.9c-1.1,0.7,3.2,2.5-2.7,2.9c1.7,0.1,3.8,0.2,7.3,0
						c-1.1-0.1-2.9-1.1-1.3-1.1c4.3,0.8,3,0.4,8.3,1.1c-1.7-0.2,0.2-1.3,2.9-1.3c-0.4,0.2,0.2,1.1-0.8,1.3l6.8-1.1
						c-1.7,0.2-0.3,1,1.2,1.3c-0.7-0.2,5.8,0,7.6-0.1l-2.9-0.3c7.6,0.2,7.5-1.6,15.1-1.5c-0.9,0.2-2.3,1.4,1.6,1.6
						c1.8-0.6,7.8-2.8,14.5-3.2l1.3,0.3l5.1-0.4c-3.2,0.9-12.2,2.7-17.1,3.4c2.9,0.3,0.8,0.4,5.1,0.4c1.5,0.3-2.3,0.5-3.6,0.5
						l10,0.2c-0.4-0.7,7.6-0.7,7.2-1.2l-10.8,0.7c-0.4-0.7,6.3-1.9,13.3-1.8c1.8,0.3-1.3,1.2-1.2,1.4c0.9-0.2,6.7-0.4,7.3-0.3
						l-3,0.4c3.9,0.3,6.4-0.9,11.1-0.2c1.6,0,4.9,0.9,5.1,0.5c-2.7-0.8-3.2-3.1-1.4-3.7c0.6,0.1,8.6,0.7,10.4,1.1
						c2.7,0.6-4,1.4-1.7,2c0.1-0.2,1.6-0.4,2.2-0.5c1.7,0.2-0.7,0.6,3,0.5c0.6-0.7,7.6,0.1,1.8-0.6c3.6-0.2,3.9,0.1,8.1,0.1
						c-1.4-0.4,3.8-1.5,7.5-1.7c-0.2,0.2,0.6,0.4,1,0.5c7.5,0.1,11.5,0.4,18.4,0.4c0.6,0.2,4,0.4,2.6,0.7c1-0.1,1.9-0.4,4.1-0.4
						c4.2,0.6-4.8,0.1-1.6,0.8c0.3-0.4,5.5-0.5,8.6-0.8c-0.9-0.6-7.1-0.1-10.1,0.1c0-0.8,5.3-1.7,12.6-2.1c5.8-0.2,2.5,0.5,3.5,0.4
						c10.8,0.1,9.2-1.5,18.3-0.9c3.6,0.5,0.2,1.1,1,1.5c-4.7,0.2-7.2-0.3-10.4-0.3l3.9,0.3c-1.5,0.2-4.6,0.3-6.3,0.2
						c3,0.5,18.3,0.1,26.7,0.5c1.5-0.2,4.1-0.4,2.8-0.6l-2.6,0.1c-2.4-0.4,5-0.6,1.6-0.8c3.6-0.3,7.5-0.8,12.5-0.5l0.9,0.6
						c-0.1-0.2-3.3-0.4-4.7-0.2c2.1-0.3,7.7,0.8,10,0l-3.5-0.4c3.6-0.3,8-1,12.4-0.8c-2-0.6-1,0.1-4.2-0.6c2.7,0.9-11.3,0-7,0.9
						c-3.2-0.8-5.6-0.3-9.8-1.1c0.1,0.2,1.5,0.4-2.2,0.3c-0.2,0.1-0.6,0.1-0.8,0.2c-0.1,0-0.2,0-0.3,0c0.1,0,0.1,0,0.2,0
						c-0.2,0-0.2,0,0.1,0c0.9,0.1,1.6,0.2,1.9,0.3c-1.8,0.5-7.8,0.4-9.8,0.7c-2.2-0.1,0.9-0.2-0.3-0.4l-3,0.4
						c-0.3-0.4-5.9-0.7-0.7-1l-4.7,0c-2.8-0.3-6.5-0.4-8.9-0.2c-2.2-0.1-5.6,0.5-3.7,0.1l-7.3,0.3l-0.1-0.1
						c-7.2-0.1-14.9,0.7-23.2-0.1c-2.4,0.1-5,0.3-9,0.1l-0.8-0.4c-3.1,0.1-9.4-0.4-10.7,0c-3.4-1-15.2-0.2-20.7-0.4l-0.2,0.5
						c-3.8,0-7.4,0.1-12.1,0.3l0.3,0.4c-4.1,0.4-10.4-0.3-16.8-0.3c0.4-0.2,2.1-0.1,3.2,0c-7.7-1-16.2,0.7-23.1,0
						c-1.7,0.2-3,0.1-4.2,0c0.2,0,0.3,0,0.4,0c-0.2,0-0.4,0-0.7,0c-0.8-0.1-1.6-0.2-2.4-0.2c0.7,0.1,1.4,0.2,2,0.2
						c-1.3,0-3.4,0.1-5.3,0.2l-0.8-0.5c-0.2,0-0.3,0-0.5,0c-1.9-0.2-1.6,0.2-0.5,0.6c-1,0.1-1.9,0.2-2.6,0.3
						c-1.6-0.8-5.2,0.3-7.4-0.6c-1.3,0.4-10,0.3-11,1.2c-0.1-0.1-0.7-0.2,0.4-0.2c-2.2-0.1-4.4-0.2-6.4,0l-0.9-0.6l-4.8,0.8
						c-2.9-0.4-4.2-0.6-1.2-1.1c-7,0.7-5.7,0.3-11.7,1l0.3-0.4c-2.1,0-5.6,0.5-6.9,0.2c-4.8-0.8-23.7-0.1-36-0.8
						c2.4,1.2-5.7-0.5-6.2,0.4c-0.7-0.3-2.4-0.4-0.4-0.7c-6.3,0.3-9.4-0.4-13.8,0.3c-0.7-0.3,1.3-0.4,0.7-0.6
						c-0.5,0.1-2,0.2-2.6,0.1c-0.6-0.2,0.9-0.2,1.9-0.4c-6.4,0-7.1,0.9-7.5,1.7c-3.2-0.4-4.9-0.3-7.2,0.2c-1.1-0.3-3-0.5,1-0.6
						c-2.2,0-13.7-0.4-13.9,0.3c-0.7-0.2-3.1,0-3.7,0c-5,0-5.5-0.1-10.4,0l1.4,0.1c-1.9,0.8-4.1,0.2-8.1,0.3l0.1-0.1
						c-9.1-0.6-3.9,0.3-12.9-0.4l0.5,0.5c-0.8,1-8-0.6-13.2-0.2l1.9,0.3c-2.9,0.4-8-1.4-10.8-1.5c-0.6-0.1,1-0.1,1.9-0.2
						c-7.5-0.6-1,0.6-6.6,0.8c-1-0.3,1.3-0.9-2.4-0.9c-1.9-0.3-10.9,1.1-16,0.5c1.1,0.3,2.3,0.5-0.3,0.7c-4,0.1-10.8-1-14.4-0.2
						c-0.5-0.1-0.7-0.1-0.7-0.2c-3,0.2-9.9,0.4-11.7,0.8c-2.8-1.7-18.9,0.8-18.8-0.7l-9.4,0.1l0.2-0.2c-6-0.1-8.1,0.3-10.2,0.6
						c-1.4-0.1-0.4-0.2-0.3-0.3c-8.7-0.3-9.6-0.2-16.9,0.5l-0.8-0.5c-2,0.3-12.6-0.8-21.2-0.2c0.1-0.1,0.3-0.2,0.9-0.2
						c-9.6,0.6-23.1-1.4-26.6,0.4l-6.4,0.4c8.2,0.1-1.2,0.8,2.2,1.1c-3.2,0.1-8.4-0.5-4.4-0.6l0.6,0.1c1.5-0.9-10.2-0.3-10-1
						c-16.2,0-32-0.5-47.2-0.5l1.7,0.7l-5.3,0c-1.4-0.2-1.9-0.6,1.9-0.5c-2-0.4-6.3,0.3-6.4,0.5c-7.4-0.3,2.9-0.9,0.6-0.9l-3.1,0.1
						l0.7,0.1c-2.5,0.3-2.7,0.6-7.3,0.6c-2.9-0.1-1.5-0.5-2.6-0.5c0-0.1-0.4-0.1-1.7,0l-6.7-0.1l2.7,0.6c-3,0.3-6.3,0-3.2,0.6
						c-4.5-1-24.9-0.4-27.7-0.7c-4.1,0.4-8.2,0.4-13.3,0.4c1.3,0.1,2,0.8-2.4,0.7c1.6-1.3-8-0.6-11.5-1.5c3.2,0.6-12.4,0.2-7.5,1.1
						c-3.6-0.1-0.2-0.5-3-0.8c-8.7,0.5-19.1-0.3-29.8-0.2c-0.2,0.2,1.6,0.4-0.7,0.7l-5.7-0.9c-2.1,0.1-1.9,1-5.8,0.4
						c0.5,0.1,1.4,0.4-0.1,0.4c-21-0.9-42.9,0.7-64.2-0.9c2.9,0.3,1,0.4-1.2,0.4c1.4,0.1,0,0.4,0.2,0.7l-8.9-0.7
						c-1.6,0.7-9.6,0-10.5,0.7l2.8-0.1c-3.8,0.7,5.3,1.7,4.7,2.6c4.2-0.8,11.1,1.3,18,0c1.5,0.2-1.3,0.3-0.5,0.5
						c1.8-0.4,3.9-0.5,7.8-0.3l-0.4,0.1c11-0.1,15.7,0.3,28.1,0.6l-0.9-0.5c2.7,0.1,3.2,0.2,4.5,0.3c3.1-0.7-7.5,0-4.7-0.8
						c3.5,1,18.7,0,21.1,1.1c4.1,0-1.2-0.5,2.9-0.5l1.1,0.3l1-0.4c2.7,0.1,4,0.4,4.1,0.7c-0.7,0-1.8,0.1-2.5,0.1
						c3.5,0.3,9.8-0.1,11,0l-3.9-0.2c11.2-0.3,24.8,0.1,35.6-0.5l-0.8-0.2c8.2-0.4,6.6,0.2,15.6,0.1l-0.3,0.1
						c1.8-0.2,4.2-0.3,6.7-0.3c-2.3,0.3,4.3,0.5,1.3,0.8c8.9-0.4,4.4-0.3,10.3-1.2l1.4,0.4c2-0.3,2.2-0.5,6.7-0.6
						c-3.7,0.3,2.9,0.6-1.3,1c9.5,0.8,14.1-0.8,18.4,0.4c4.4-1-8.2-0.6-5.8-0.8c-2-0.3,3.6-0.8,6.6-0.7c3,0,5.1,1.3,12.8,1.3
						c-0.8,0-0.8,0.1-1.6,0.1c2.8,0.3,5.6-0.4,9.1,0.1c2-0.6,4.5,0,5.1-0.8l-7,0.2c4-0.2,7.7-1.1,14.2-0.7c-0.5,0.2-2.4,0.4-3.8,0.5
						c1.9,0.2,3.7-0.2,5.6,0.1c-0.6,0.8-8.5,0.2-12.7,0.8c2,0.3,8-0.6,5.9,0.3c3.1-1.1,7.5,0.1,12.7-0.7l-0.3,0.5
						c0.8-0.1,2.5-0.3,4-0.3l-2.7,0.6c4.2-0.5,8,0.5,12.1,0.2c-8.4,0-1.9-0.6-5.4-0.9c10.3-0.6,5.9,1.2,17.5,1
						c-1.6,0.1-5.9-0.3-3.4-0.5c2.2,0.1,5.1,0.3,6.5,0.5c7.7-0.1-1.2-0.5,2.1-0.8c2.6,0.6,3.8-0.2,7.1-0.4l0,0.5
						c8.7,0.3,2.3-1,10.2-0.6l-3.3,0.7l4.1-0.2l-0.8,0.5c4.5-0.4,5.9-0.3,10.2-0.1c-1-0.3,0.6-0.9,4.4-0.9c2.6,0.3-1.5,0.5,4,0.4
						c-1.2,0.3-2.6,0.7-5,0.2c-0.2,0.2-1.2,0.3-1.5,0.5c2.8,0.3,7.1,0.1,9.1,0.1c-0.8,0-1.7,0-2.1-0.1l8-0.7
						c1.3,0.2,0.3,0.3-0.7,0.5c1.6-0.1,2.7-0.3,5.1-0.3c-0.6,0.4-0.5,0.8-3.8,1l7.6-0.4c0.5,0.2,3.9,0.5,2.9,0.6
						c4.2,0.2,10.3-0.8,15.9-0.5c0.3-0.1,0.9-0.1,2.1-0.2c5.2,0.1,9.9,0.6,16.1,0l3.5,0.7c4.9-0.2-4.8-0.9,3.3-1.2
						c5.7-0.2,2.1,0.6,4.1,0.8c2.8-0.4,7.8-1.1,13.1-0.5C451.1,269,449.7,268.9,448.1,268.9z M508,268.6c-1.2,0.1-3.5,0.4-4.3,0.1
						C505,268.2,506.1,268.4,508,268.6z M599.1,267.4c-0.9,0.2-2.2,0.1-3.7-0.1C596.5,267.3,597.8,267.3,599.1,267.4z M852.9,264.1
						c0,0-0.1,0-0.1,0C850.2,263.9,851.1,264,852.9,264.1z M858.3,264.3c0.5-0.1,0.5-0.1,0.3-0.2c-0.4,0.1-1.6,0.1-3,0.1
						C856,264.3,856.7,264.4,858.3,264.3z M280.7,264.5l1,0.1C279.3,264.8,280,264.6,280.7,264.5z"/>
					<path class="st3" d="M588.8,268.1c-0.3-0.1-0.4-0.2-0.5-0.3C587.9,267.9,587.9,268,588.8,268.1z"/>
					<path class="st3" d="M410.8,269.2c-0.1,0-0.1,0-0.2,0c-0.1,0-0.2,0.1-0.2,0.1L410.8,269.2z"/>
					<path class="st3" d="M775,268.4c-1.1-0.1-1.7-0.2-2.1-0.2C772.8,268.3,773.3,268.4,775,268.4z"/>
					<path class="st3" d="M886.8,263.5l-3.4,0.1c1.7,0,2.3,0.1,3.1,0.2C886.4,263.6,885.7,263.5,886.8,263.5z"/>
					<path class="st3" d="M916.7,266.5c0.5-0.1,1.1,0,1.6-0.1l-0.1-0.2C916,266.2,914.5,266.4,916.7,266.5z"/>
					<path class="st3" d="M890,265.1c0.3,0.4,2.4,0.3,4.8,0.2c-0.1,0-0.3,0-0.4,0C895.1,264.7,892.6,264.9,890,265.1z"/>
					<path class="st3" d="M895.4,265.3c0.7,0,1.5,0,2.2,0C897.9,265,896.7,265.2,895.4,265.3z"/>
					<path class="st3" d="M865.1,264c1.1,0.1,0.7-0.5,1.4-0.4C867.8,263.2,858.9,264.3,865.1,264z"/>
					<polygon class="st3" points="892,266.4 891.1,265.9 889.7,266.3 					"/>
					<path class="st3" d="M872.9,266.1l3.9,0.1c-0.1-0.1,0.4-0.1,1-0.2C875.4,266,872.8,265.9,872.9,266.1z"/>
					<path class="st3" d="M877.8,266c1.2,0,2.4,0,3.1-0.1C880.2,265.9,878.8,266,877.8,266z"/>
					<polygon class="st3" points="886.7,266.6 885.5,266.5 882.8,266.4 					"/>
					<path class="st3" d="M831.4,266l-4.2,0.1c-0.4,0.2,0.7,0.3,2.3,0.2C830.5,266.2,832.1,266.1,831.4,266z"/>
					<path class="st3" d="M844.2,267.3c-1.1-0.1-1.2-0.2-1.9-0.4l-0.1,0.6L844.2,267.3z"/>
					<path class="st3" d="M831.9,267.5c-0.4,0.2-6.1,0.5-0.8,0.5C831.6,267.8,835.8,267.6,831.9,267.5z"/>
					<polygon class="st3" points="768.5,266.7 769.5,266.7 769.4,265.7 					"/>
					<path class="st3" d="M712.6,269.1c5,0.2,1.2-0.6,5.7-0.3c1.2-0.2-3.7-0.2-2.5-0.5C712.8,268.6,711.2,268.5,712.6,269.1z"/>
					<path class="st3" d="M715.8,268.3c0.5,0,1-0.1,1.5-0.2C716.5,268.2,716,268.3,715.8,268.3z"/>
					<polygon class="st3" points="84.8,264 81.6,263.8 83.7,264.1 					"/>
					<path class="st3" d="M78.7,264.7l-0.8-0.6l-1.9,0.6C76.7,264.6,78.1,264.6,78.7,264.7z"/>
					<path class="st3" d="M516.9,269.9l0.2-0.2c-0.5-0.2-1.2-0.2-2.8-0.2L516.9,269.9z"/>
					<polygon class="st3" points="473.5,269.4 474.2,269.4 472.8,268.9 					"/>
					<path class="st3" d="M436.9,270.2c1.5,0,3.2-0.1,4.7-0.1C438.4,270.2,436.5,269.4,436.9,270.2z"/>
				</g>
			</g>
		</g>
	</g>
</g>
<g>
	<g>
		<path class="st4" d="M359.7,155.6l-1.5-1.2c0.9-1.3,2.2-3.5,3.7-6.3c3.2-3.4,5.1-5.3,5.5-5.7c1-0.8,2.2-1.4,3.7-1.8
			c0.3-0.1,3.3-0.6,9.2-1.6c0.1,0,0.3-0.2,0.7-0.5l1.5,0.6c-0.4,1.2-1.1,2-2.3,2.6c-0.6,0.3-1.1,0.6-1.7,0.9
			c-0.9,0.5-1.5,0.8-1.8,0.9c-0.6,0.1-1.3,0.2-2.2,0.3c-0.9,1.3-2.3,2.4-4.1,3.3c-2.4,1.3-3.7,2.9-4,5c-1.5,1.4-2.4,2.3-2.5,2.6
			c-0.2,0.3-0.2,1.9-0.2,4.7l-0.5,3.6l0.3,1.5l-0.2,2.9c1,1,1.7,1.9,2.2,2.7c1.2,2.5,2.6,3.9,4.1,4.2c0.5,0.2,1.5,0.4,3.2,0.4
			l1.1,0.9l1.9,0c1.1,1.2,2,1.8,2.9,1.6l0.8-0.4c0.4-0.2,1.2-0.4,2.4-0.6l0.1,0c1.1-0.2,1.7,0,1.9,0.7c0.1,0.2-0.9,1.5-3,3.9
			c-3.7,3.8-6.3,6.7-7.9,8.6c-3.1,0.2-6.5-0.4-10.1-2c-1.1-0.5-1.6-0.7-1.6-0.7c0,0-0.6-1.4-1.7-4c-0.4-0.5-0.9-1.3-1.6-2.3
			c-1-1.5-1.8-3.5-2.3-5.8c-0.1-0.3,0.3-1.3,1.2-3l-1.7-5.7c-0.1-0.5,0.7-2.9,2.3-7C358.8,157.4,359.5,156.3,359.7,155.6z"/>
		<path class="st4" d="M443,84.2l1.8,2.7l3.8-0.8c0.1,0.7,0.2,1.4,0.3,1.9c0.2,1,1.8,2.3,4.7,3.9c-0.1,1.4-0.1,2.5,0,3.1
			c0.1,0.4,0.3,1,0.5,1.7c0.6-0.1,1.1-0.2,1.5-0.3c1.1-0.2,2.2-0.2,3.2,0.2c0.9,0.3,1.9,0.5,2.8,0.7l2.8,3.3
			c1.5,0.6,2.8,1.2,3.7,1.8c1.2,0.9,2.4,1.7,3.6,2.4l3.2-1.4c1,1.4,3.6,3.4,7.7,6.1c4.6,3,8.1,5,10.5,6.1c2.4,1.1,4,2.4,4.9,3.8
			c0.5,0.7,1.7,1.6,3.7,2.8l15.2,9.2c1.9,1.2,2.9,1.9,3,2.3c0.1,0.5-0.1,1.1-0.6,1.9c1.2,0.9,2,1.5,2.4,1.9c1.5,1.2,2.6,1.8,3.2,1.9
			c0.1,0.1,1,0.1,2.7,0l2.4,1.4l1.4-0.3l0.3-0.4c1.6,1,2.7,1.6,3.2,2c4.2,2.7,6.8,4.3,7.7,4.6l4.3,1.5c0.9,0.4,2.3,1.5,4.3,3.3
			l3.8,2.1l4.5,3l6.1,3.4c1.3,2,2,3,2.2,3.1c0.7,0.4,2.4,0.4,5.2,0.3l6.1,3.4l1.7-0.1l0.1,0.5c1.9,0.5,3.3,0.9,4.1,1.3
			c0.4,0,3.6,2.1,9.6,6.2l11,5.3c2.3,1.6,4.5,2.8,6.5,3.4c-0.5,1.2-0.6,2.1-0.5,2.8c0.1,0.4,1.7,1.3,5,2.6c8,4.1,12.7,6.5,14,7
			c1.4,0.5,3.2,1.1,5.4,1.7l0.6-1.4l0-0.2c0-0.1-0.2-0.4-0.5-0.9c-0.7-1.3-1.2-2.4-1.4-3.3c-0.5-2.2-0.8-5.9-1.1-11.1
			c0-1.8-0.2-3.4-0.5-4.8c-0.1-0.5-0.3-1.1-0.5-1.7c-1.6-3.8-2.4-5.9-2.4-6.1c-0.3-1.1,0.5-2.8,2.1-4.8c-3.5-2.3-5.5-4.6-6-6.8
			c-0.1-0.2,0-1.3,0.1-3.1c0-0.2,0-0.4,0-0.6s-0.8-1.9-2.3-5l-1.3-7.2c-1.2-2.3-1.9-3.7-2-4c-0.1-0.3,0-1.8,0.2-4.4
			c0-0.1-0.1-0.2-0.1-0.4c-0.1-0.6-0.4-1.4-0.9-2.5c-0.5-0.9-0.8-1.8-1-2.6c-0.1-0.7-0.2-1.4-0.1-2.1c0.3-1.6,0.4-2.5,0.3-2.6
			l-0.9-1.6c-0.1-0.2-0.2-0.3-0.2-0.4s0-0.3,0-0.5c0.1-1.4,0.2-2.1,0.2-2.1c0-0.1,0-0.1,0-0.2c-0.1-0.2-0.2-0.3-0.2-0.3l-2.2-11.6
			l-2-7.4l-2-7.7c-1.8-4-2.8-6-2.8-6.2c-0.1-0.3,0.2-1.4,0.8-3.2c0-0.1,0-0.2-0.1-0.3c-0.1-0.7-1.2-1.3-3.2-1.8
			c0.2-1.3,0.1-2.3,0-3.1c-0.1-0.2-0.6-1.3-1.8-3.2c-0.4-1.8-0.8-2.9-1.2-3.5c-0.7-1.1-1.3-2-2-2.9l2.2-2.5l-0.2-0.9l-4.9-1.3
			c0.1-1,0.3-1.7,0.6-2.1c0.3-0.3,3-2.3,8.1-5.9c3.9-3,6.2-4.6,6.8-4.7c1-0.2,1.9,0.2,2.7,1.4c1.5,2.1,2.4,3.5,2.5,4.2
			c0.1,0.2-0.1,4-0.4,11.4l3.9,14.2c-0.6,3.9-0.7,6.6-0.4,8.1c0.3,1.1,1.1,2.2,2.6,3.2l-0.1,1.7l3,15.2l1.3,1.8
			c-1.9,0.8-2.8,1.8-2.5,3.1l4.5,6.3l0,0.2c0.1,0.4-1,1-3.3,2c-2.4,1-3.4,2-3.2,3.1l9.1,8.2l0,0.1l0.5,6.5l1.6,7.2l0,0.1l0,1.8
			l1.7,3l1.3,4.7l2.6,5.2c0,0.1-0.1,0.6-0.2,1.3l-2.8,1c0.2,0.7,0.3,1.2,0.3,1.5c0.2,1,1.2,1.8,2.8,2.4c0.5,1,0.7,1.6,0.8,1.8l0.6,4
			l1.5,3.7l0.9,3l1.6,2.5l-5,10.4l8,1.5l-17.6,7.4l20.4,1.6c-0.6,2.1-0.7,4-0.3,5.8c0.1,0.4,0.7,1.8,2,4.1c0,0.1,0,0.2,0.1,0.3
			c0.2,1.1-1.2,2.9-4.2,5.5c-3.1,2.6-5.9,4.4-8.7,5.2c-0.7-1.4-1.1-2.4-1.3-2.9c-0.8-2.2-2-3.1-3.4-2.8c-1.1,0.2-2.8,1.2-5.1,2.9
			c-1.4-0.1-3-1-4.6-2.6l-4-3.1l-1.6-1.7c-3.1-2.2-4.8-3.6-4.9-4.2c-0.1-0.4-0.1-1.2-0.1-2.4c-1.5-0.3-3.9-0.5-7.3-0.5
			c-2.9-2.5-5.1-4.2-6.5-5.2c-1.4-0.9-3.4-1.9-6.1-2.8c0.5-1.6,0.6-2.6,0.5-3.2c-0.1-0.2-1.3-1.1-3.6-2.6c-3.4-1.2-5.4-2-6.1-2.5
			c-1.1-0.8-2.7-1.6-4.5-2.5c0.1-0.5,0.4-1.4,1-2.6c0.1-0.1,0.1-0.3,0-0.6c0-0.2-0.1-0.4-0.1-0.5l-2.3,0.5c-0.7-1.1-1.3-1.7-1.9-1.9
			c-0.7-0.2-1.4-0.5-2.1-0.7l-2.3-1.3c-3.9,0.3-6.1-0.4-6.5-2.2c-0.2-0.7-0.2-1.6-0.2-2.6l-3.1,0.2l-1.4-1.7L546.6,164l-0.4-0.8
			l5-3.7l-0.2-0.7c-1.5-0.2-2.5-0.3-3.1-0.2c-0.8,0.2-2,0.8-3.4,2c-1.5-0.5-4-1.7-7.2-3.3c-3.3-1-5.6-2-6.7-2.9
			c-1.5-1.3-3.5-2.5-6-3.7c-0.2,0-0.9-0.5-2-1.5c-1.6-1.2-2.6-2.1-3-2.7c-1.3-1.8-2.2-2.8-2.9-2.9c-0.5-0.1-1.2,0-1.8,0.1
			c-0.6,0.1-1.2,0.3-1.9,0.5c-0.9-0.6-1.8-1.2-2.6-1.7c-2.4-1.4-4.3-2.8-6-4.2c-1.7,0.1-2.5,0-2.4-0.2c-1.3-1-3-2.1-5.2-3.3
			c-5.8-3.6-9.6-5.8-11.4-6.6l-0.2-0.7l0.3-0.4l2.3-1.1c-2.2-1.7-4.6-2.6-7.1-2.8l-1,1.5c-2.8-0.7-4.4-1.3-4.7-2
			c-0.2-0.3-0.5-0.9-0.7-1.8c-3.7-0.9-6.8-1.9-9.3-3.1c-6.7-3-10.9-4.9-12.8-5.6l-0.9,0.9c-1.2,2.4-2,3.5-2.4,3.4l-6.9,4.1l7.7,0.6
			c2.4,0.3,3.7,1.2,4,2.6c0.1,0.2,0,0.7-0.1,1.4c-0.6,3.6-0.8,6.1-0.5,7.3c0.4,2.6,0.5,4.3,0.4,4.9c-0.1,0.5-0.5,1.4-1.4,2.8
			c1.3,0.9,2.3,1.8,3,2.8c0.5,0.6,1.4,1.9,2.7,3.9l0.9,6.9c1.7,3.9,2.5,5.9,2.5,5.9c0.1,0.4-0.1,1.7-0.5,3.7l-2.1,0.7l1.7,2.5
			l0.3,1.3c0.2,1,1.4,1.8,3.5,2.6c0,2,0.1,3.6,0.4,4.9c0.1,0.5,0.2,1,0.3,1.5c2,6.7,3,10.1,3.1,10.4c0.1,0.3,0,1.1-0.3,2.3l-3.5,0.8
			c0.7,1.1,1.1,1.8,1.3,2.2c0.6,1.2,1,2,1.3,2.3c0.9,1.1,1.3,1.7,1.3,1.8l0.5,2.9l1.3,2.3l0.6,4.7c0.1,0.4,0.5,1.1,1.1,2.1
			c-0.6,0.7-1.4,1.2-2.6,1.4l-0.4,0.5l1.8,5.8l2.7-0.9c1,1.9,1.8,3.4,2.2,4.5c0.2,0.6,0.9,3.3,1.9,8.1l1.5,3.7
			c1,3.5,1.9,6.2,2.7,8.1c0.5,1,0.8,1.8,1,2.6c0.1,0.2,0.1,0.8,0.1,1.8l1.7,3.6c0.2,0.5-0.2,1.8-1.1,3.9c-0.9-0.4-1.4-0.6-1.5-0.6
			c-0.1,0-4.4,3-12.9,9c-0.8,0.5-1.9,1.2-3.5,2c-0.5-0.8-0.8-1.3-0.9-1.7c-0.1-0.4-0.1-2.6,0-6.8l-0.5-3.3l-0.1-3.5l-1-4.6l0.5-1.3
			c0.6-1.6,1.1-2.6,1.3-3c0-0.1,1.6-1.3,4.9-3.7c0.9-2.4,1.3-3.7,1.2-4.1c-0.1-0.2-0.2-0.5-0.5-0.6c-0.1-0.1-2.5-0.6-7.1-1.5
			c-1.6-0.3-2.5-0.9-2.7-1.8l0-0.4c0-0.4-0.1-1.1-0.3-1.8c-0.2-0.7-0.3-1.4-0.5-1.9c-0.7-1.8-1-2.8-1.1-3.2c-0.2-1,0.3-2.4,1.5-4.4
			l-3.6-0.5c-0.2-1.3-0.5-4.6-1-9.9l-0.8-4.7c0-1.5,0-2.5-0.1-2.8c0-0.1-0.1-0.4-0.3-0.9c-1-1.9-1.9-4.3-2.6-7.2
			c-0.9-3.3-1.6-5.4-2-6.2c-0.2-0.7-0.4-1.2-0.5-1.5c-0.1-0.6,0.6-1.7,2.1-3.2c-0.9-0.6-1.4-1.1-1.5-1.6c0-0.2-0.1-0.4,0-0.8
			c0-0.9-0.1-1.6-0.2-2.1l-2.9-4.6l-0.8-3.7c0-0.2-0.2-0.7-0.4-1.4c-0.4-1.6-0.8-3-1-4.1c-0.2-0.7-0.3-2.2-0.5-4.5
			c-0.2-2.3-0.2-3.6-0.1-3.9l0.9-3.6c0-0.1-0.2-0.2-0.5-0.6c-3.2,0.6-5,0.2-5.4-1.4c-0.1-0.4-0.2-0.9-0.2-1.7
			c-0.1-0.5-0.2-1.1-0.4-1.8c-0.3-1.1-0.7-2.9-1.4-5.2l1.7-1.5l0.1-1.5c2-0.9,3.1-1.7,3.3-2.4c0.1-0.3,0.1-0.8-0.1-1.5
			c-0.3-1.2-1.2-2.5-2.9-3.9l-2.4,1.9l-1.6-0.7c6.1-2.9,9.1-4.6,9-5.1c0-0.1-3.8-0.3-11.3-0.6l-1.1-7.8c-1.8-4-2.9-6.3-3-7.1
			c-0.1-0.2-0.1-0.6-0.2-1.1l-3.8,0.2c-0.1-0.7-0.4-1.2-0.6-1.6c-0.1-0.2-0.2-0.5-0.3-0.7c-0.1-0.5,0-1,0.4-1.4
			c0-0.1,1.3-1.1,3.9-2.9l1.1-1.8l2.1-2c4.2-4.3,6.4-6.5,6.6-6.8C438.5,87.1,440.4,85.8,443,84.2z"/>
		<path class="st4" d="M699.3,109.1c-0.1-1.1,0.2-1.9,0.8-2.5c1.4-1.5,2.2-2.3,2.1-2.3c0,0,0-1.2,0-3.5l0.7-4.5l-0.4-1.8l0.3-1.6
			l-1.8-2.6c-0.9-1.6-2.1-3.1-3.5-4.5c-0.6-0.6-1.6-1.1-3.1-1.4c-1.2-0.3-2.6-0.7-4.2-1.1c-0.4-0.7-1-1.3-1.7-1.8
			c-0.9,0.2-2.3,0.7-4.1,1.4c-0.1,0-0.2,0-0.4,0.1c-1.2,0.3-1.9,0-2-0.8l3.4-4.3c3.4-3.3,5.8-6,7.3-8.1c2.9-0.3,4.9-0.3,6.1,0
			c0.3,0.1,1.2,0.6,2.7,1.3c1.6,0.7,2.6,1,2.9,1.2c0.1,0.1,0.8,1.5,2.1,4.2l1.4,2.3l0.6,1.5c1.1,2,1.7,3.3,1.8,3.8
			c0.1,0.5-0.3,1.6-1.3,3.1l1.9,6.1c0,0.6-0.4,2.2-1.4,5c-0.5,1.4-1.5,2.9-3.1,4.7l0.2,0.7l1.5,0.9c-1,1.4-2.3,3.6-3.9,6.6
			c-4,4.4-6.9,6.8-8.6,7.4c-0.2,0-0.9,0.1-2.1,0.3c-0.9,0.1-1.4,0.1-1.7,0.2l-5.2,1.2c-0.3,0.1-1.2,0.2-2.4,0.3
			c-0.3-0.4-0.5-0.7-0.6-0.9c-0.1-0.5,0.1-0.9,0.5-1.2c2.3-1.4,3.6-2.2,4-2.4c0.4-0.3,1.2-0.6,2.6-0.9l2.3-1.8
			C696,111.7,698.1,110.3,699.3,109.1z"/>
	</g>
</g>
<g>
	<g>
		<path class="st4" d="M271.7,324c0.2-0.3,0.6-0.8,1.1-1.6c0.3-0.5,0.6-0.8,0.7-0.8c0.3-0.2,0.6-0.4,0.9-0.5l0.6-0.5l0.8-0.5
			l1.1-0.7l0.6-0.3l0.6-0.3l0.5-0.2l0.7-0.4l1.3-0.3c0.8-0.2,1.3-0.3,1.5-0.3c0.4,0,0.7-0.1,1-0.1c0.3,0.2,0.6,0.4,0.7,0.4
			c0,0,0.4-0.1,1.2-0.2c0.1,0,0.1,0,0.2,0c0,0,0.4,0.1,1.1,0.2c0.1,0,0.2,0,0.4,0c0.3,0,0.5,0,0.6,0.1c0.8-0.2,1.2-0.2,1.3-0.2
			c0.3,0,0.6,0.1,0.9,0.2c-0.1,0.3-0.2,0.5-0.3,0.6c-0.1,0.1-0.4,0.2-0.8,0.3l-0.1,0.5c-0.5,0.2-0.9,0.3-1,0.4
			c-0.2,0.1-0.4,0.2-0.4,0.2l-0.4,0c0,0-0.1,0-0.1,0l-0.9,0h0l-0.7-0.1l-0.6,0c-0.6-0.1-1-0.2-1.4-0.2c-0.1,0-0.3,0-0.5,0
			c-0.3,0-0.5,0-0.7,0c-0.1,0-0.7,0.1-1.8,0.2c-0.6,0-1,0.1-1.1,0.2c-0.2,0.1-0.5,0.3-1.1,0.7c-0.1,0.1-0.4,0.2-0.9,0.2
			c0,0.3-0.1,0.4-0.3,0.5c-0.2,0.1-0.5,0.2-0.9,0.2c0,0.1,0,0.2,0,0.4c0,0-0.2,0.3-0.7,0.8c-0.1,0.1-0.2,0.9-0.2,2.1
			c0,0.3,0.2,0.8,0.6,1.6c-0.3,0.3-0.4,0.6-0.4,0.7c0.1,0.1,0.4,0.1,0.8,0.2c0.7,0.7,1.2,1.1,1.4,1.4l0.6,0.1
			c0.2,0.2,0.4,0.4,0.5,0.4l0.9,0.4l0.7,0.4c0.6,0.2,1,0.3,1.2,0.3c0.1,0,0.5,0,1.1,0.1l0.9,0.1l0.9,0l0.6,0.1
			c0.3,0,0.9-0.2,1.6-0.4l0.4,0.1c0.2-0.1,0.4-0.2,0.4-0.2c0.1,0,0.4-0.2,0.9-0.5c0.4,0,0.8-0.2,1.1-0.4c0.2-0.2,0.5-0.3,0.8-0.5
			c0.1-0.1,0.3-0.1,0.4-0.3c0.4-0.3,0.7-0.5,0.9-0.5c0.1,0,0.3,0.1,0.4,0.2c-0.2,0.5-0.2,0.9-0.2,1.2c-0.3,0.2-0.6,0.5-0.8,0.7
			c-0.4,0.1-0.9,0.3-1.5,0.6c-0.3,0-0.5,0.1-0.7,0.2c-0.3,0.2-0.6,0.2-0.8,0.2l-0.8,0h0c-0.9,0.1-1.4,0.2-1.5,0.2
			c0,0-0.3,0.1-0.7,0.3c-0.1,0-0.2,0.1-0.2,0.1l-2.5,0c-0.1,0-0.3,0-0.7,0.1c-0.4-0.2-0.8-0.3-1.1-0.3c-0.5,0-1.1-0.1-2-0.3
			l-0.6-0.1l-0.7-0.2c-0.4-0.1-0.7-0.1-0.8-0.1s-0.2-0.1-0.4-0.2c-0.9-0.6-1.3-0.9-1.3-1.1c0-0.1,0-0.2,0.1-0.3l0-0.1l-0.8,0.1l0,0
			c-0.3-0.4-0.5-0.7-0.6-0.8c-0.3-0.3-0.4-0.5-0.4-0.7c0-0.1,0-0.3-0.1-0.6V327l0.1-0.5c-0.5-0.2-0.7-0.4-0.7-0.5
			c0,0,0.4-0.2,1.2-0.5c0.4-0.2,0.6-0.4,0.6-0.8C273.3,324.3,272.8,324.1,271.7,324z"/>
		<path class="st4" d="M298.2,326.4c0-0.8,0.1-1.3,0.2-1.7c0.1-0.3,0.4-0.8,0.7-1.4c0.7-0.9,1.1-1.4,1.2-1.5
			c0.1-0.1,0.5-0.3,1.1-0.6c0,0,0.1-0.2,0.4-0.5c0.1-0.2,0.3-0.3,0.4-0.3c0.2-0.1,0.8-0.3,1.9-0.7c0.3-0.1,0.7-0.3,1.2-0.7
			c0.1,0,1-0.3,2.9-0.8c1-0.3,2.4-0.4,4.3-0.4c0.4,0,0.9,0,1.5,0.1l0.1,0.4c0.2,0.1,0.4,0.2,0.6,0.2c0.2-0.1,0.4-0.2,0.6-0.5
			c0.9,0.1,1.7,0.4,2.4,0.7c0.5,0.2,0.8,0.4,0.9,0.4c0,0,0.2,0.2,0.5,0.6c0.3,0.4,0.9,0.6,1.7,0.6c0.4,0.5,0.6,0.8,0.7,1
			s0.2,0.6,0.3,1.1c0.1,0.5,0.2,1,0.2,1.3h-0.4v0.2l-0.5,0.4c0.1,0.2,0.3,0.4,0.7,0.6c0,0.5-0.1,0.9-0.1,1.1c0,0.1-0.2,0.3-0.4,0.6
			c-0.6,1-1,1.7-1.3,2c-0.9,0.8-1.7,1.2-2.4,1.4l-1.3,0.5l-1.3,0.4c-0.7,0.3-1,0.4-1.2,0.4s-0.9,0.1-2.4,0.1l-1.7,0.3h-1.7l-0.8,0.1
			c-1.4-0.2-2.3-0.3-2.7-0.3c-0.2-0.2-0.4-0.3-0.5-0.3c0,0-0.4-0.1-1-0.1c-0.3,0-1-0.3-1.9-0.8c-0.1-0.1-0.4-0.2-0.9-0.4
			c-0.1-0.2-0.2-0.4-0.2-0.4c-0.1-0.1-0.1-0.2-0.2-0.3c0,0-0.2-0.1-0.5-0.2c0,0-0.1-0.1-0.2-0.2c-0.4-0.4-0.5-0.8-0.5-1.2
			c0-0.2,0.2-0.4,0.5-0.6C298.8,326.7,298.5,326.5,298.2,326.4L298.2,326.4z M300.9,326v0.2l0.2,0.2c0.2-0.1,0.3-0.2,0.5-0.2
			c0.1,0.4,0.2,0.7,0.3,0.9c0.1,0.1,0.5,0.6,1.3,1.5c0,0,0,0.1,0,0.1c0,0.1-0.1,0.3-0.2,0.5c0.1,0.2,0.3,0.3,0.7,0.3
			c0.2-0.1,0.3-0.2,0.4-0.2c0.1,0,0.8,0.2,2.2,0.7c0.6,0.2,1.2,0.3,1.7,0.3h1.4l0.7,0.1c0.3,0.1,0.6,0.1,0.8,0.1
			c0.4,0,0.8,0,1.3-0.1c0.3-0.1,0.8-0.1,1.4-0.2c0.2,0,0.7-0.3,1.7-0.8c0.6-0.2,1-0.3,1.1-0.3c0.1-0.1,0.4-0.4,0.9-1l0.6-0.9
			c0.4-0.3,0.6-0.5,0.7-0.5c0.1-0.1,0.1-0.2,0.1-0.3c-0.3-0.3-0.4-0.5-0.4-0.6v0l0.1-0.4c0-0.5,0.1-1,0.3-1.3
			c-0.1-0.2-0.3-0.6-0.5-1.1l-0.4-0.9c0-0.1-0.1-0.4-0.1-0.7l-0.1-0.1h-0.6c-0.2-0.2-0.5-0.6-1.1-1.1c-0.3-0.3-0.5-0.5-0.6-0.5
			c0,0-0.2-0.1-0.5-0.2c-0.2-0.1-0.6-0.2-1.2-0.4c-0.2-0.4-0.4-0.6-0.8-0.6c-0.1,0-0.4,0.1-0.8,0.2c-0.5-0.1-0.8-0.1-0.9-0.1
			c-0.9,0-1.4,0-1.7,0c-0.3,0-0.7,0.1-1.3,0.4l-0.5-0.3c-0.2,0.2-0.4,0.4-0.6,0.4l-1.1,0.4l-0.2,0.1l-2.9,1.8l-0.2,0.1
			c0,0.3-0.1,0.5-0.1,0.6l-0.5,0.6c-0.2,0.3-0.4,0.6-0.6,0.8c0,0.1,0,0.2,0,0.2c0,0.3-0.3,0.5-0.9,0.7c0,0,0.1,0.2,0.2,0.4
			c0.4,0.2,0.7,0.4,0.7,0.4C301.7,325.6,301.4,325.8,300.9,326z"/>
		<path class="st4" d="M330.6,319.4c0.1-0.4,0.5-0.7,1.3-0.9c0.8-0.4,1.3-0.7,1.7-0.7c0.4,0,0.6,0.1,0.7,0.2c0,0,0.1,0.4,0.1,1
			c0,0.2,0.2,0.5,0.6,0.9c0.7-0.6,1-0.9,1.2-0.9l0.9-0.4c0.7-0.4,1.1-0.6,1.3-0.6c0.2,0,0.4,0.1,0.6,0.4c0.9-0.5,1.8-0.7,2.7-0.7
			c0.2,0,0.3,0,0.5,0.1l0.5,0.1c0.6-0.2,1-0.2,1.2-0.2c0.2,0,0.6,0.1,1.4,0.2c0.4,0.1,0.9,0.1,1.2,0.1c0.2,0.2,0.4,0.3,0.5,0.3
			l0.6,0.1c0.4,0,0.9,0.4,1.5,1c0.3,0.4,0.5,1.2,0.5,2.6c-0.4,0-0.8,0.1-1.2,0.2s-0.6,0.2-0.6,0.3c0,0,0.5,0.2,1.6,0.7
			c0.1,0,0.2,0.2,0.2,0.4c0,0.2-0.2,0.6-0.5,1.1c0,0,0,0.1,0,0.1c0,0.1,0.2,0.3,0.5,0.6c0,0.2-0.1,0.5-0.1,0.6
			c0,0.1,0.1,0.4,0.4,0.9l0,1l0.1,0.8l-0.1,0.7c0,0.1,0.1,0.3,0.2,0.7c-0.4,0.2-0.8,0.4-0.9,0.5c-0.1,0-0.5,0.1-1.1,0.3
			c-0.1,0-0.5,0.2-1.1,0.5c-0.5-0.3-0.7-0.6-0.7-0.9c0-0.1,0.1-0.5,0.4-1.4c0-0.1,0-0.2,0-0.4c0-0.1,0-0.2,0-0.3l0.5-0.1
			c0.8-0.1,1.2-0.2,1.3-0.2l-0.3-0.1c-0.4-0.2-1-0.3-1.8-0.5c0.1-0.5,0.2-0.8,0.4-0.9l0.7-0.5c0.4-0.3,0.6-0.5,0.6-0.7
			c0,0-0.5-0.2-1.6-0.5l0.1-0.6l-0.1-0.9c0,0,0-0.1,0.1-0.1c0.1-0.1,0.1-0.3,0.2-0.5c-0.3-0.2-0.4-0.4-0.4-0.4l0-0.9
			c0-0.1-0.1-0.3-0.4-0.5s-0.4-0.4-0.4-0.6l-0.1-0.1c-0.4-0.1-0.6-0.1-0.7-0.2l-0.7-0.8c-0.1-0.2-0.3-0.2-0.4-0.2
			c-0.3,0-0.6,0.1-1,0.4c-0.6,0.4-1.1,0.6-1.6,0.6c-0.1,0-0.4,0-1-0.1l-0.5,0.3v0.1c-0.3-0.6-0.7-0.9-1-0.9c0,0-0.1,0-0.3,0.1
			c-0.2,0.1-0.5,0.1-0.8,0.2c-0.3,0.1-0.8,0.2-1.3,0.5c-0.8,0.3-1.3,0.6-1.4,0.7c-0.3,0.3-0.4,0.6-0.4,0.8c0,0,0,0.4,0,1.1v0.1v0
			c0,0.2-0.1,0.3-0.2,0.4l-1.1,0.6c-0.1,0.1-0.2,0.1-0.2,0.2c0,0.1,0.1,0.2,0.4,0.4c0.7,0.2,1,0.4,1.1,0.5c0.1,0.1,0.1,0.2,0.1,0.3
			c0,0,0,0.2,0,0.4l0,1.3c0,0.1-0.1,0.2-0.4,0.5c0,0,0,0.1,0,0.2c0,0.2,0.2,0.4,0.5,0.7l-0.1,0.1c0,0.3,0,0.5,0,0.6
			c0.1,0.7,0.2,1.2,0.4,1.6c-0.2,0.2-0.3,0.4-0.5,0.4c-0.1,0-0.3,0.1-0.8,0.1c-0.1,0-0.2,0-0.3,0.1c-0.2,0.1-0.3,0.1-0.4,0.1
			c-0.1,0-0.2,0.1-0.4,0.2c-0.1,0.1-0.3,0.2-0.6,0.2c-0.1,0-0.2-0.1-0.4-0.2c-0.1-0.1-0.2-0.2-0.2-0.3c0-0.1,0-0.2,0-0.3
			c0.1-0.4,0.2-0.6,0.2-0.6l0-1.3c0.1-0.3,0.2-0.5,0.2-0.6c0-0.1,0-0.3-0.1-0.4c-0.1-0.2-0.1-0.4-0.1-0.5c0,0,0-0.2,0-0.4
			c0-0.1,0-0.2,0-0.3c0-0.2,0-0.4,0-0.7c0-0.1,0-0.3,0-0.4c0-0.2,0.1-0.3,0.2-0.6l0.7-0.2c0-0.1-0.1-0.2-0.2-0.2
			c-0.1,0-0.4-0.1-0.8-0.1c0-0.2,0-0.4,0-0.5c0-0.1,0-0.3,0.1-0.5c0-0.1,0-0.1,0-0.2c0-0.3-0.1-0.8-0.3-1.5l0.6-0.2
			c-0.3-0.3-0.5-0.5-0.5-0.6c0,0-0.1-0.2-0.1-0.4C331.2,320,331,319.7,330.6,319.4z"/>
		<path class="st4" d="M371.6,324.6L371,325c-0.6-0.1-1.1-0.2-1.5-0.2c-0.4,0-1,0-1.6,0.1c-0.2-0.3-0.4-0.5-0.7-0.6l-0.5,0.4
			c-0.3,0-0.8,0.1-1.2,0.2c-0.2,0-0.4,0.1-0.5,0.1c0,0-0.1,0-0.1,0l-0.9-0.1c0,0,0,0-0.1,0.1l-0.5-0.4c-0.3,0.1-0.5,0.1-0.7,0.1
			c-0.1,0-0.3-0.1-0.6-0.2c-0.1,0-0.2-0.1-0.4-0.1c-1.3-0.3-1.9-0.8-1.9-1.5c0-0.6,0.3-1.2,1-1.8c0.2-0.2,0.6-0.5,1.4-0.9l0.5-0.3
			l1.2-0.5c1.2-0.5,2-0.9,2.6-1c1.3-0.4,2.3-0.6,3.1-0.6c0.1,0,0.9,0.1,2.2,0.4l1.3-0.2c0.8,0,1.3,0.1,1.4,0.1
			c0.3,0.1,0.5,0.2,0.5,0.4s-0.1,0.2-0.2,0.4c0,0-0.5,0.2-1.2,0.5c-0.8,0.3-1.2,0.5-1.3,0.5c-1.1,0-1.8-0.1-2.3-0.2
			c-0.2-0.2-0.3-0.4-0.5-0.6H369l-0.5,0.4c-0.3,0-0.5,0-0.6,0c-0.1,0-0.3,0-0.4,0c-0.2,0-0.3,0-0.4,0c0,0-0.2,0-0.6,0.1
			c-0.1-0.1-0.4-0.1-0.7-0.1c-0.3,0.2-0.9,0.4-1.6,0.7c-0.4,0.2-0.7,0.4-1,0.7s-0.4,0.6-0.4,0.9c0,0.1,0.2,0.3,0.5,0.5
			c0,0,0.3,0.1,0.9,0.3c0.3,0.1,0.6,0.2,1,0.4c0,0.1,0,0.2,0,0.2c0,0.2,0.1,0.4,0.4,0.4c0.3,0,0.6-0.2,0.9-0.5c0.4,0,0.7,0.1,1,0.1
			c0.1,0,0.6-0.1,1.4-0.2l0.8,0.1c0.7-0.1,1.1-0.1,1.2-0.1c0.1,0,0.5,0.1,1.3,0.2l0.9-0.1l0.9,0.4c0.9,0.3,1.6,0.6,1.9,0.9
			c0.3,0.2,0.4,0.4,0.4,0.6l0.2,0.6c0.2,0.7,0.3,1.1,0.3,1.2c0,0.1,0,0.3-0.1,0.6c-0.1,0.8-0.4,1.1-0.9,1.1c-0.2,0-0.4,0-0.6-0.1
			c-0.2,0.6-0.4,0.9-0.5,1c-0.7,0.6-1.2,1-1.4,1.2c-0.8,0.1-1.5,0.3-2.1,0.5c-0.2,0.1-0.4,0.2-0.4,0.2c0,0-0.3,0-0.6,0.1l-2,0.4
			c-0.7-0.1-1-0.1-1.1-0.1c-0.1,0-0.6,0.1-1.5,0.3l-0.6-0.1c-0.8,0-1.4-0.1-1.8-0.1c-0.9-0.2-1.3-0.3-1.4-0.3l-0.8-0.4
			c-1-0.4-1.6-0.7-1.8-0.9c-0.5-0.4-0.7-0.8-0.7-1.2c0-0.1,0.2-0.2,0.5-0.4l0.7-0.4c0.6-0.3,1-0.5,1.1-0.5c0.1,0,0.1,0,0.2,0.1
			c0.4,0.3,0.6,0.5,0.6,0.8l-0.1,0.6v0c0,0.1,0,0.2,0.1,0.2c0.1,0,0.4,0.2,0.9,0.4c0.1,0,0.3,0.1,0.4,0.2c0.4,0.3,0.6,0.4,0.6,0.4
			l0.9,0.3l0.8,0.3h0.9l0.6,0.1c0.6-0.1,1.1-0.2,1.6-0.2c0.5,0,0.8-0.1,1-0.1l1-0.3c0.5-0.1,0.8-0.2,0.9-0.3
			c0.3-0.2,0.7-0.6,1.2-1.2c0.5-0.6,0.8-1.3,0.8-2.1c0-0.2-0.1-0.3-0.2-0.5C372.2,325.4,371.8,324.9,371.6,324.6z"/>
		<path class="st4" d="M383.9,318.9c0.1-0.5,0.4-0.7,0.7-0.7h0l1.2,0.1h0c0.9-0.1,1.4-0.1,1.6-0.2c0-0.2,0-0.4,0-0.4
			c0-1.1,0-2-0.1-2.7c0-0.3-0.1-0.6-0.3-0.8l-0.2-0.4c-0.1-0.1-0.1-0.2-0.1-0.3c0-0.2,0.2-0.4,0.6-0.6c0.6-0.4,1.4-0.7,2.3-0.8
			c0.2-0.3,0.4-0.5,0.7-0.5c0.1,0,0.2,0,0.2,0.1c0.2,0.2,0.3,0.4,0.3,0.7c0,0-0.1,0.9-0.2,2.8c-0.2,0.5-0.3,0.8-0.4,0.8
			c-0.1,0.2-0.3,0.3-0.6,0.5c0,0.2,0,0.5,0.1,0.7h0.6l-0.1,0.9c0.4,0,1.3,0.2,2.6,0.4c0.1,0,0.4,0,0.8,0c0.3,0,0.8-0.1,1.4-0.2
			l1.6-0.1c0.8-0.2,1.3-0.4,1.5-0.4c0.2,0,0.5,0,0.8,0.1c0,0.3-0.1,0.6-0.1,0.7c-0.1,0.2-0.6,0.5-1.5,0.9c-0.2,0.1-0.4,0.2-0.5,0.3
			c-0.2,0.2-0.4,0.3-0.4,0.3c-0.1,0-0.3,0.1-0.6,0.1c-0.2,0-0.4,0-0.5-0.1l-1-0.4l-0.6-0.1l-0.7-0.4l-1.3,0.7l-1.1-0.1
			c-0.1,0-0.2,0.1-0.5,0.2c0.1,0.6,0.2,1,0.2,1.4c0,0.2,0,0.5,0,0.8c-0.6,0.1-0.9,0.2-0.9,0.5c0,0.1,0,0.2,0.1,0.4
			c0.4,0,0.7,0.1,0.9,0.1l0,2.2c-0.2,0-0.5-0.1-0.6-0.1c-0.3,0-0.4,0.1-0.4,0.3c0,0.1,0.1,0.3,0.2,0.5c0.2-0.1,0.4-0.2,0.6-0.2
			c0.2,0,0.4,0.1,0.4,0.3l-0.1,0.7v0c0,0.5,0.1,0.8,0.1,1c0,0.2,0.1,0.4,0.3,0.7l0.3,0.4c0,0,0,0.1,0,0.2c0,0.1,0,0.2,0,0.4
			c0.5,0.2,1.1,0.3,1.7,0.3c0.5,0,1-0.1,1.6-0.3c0.4-0.2,0.7-0.3,0.7-0.3l1.4-0.9c0.7-0.4,1.1-0.6,1.2-0.6s0.4,0.1,0.6,0.2
			c0,0.2-0.1,0.4-0.1,0.5c-0.1,0.6-0.2,1-0.3,1.1c-0.1,0.1-0.6,0.2-1.5,0.4c-0.7,0.2-1.7,0.5-3,0.9l-0.8,0.2c-0.6,0.2-0.9,0.3-1,0.3
			c-0.1,0-0.3-0.1-0.5-0.3l-0.4-0.1l-0.3,0.4c-0.2,0-0.4,0-0.6,0c-0.4,0-0.9-0.2-1.5-0.6c-0.3-0.2-0.5-0.4-0.6-0.6
			c0,0-0.1-0.2-0.2-0.5c-0.2-0.4-0.3-0.6-0.3-0.7c0-0.1,0-0.3,0-0.5c0-0.2,0-0.6,0-1.2c0-0.4,0.2-0.7,0.4-0.9
			c-0.1-0.2-0.1-0.5-0.1-0.8c-0.1-0.5-0.1-1.6-0.1-3.1c0.4-0.2,0.6-0.3,0.6-0.5c0-0.1,0-0.2,0-0.3l-0.7-0.1l0-0.2v0
			c0-0.1,0-0.2,0.1-0.4c0.1-0.3,0.1-0.8,0.1-1.6c-0.7-0.1-1.2-0.2-1.5-0.2c-0.1,0-0.5,0-1.3,0.1l-0.5,0c-0.5,0.1-0.7,0.2-0.7,0.2
			c-0.2,0-0.3-0.1-0.3-0.2C382.8,319.4,383.2,319.1,383.9,318.9z"/>
		<path class="st4" d="M405.5,319.3c0.1-0.2,0.3-0.4,0.5-0.6c0.2-0.1,0.6-0.3,1.3-0.5c0.7-0.3,1.1-0.5,1.2-0.5
			c0.3,0,0.5,0.1,0.7,0.2l0.1,0.3l0.2,0.5c0,0.1-0.1,0.2-0.1,0.3c0,0.1,0.1,0.2,0.3,0.4c0.3-0.1,0.8-0.2,1.3-0.4l1-0.2l1-0.5
			l0.7-0.2c0.4-0.1,0.6-0.2,0.6-0.2l0.5,0.1c0,0,0.1,0,0.1,0c0.1,0,0.6-0.1,1.7-0.4c0.1,0,0.4,0,0.7,0c0.3,0,0.5,0,0.6,0.1
			c0,0,0.2,0.1,0.5,0.4c0.2,0,0.3,0.1,0.3,0.1s0.3-0.1,0.7-0.2c0,0,0.1,0,0.1,0c0.2,0,0.5,0.1,0.7,0.3c0.3,0.2,0.5,0.4,0.6,0.8
			c-0.2,0.2-0.7,0.5-1.5,0.8c-0.4,0.3-0.6,0.5-0.8,0.5c-0.3,0-0.6-0.2-1-0.6c-0.3,0-0.5,0-0.7,0c-0.2,0-0.6-0.1-1.1-0.2
			c-0.4-0.1-0.8-0.2-1.2-0.2c-0.2,0.2-0.4,0.4-0.8,0.4c-0.5,0-0.7,0-0.9,0.1l-1,0.2c-0.1,0-0.2,0-0.4-0.1c-0.3,0.2-0.9,0.5-1.7,0.9
			c-0.5,0.3-0.8,0.7-0.8,1.4v0.1c0,0.1,0,0.3,0,0.6c0,0.2,0,0.4,0,0.5c0,0.1-0.2,0.3-0.6,0.6c0.3,0.2,0.4,0.4,0.4,0.5
			c0,0.1,0,0.2,0,0.3l0.4,0.1l0.1,0.5l0.1,3.1l-0.1,0.2l-0.6,0.2c-0.9,0.1-1.4,0.2-1.4,0.3s0.5,0.1,1.5,0.2l0.4-0.1
			c0.2,0.4,0.2,0.7,0.2,0.8c0,0.3-0.2,0.5-0.6,0.6c-0.1,0.1-0.6,0.1-1.3,0.2c-0.1,0-0.5,0.2-1.1,0.4c-0.1,0-0.2,0.1-0.3,0.1
			c-0.4,0-0.6-0.1-0.6-0.4c0-0.1,0.1-0.4,0.4-1c0-0.1,0-0.1,0-0.2c0,0,0-0.3-0.1-0.8c0,0,0-0.1,0.1-0.3l0.6-0.1c0-0.1,0-0.2,0-0.3
			c0-0.2-0.1-0.3-0.4-0.5c0-0.2,0-0.3,0-0.4c0-0.1,0-0.4-0.1-0.8c0-0.4,0.1-0.7,0.1-1c0.6-0.2,0.9-0.3,0.9-0.6c0-0.1,0-0.2-0.1-0.3
			c-0.2,0-0.4,0.1-0.5,0.1c-0.1,0-0.3,0-0.4-0.1c0-0.2,0-0.5,0-0.8v-0.4v-0.5v-0.1c0-0.1,0-0.2,0-0.3c0-0.1,0-0.2,0-0.3
			c0-0.2,0.1-0.4,0.3-0.8c-0.2-0.1-0.3-0.2-0.4-0.3c0,0,0-0.4-0.1-1.1C406,319.8,405.8,319.6,405.5,319.3z"/>
		<path class="st4" d="M429.8,323.8l-0.7,0.3c0.1,0.3,0.2,0.5,0.2,0.6c0,0.1,0,0.2,0,0.2c0,0.1,0,0.2-0.1,0.5
			c-0.1,0.3-0.1,0.7-0.1,1.4c0,0.1,0.1,0.3,0.3,0.6l-0.1,0.6l0.1,0.7c0,0.6,0.3,1,0.9,1.3c0.2,0.1,1,0.3,2.5,0.6
			c0.6,0.1,1,0.2,1.3,0.2c0.9,0,1.4-0.1,1.6-0.2l1-0.7c0.1-0.1,0.3-0.1,0.6-0.2c0.3,0.2,0.5,0.2,0.7,0.2c0.1,0,0.2,0,0.3,0
			c0.2-0.2,0.3-0.4,0.4-0.5c0,0,0.3-0.1,0.7-0.3c0.1,0,0.4-0.4,0.9-0.9c0.5-0.3,0.7-0.5,0.8-0.5c0.1-0.1,0.2-0.3,0.4-0.7
			c0.1-0.3,0.2-0.6,0.2-0.7v0c0-0.2,0-0.4,0-0.5v0c0-0.1,0.1-0.3,0.2-0.6l-0.4-0.2l-0.1-0.2v-2.5c0-0.3-0.1-0.7-0.2-1.4
			c0,0,0-0.1,0-0.1c0-0.2,0.2-0.3,0.5-0.6c0-0.1-0.1-0.2-0.2-0.2l-0.3-0.1c0,0-0.1-0.2-0.1-0.5c0,0,0-0.1,0-0.2
			c0.1-0.2,0.1-0.4,0.1-0.6c0.3,0.1,0.5,0.1,0.6,0.1c0.2,0,0.6-0.1,1.4-0.4c0.2-0.1,0.5-0.1,1-0.2c0.3,0.6,0.4,1,0.4,1.1l-0.2,2v1.2
			c-0.1,0.9-0.2,1.4-0.3,1.7l-0.5-0.1c-0.2,0.3-0.2,0.4-0.2,0.6c0,0.1,0,0.2,0,0.3l0.8-0.1c0,0.2,0.1,0.4,0.1,0.5l0,0.5v0.2v0.6v0.3
			c0,0.4-0.1,0.9-0.2,1.3c0.2,0.2,0.4,0.3,0.4,0.4c0,0.1,0.1,0.4,0.1,0.9c0,0.3,0.1,0.6,0.3,0.7c0.1,0.1,0.3,0.2,0.7,0.3
			c-0.1,0.2-0.2,0.3-0.4,0.4c-0.1,0-0.5,0.2-1.3,0.4c-0.8,0.3-1.2,0.5-1.4,0.5c-0.2,0-0.3-0.1-0.5-0.2c-0.2-0.2-0.3-0.5-0.3-0.8
			c0-0.1,0-0.3,0-0.5c-0.3,0-0.6-0.1-0.8-0.1c-0.1,0-0.2,0-0.3,0.1c0,0-0.2,0.2-0.6,0.4l-0.5,0.2l-0.8,0.3l-0.8,0.2
			c-1,0.4-2.1,0.6-3.3,0.6c-0.6,0.1-0.9,0.2-1,0.2c-0.1,0-0.4-0.1-1-0.2c0,0-0.1,0-0.1,0c-0.1,0-0.4,0.1-0.9,0.2l-0.7-0.6l0,0
			c0,0-0.4,0.1-1,0.2c-0.1,0-0.2,0-0.3,0c-0.2,0-0.7-0.2-1.5-0.5c-0.3-0.1-0.6-0.4-0.9-0.7c-0.3-0.4-0.5-0.8-0.5-1.2
			c0-0.1,0.1-0.3,0.3-0.5l-0.5-0.2v-2c0.3-0.2,0.5-0.4,0.5-0.6c0,0-0.1-0.2-0.4-0.6v-1.2l-0.1-0.9c0-0.1,0.2-0.3,0.4-0.5v-0.2
			l-0.6,0.1c0.1-0.7,0.1-1.2,0.1-1.5c0-0.2,0-0.4,0-0.5l0-0.4c0-0.3,0-0.5-0.1-0.6l-0.3-0.5c0-0.1,0.3-0.2,0.7-0.3
			c0.3-0.1,0.9-0.2,1.7-0.4l0.2-0.1c0.3-0.2,0.5-0.2,0.6-0.2c0.2,0,0.3,0,0.4,0.1c0.1,0.1,0.2,0.3,0.4,0.7c0,0-0.1,0.2-0.2,0.4
			c-0.1,0.3-0.2,0.7-0.2,1.4c0,0.1,0,0.4,0.1,0.8c-0.3,0.7-0.4,1.1-0.4,1.2C429.3,322.7,429.4,323.2,429.8,323.8z"/>
		<path class="st4" d="M454.9,319.2c0-0.2,0.2-0.4,0.7-0.7c1.1-0.6,2-1,2.8-1.2l0.7,0.5c-0.2,0.3-0.3,0.7-0.4,1.2
			c-0.1,0.4-0.1,0.7-0.1,0.8v0.7l-0.4,0.4c0,0.3,0.2,0.6,0.5,0.8c-0.1,0.1-0.1,0.2-0.1,0.2l0,0.9l0,0.2c0,0.1,0,0.2,0,0.4l-0.1,3.4
			c0,0.2,0.1,0.6,0.3,1.2l0,0.7c0.1,0.4,0.1,0.6,0.1,0.6c0,0.2-0.1,0.5-0.4,0.7c-0.1,0.1-0.4,0.2-0.9,0.5c-0.8,0.5-1.3,0.7-1.4,0.7
			c-0.2,0-0.3,0.1-0.4,0.1c-0.2,0-0.4-0.1-0.6-0.2c0.1-0.3,0.1-0.5,0.1-0.6c0-0.1,0.1-0.4,0.3-0.8l0-0.9l0.2-1.7l0-0.3
			c0-0.2,0.1-0.3,0.4-0.3c0.1,0,0.1,0,0.2,0c0.1-0.2,0.1-0.3,0.1-0.4c0-0.1,0-0.3-0.1-0.5c0-0.1-0.1-0.3-0.1-0.5l-0.4-0.2
			c0-0.3,0.1-0.5,0.1-0.6c0-0.1,0-0.1,0-0.3c0-0.1,0-0.2,0-0.2c0-0.2,0.1-0.3,0.2-0.5c-0.2-0.1-0.2-0.3-0.2-0.4v-0.1v-0.1l0-0.4
			c1.1-0.1,1.6-0.3,1.6-0.4c0,0,0,0,0-0.1c-0.2-0.2-0.5-0.2-0.9-0.2c-0.3,0-0.6,0-1,0c0-0.2,0.1-0.3,0.1-0.4c0,0-0.1-0.6-0.2-1.7
			C455.4,319.5,455.2,319.4,454.9,319.2z M455.4,312.2L455.4,312.2c0-0.4,0.4-0.9,1.3-1.4c0.2-0.1,0.4-0.3,0.6-0.5
			c0,0,0.2-0.1,0.5-0.3c0.6-0.6,1-1,1.1-1.1c0.2-0.1,0.5-0.2,0.6-0.2c0.1,0,0.3,0.1,0.6,0.3c0.3,0.2,0.5,0.4,0.5,0.6
			c0,0.2-0.1,0.4-0.4,0.5c-0.8,0.4-1.5,0.8-2.2,1.3l-0.7,0.3l-0.9,0.4c-0.5,0.2-0.7,0.3-0.8,0.3
			C455.4,312.4,455.4,312.3,455.4,312.2z"/>
		<path class="st4" d="M481.1,324.6l-0.6,0.3c-0.6-0.1-1.1-0.2-1.5-0.2c-0.4,0-1,0-1.6,0.1c-0.2-0.3-0.4-0.5-0.7-0.6l-0.5,0.4
			c-0.3,0-0.8,0.1-1.2,0.2c-0.2,0-0.4,0.1-0.5,0.1c0,0-0.1,0-0.1,0l-0.9-0.1c0,0,0,0-0.1,0.1l-0.5-0.4c-0.3,0.1-0.5,0.1-0.7,0.1
			c-0.1,0-0.3-0.1-0.6-0.2c-0.1,0-0.2-0.1-0.4-0.1c-1.3-0.3-1.9-0.8-1.9-1.5c0-0.6,0.3-1.2,1-1.8c0.2-0.2,0.6-0.5,1.4-0.9l0.5-0.3
			l1.2-0.5c1.2-0.5,2-0.9,2.6-1c1.3-0.4,2.3-0.6,3.1-0.6c0.1,0,0.9,0.1,2.2,0.4l1.3-0.2c0.8,0,1.3,0.1,1.4,0.1
			c0.3,0.1,0.5,0.2,0.5,0.4s-0.1,0.2-0.2,0.4c0,0-0.5,0.2-1.2,0.5c-0.8,0.3-1.2,0.5-1.3,0.5c-1.1,0-1.8-0.1-2.3-0.2
			c-0.2-0.2-0.3-0.4-0.5-0.6h-0.1l-0.5,0.4c-0.3,0-0.5,0-0.6,0c-0.1,0-0.3,0-0.4,0c-0.2,0-0.3,0-0.4,0c0,0-0.2,0-0.6,0.1
			c-0.1-0.1-0.4-0.1-0.7-0.1c-0.3,0.2-0.9,0.4-1.6,0.7c-0.4,0.2-0.7,0.4-1,0.7s-0.4,0.6-0.4,0.9c0,0.1,0.2,0.3,0.5,0.5
			c0,0,0.3,0.1,0.9,0.3c0.3,0.1,0.6,0.2,1,0.4c0,0.1,0,0.2,0,0.2c0,0.2,0.1,0.4,0.4,0.4c0.3,0,0.6-0.2,0.9-0.5c0.4,0,0.7,0.1,1,0.1
			c0.1,0,0.6-0.1,1.4-0.2l0.8,0.1c0.7-0.1,1.1-0.1,1.2-0.1c0.1,0,0.5,0.1,1.3,0.2l0.9-0.1l0.9,0.4c0.9,0.3,1.6,0.6,1.9,0.9
			c0.3,0.2,0.4,0.4,0.4,0.6l0.2,0.6c0.2,0.7,0.3,1.1,0.3,1.2c0,0.1,0,0.3-0.1,0.6c-0.1,0.8-0.4,1.1-0.9,1.1c-0.2,0-0.4,0-0.6-0.1
			c-0.2,0.6-0.4,0.9-0.5,1c-0.7,0.6-1.2,1-1.4,1.2c-0.8,0.1-1.5,0.3-2.1,0.5c-0.2,0.1-0.4,0.2-0.4,0.2c0,0-0.3,0-0.6,0.1l-2,0.4
			c-0.7-0.1-1-0.1-1.1-0.1c-0.1,0-0.6,0.1-1.5,0.3l-0.6-0.1c-0.8,0-1.4-0.1-1.8-0.1c-0.9-0.2-1.3-0.3-1.4-0.3l-0.8-0.4
			c-1-0.4-1.6-0.7-1.8-0.9c-0.5-0.4-0.7-0.8-0.7-1.2c0-0.1,0.2-0.2,0.5-0.4l0.7-0.4c0.6-0.3,1-0.5,1.1-0.5c0.1,0,0.1,0,0.2,0.1
			c0.4,0.3,0.6,0.5,0.6,0.8l-0.1,0.6v0c0,0.1,0,0.2,0.1,0.2c0.1,0,0.4,0.2,0.9,0.4c0.1,0,0.3,0.1,0.4,0.2c0.4,0.3,0.6,0.4,0.6,0.4
			l0.9,0.3l0.8,0.3h0.9l0.6,0.1c0.6-0.1,1.1-0.2,1.6-0.2c0.5,0,0.8-0.1,1-0.1l1-0.3c0.5-0.1,0.8-0.2,0.9-0.3
			c0.3-0.2,0.7-0.6,1.2-1.2c0.5-0.6,0.8-1.3,0.8-2.1c0-0.2-0.1-0.3-0.2-0.5C481.7,325.4,481.3,324.9,481.1,324.6z"/>
		<path class="st4" d="M493.6,326.4c0-0.8,0.1-1.3,0.2-1.7c0.1-0.3,0.4-0.8,0.7-1.4c0.7-0.9,1.1-1.4,1.2-1.5
			c0.1-0.1,0.5-0.3,1.1-0.6c0,0,0.1-0.2,0.4-0.5c0.1-0.2,0.3-0.3,0.4-0.3c0.2-0.1,0.8-0.3,1.9-0.7c0.3-0.1,0.7-0.3,1.2-0.7
			c0.1,0,1-0.3,2.9-0.8c1-0.3,2.4-0.4,4.3-0.4c0.4,0,0.9,0,1.5,0.1l0.1,0.4c0.2,0.1,0.4,0.2,0.6,0.2c0.2-0.1,0.4-0.2,0.6-0.5
			c0.9,0.1,1.7,0.4,2.4,0.7c0.5,0.2,0.8,0.4,0.9,0.4c0,0,0.2,0.2,0.5,0.6c0.3,0.4,0.9,0.6,1.7,0.6c0.4,0.5,0.6,0.8,0.7,1
			s0.2,0.6,0.3,1.1c0.1,0.5,0.2,1,0.2,1.3h-0.4v0.2l-0.5,0.4c0.1,0.2,0.3,0.4,0.7,0.6c0,0.5-0.1,0.9-0.1,1.1c0,0.1-0.2,0.3-0.4,0.6
			c-0.6,1-1,1.7-1.3,2c-0.9,0.8-1.7,1.2-2.4,1.4l-1.3,0.5l-1.3,0.4c-0.7,0.3-1,0.4-1.2,0.4s-0.9,0.1-2.4,0.1l-1.7,0.3h-1.7l-0.8,0.1
			c-1.4-0.2-2.3-0.3-2.7-0.3c-0.2-0.2-0.4-0.3-0.5-0.3c0,0-0.4-0.1-1-0.1c-0.3,0-1-0.3-1.9-0.8c-0.1-0.1-0.4-0.2-0.9-0.4
			c-0.1-0.2-0.2-0.4-0.2-0.4c-0.1-0.1-0.1-0.2-0.2-0.3c0,0-0.2-0.1-0.5-0.2c0,0-0.1-0.1-0.2-0.2c-0.4-0.4-0.5-0.8-0.5-1.2
			c0-0.2,0.2-0.4,0.5-0.6C494.3,326.7,494,326.5,493.6,326.4L493.6,326.4z M496.3,326v0.2l0.2,0.2c0.2-0.1,0.3-0.2,0.5-0.2
			c0.1,0.4,0.2,0.7,0.3,0.9c0.1,0.1,0.5,0.6,1.3,1.5c0,0,0,0.1,0,0.1c0,0.1-0.1,0.3-0.2,0.5c0.1,0.2,0.3,0.3,0.7,0.3
			c0.2-0.1,0.3-0.2,0.4-0.2c0.1,0,0.8,0.2,2.2,0.7c0.6,0.2,1.2,0.3,1.7,0.3h1.4l0.7,0.1c0.3,0.1,0.6,0.1,0.8,0.1
			c0.4,0,0.8,0,1.3-0.1c0.3-0.1,0.8-0.1,1.4-0.2c0.2,0,0.7-0.3,1.7-0.8c0.6-0.2,1-0.3,1.1-0.3c0.1-0.1,0.4-0.4,0.9-1l0.6-0.9
			c0.4-0.3,0.6-0.5,0.7-0.5c0.1-0.1,0.1-0.2,0.1-0.3c-0.3-0.3-0.4-0.5-0.4-0.6v0l0.1-0.4c0-0.5,0.1-1,0.3-1.3
			c-0.1-0.2-0.3-0.6-0.5-1.1l-0.4-0.9c0-0.1-0.1-0.4-0.1-0.7l-0.1-0.1h-0.6c-0.2-0.2-0.5-0.6-1.1-1.1c-0.3-0.3-0.5-0.5-0.6-0.5
			c0,0-0.2-0.1-0.5-0.2c-0.2-0.1-0.6-0.2-1.2-0.4c-0.2-0.4-0.4-0.6-0.8-0.6c-0.1,0-0.4,0.1-0.8,0.2c-0.5-0.1-0.8-0.1-0.9-0.1
			c-0.9,0-1.4,0-1.7,0c-0.3,0-0.7,0.1-1.3,0.4l-0.5-0.3c-0.2,0.2-0.4,0.4-0.6,0.4l-1.1,0.4l-0.2,0.1l-2.9,1.8l-0.2,0.1
			c0,0.3-0.1,0.5-0.1,0.6l-0.5,0.6c-0.2,0.3-0.4,0.6-0.6,0.8c0,0.1,0,0.2,0,0.2c0,0.3-0.3,0.5-0.9,0.7c0,0,0.1,0.2,0.2,0.4
			c0.4,0.2,0.7,0.4,0.7,0.4C497.1,325.6,496.9,325.8,496.3,326z"/>
		<path class="st4" d="M526.1,319.4c0.1-0.4,0.5-0.7,1.3-0.9c0.8-0.4,1.3-0.7,1.7-0.7c0.4,0,0.6,0.1,0.7,0.2c0,0,0.1,0.4,0.1,1
			c0,0.2,0.2,0.5,0.6,0.9c0.7-0.6,1-0.9,1.2-0.9l0.9-0.4c0.7-0.4,1.1-0.6,1.3-0.6c0.2,0,0.4,0.1,0.6,0.4c0.9-0.5,1.8-0.7,2.7-0.7
			c0.2,0,0.3,0,0.5,0.1l0.5,0.1c0.6-0.2,1-0.2,1.2-0.2c0.2,0,0.6,0.1,1.4,0.2c0.4,0.1,0.9,0.1,1.2,0.1c0.2,0.2,0.4,0.3,0.5,0.3
			l0.6,0.1c0.4,0,0.9,0.4,1.5,1c0.3,0.4,0.5,1.2,0.5,2.6c-0.4,0-0.8,0.1-1.2,0.2s-0.6,0.2-0.6,0.3c0,0,0.5,0.2,1.6,0.7
			c0.1,0,0.2,0.2,0.2,0.4c0,0.2-0.2,0.6-0.5,1.1c0,0,0,0.1,0,0.1c0,0.1,0.2,0.3,0.5,0.6c0,0.2-0.1,0.5-0.1,0.6
			c0,0.1,0.1,0.4,0.4,0.9l0,1l0.1,0.8l-0.1,0.7c0,0.1,0.1,0.3,0.2,0.7c-0.4,0.2-0.8,0.4-0.9,0.5c-0.1,0-0.5,0.1-1.1,0.3
			c-0.1,0-0.5,0.2-1.1,0.5c-0.5-0.3-0.7-0.6-0.7-0.9c0-0.1,0.1-0.5,0.4-1.4c0-0.1,0-0.2,0-0.4c0-0.1,0-0.2,0-0.3l0.5-0.1
			c0.8-0.1,1.2-0.2,1.3-0.2l-0.3-0.1c-0.4-0.2-1-0.3-1.8-0.5c0.1-0.5,0.2-0.8,0.4-0.9l0.7-0.5c0.4-0.3,0.6-0.5,0.6-0.7
			c0,0-0.5-0.2-1.6-0.5l0.1-0.6l-0.1-0.9c0,0,0-0.1,0.1-0.1c0.1-0.1,0.1-0.3,0.2-0.5c-0.3-0.2-0.4-0.4-0.4-0.4l0-0.9
			c0-0.1-0.1-0.3-0.4-0.5s-0.4-0.4-0.4-0.6l-0.1-0.1c-0.4-0.1-0.6-0.1-0.7-0.2l-0.7-0.8c-0.1-0.2-0.3-0.2-0.4-0.2
			c-0.3,0-0.6,0.1-1,0.4c-0.6,0.4-1.1,0.6-1.6,0.6c-0.1,0-0.4,0-1-0.1l-0.5,0.3v0.1c-0.3-0.6-0.7-0.9-1-0.9c0,0-0.1,0-0.3,0.1
			c-0.2,0.1-0.5,0.1-0.8,0.2c-0.3,0.1-0.8,0.2-1.3,0.5c-0.8,0.3-1.3,0.6-1.4,0.7c-0.3,0.3-0.4,0.6-0.4,0.8c0,0,0,0.4,0,1.1v0.1v0
			c0,0.2-0.1,0.3-0.2,0.4l-1.1,0.6c-0.1,0.1-0.2,0.1-0.2,0.2c0,0.1,0.1,0.2,0.4,0.4c0.7,0.2,1,0.4,1.1,0.5c0.1,0.1,0.1,0.2,0.1,0.3
			c0,0,0,0.2,0,0.4l0,1.3c0,0.1-0.1,0.2-0.4,0.5c0,0,0,0.1,0,0.2c0,0.2,0.2,0.4,0.5,0.7l-0.1,0.1c0,0.3,0,0.5,0,0.6
			c0.1,0.7,0.2,1.2,0.4,1.6c-0.2,0.2-0.3,0.4-0.5,0.4c-0.1,0-0.3,0.1-0.8,0.1c-0.1,0-0.2,0-0.3,0.1c-0.2,0.1-0.3,0.1-0.4,0.1
			c-0.1,0-0.2,0.1-0.4,0.2c-0.1,0.1-0.3,0.2-0.6,0.2c-0.1,0-0.2-0.1-0.4-0.2c-0.1-0.1-0.2-0.2-0.2-0.3c0-0.1,0-0.2,0-0.3
			c0.1-0.4,0.2-0.6,0.2-0.6l0-1.3c0.1-0.3,0.2-0.5,0.2-0.6c0-0.1,0-0.3-0.1-0.4c-0.1-0.2-0.1-0.4-0.1-0.5c0,0,0-0.2,0-0.4
			c0-0.1,0-0.2,0-0.3c0-0.2,0-0.4,0-0.7c0-0.1,0-0.3,0-0.4c0-0.2,0.1-0.3,0.2-0.6l0.7-0.2c0-0.1-0.1-0.2-0.2-0.2
			c-0.1,0-0.4-0.1-0.8-0.1c0-0.2,0-0.4,0-0.5c0-0.1,0-0.3,0.1-0.5c0-0.1,0-0.1,0-0.2c0-0.3-0.1-0.8-0.3-1.5l0.6-0.2
			c-0.3-0.3-0.5-0.5-0.5-0.6c0,0-0.1-0.2-0.1-0.4C526.6,320,526.5,319.7,526.1,319.4z"/>
		<path class="st4" d="M567.1,324.6l-0.6,0.3c-0.6-0.1-1.1-0.2-1.5-0.2c-0.4,0-1,0-1.6,0.1c-0.2-0.3-0.4-0.5-0.7-0.6l-0.5,0.4
			c-0.3,0-0.8,0.1-1.2,0.2c-0.2,0-0.4,0.1-0.5,0.1c0,0-0.1,0-0.1,0l-0.9-0.1c0,0,0,0-0.1,0.1l-0.5-0.4c-0.3,0.1-0.5,0.1-0.7,0.1
			c-0.1,0-0.3-0.1-0.6-0.2c-0.1,0-0.2-0.1-0.4-0.1c-1.3-0.3-1.9-0.8-1.9-1.5c0-0.6,0.3-1.2,1-1.8c0.2-0.2,0.6-0.5,1.4-0.9l0.5-0.3
			l1.2-0.5c1.2-0.5,2-0.9,2.6-1c1.3-0.4,2.3-0.6,3.1-0.6c0.1,0,0.9,0.1,2.2,0.4l1.3-0.2c0.8,0,1.3,0.1,1.4,0.1
			c0.3,0.1,0.5,0.2,0.5,0.4s-0.1,0.2-0.2,0.4c0,0-0.5,0.2-1.2,0.5c-0.8,0.3-1.2,0.5-1.3,0.5c-1.1,0-1.8-0.1-2.3-0.2
			c-0.2-0.2-0.3-0.4-0.5-0.6h-0.1l-0.5,0.4c-0.3,0-0.5,0-0.6,0c-0.1,0-0.3,0-0.4,0c-0.2,0-0.3,0-0.4,0c0,0-0.2,0-0.6,0.1
			c-0.1-0.1-0.4-0.1-0.7-0.1c-0.3,0.2-0.9,0.4-1.6,0.7c-0.4,0.2-0.7,0.4-1,0.7c-0.3,0.3-0.4,0.6-0.4,0.9c0,0.1,0.2,0.3,0.5,0.5
			c0,0,0.3,0.1,0.9,0.3c0.3,0.1,0.6,0.2,1,0.4c0,0.1,0,0.2,0,0.2c0,0.2,0.1,0.4,0.4,0.4c0.3,0,0.6-0.2,0.9-0.5c0.4,0,0.7,0.1,1,0.1
			c0.1,0,0.6-0.1,1.4-0.2l0.8,0.1c0.7-0.1,1.1-0.1,1.2-0.1c0.1,0,0.5,0.1,1.3,0.2l0.9-0.1l0.9,0.4c1,0.3,1.6,0.6,1.9,0.9
			c0.3,0.2,0.4,0.4,0.4,0.6l0.2,0.6c0.2,0.7,0.3,1.1,0.3,1.2c0,0.1,0,0.3-0.1,0.6c-0.1,0.8-0.4,1.1-0.9,1.1c-0.2,0-0.4,0-0.6-0.1
			c-0.2,0.6-0.4,0.9-0.5,1c-0.7,0.6-1.2,1-1.4,1.2c-0.8,0.1-1.5,0.3-2.1,0.5c-0.2,0.1-0.4,0.2-0.4,0.2c0,0-0.3,0-0.6,0.1l-2,0.4
			c-0.7-0.1-1-0.1-1.1-0.1c-0.1,0-0.6,0.1-1.5,0.3l-0.6-0.1c-0.8,0-1.4-0.1-1.8-0.1c-0.9-0.2-1.3-0.3-1.4-0.3l-0.8-0.4
			c-1-0.4-1.6-0.7-1.8-0.9c-0.5-0.4-0.7-0.8-0.7-1.2c0-0.1,0.2-0.2,0.5-0.4l0.7-0.4c0.6-0.3,1-0.5,1.1-0.5c0.1,0,0.1,0,0.2,0.1
			c0.4,0.3,0.6,0.5,0.6,0.8l-0.1,0.6v0c0,0.1,0,0.2,0.1,0.2c0.1,0,0.4,0.2,0.9,0.4c0.1,0,0.3,0.1,0.4,0.2c0.4,0.3,0.6,0.4,0.6,0.4
			l0.9,0.3l0.8,0.3h0.9l0.6,0.1c0.6-0.1,1.1-0.2,1.6-0.2c0.5,0,0.8-0.1,1-0.1l1-0.3c0.5-0.1,0.8-0.2,0.9-0.3
			c0.3-0.2,0.7-0.6,1.2-1.2c0.5-0.6,0.8-1.3,0.8-2.1c0-0.2-0.1-0.3-0.2-0.5C567.7,325.4,567.3,324.9,567.1,324.6z"/>
		<path class="st4" d="M622.2,318.3l0.8-0.4c0.2,0.2,0.4,0.3,0.5,0.4c0,0,0.2,0.1,0.5,0.2c0.2,0.1,0.9,0.6,2.1,1.5
			c0.4,0.3,0.7,0.6,0.8,0.8c0.1,0.2,0.3,0.5,0.4,0.8c0.1,0.2,0.2,0.4,0.3,0.6l-0.2,0.1c-0.2,0-0.4-0.1-0.7-0.2l-0.9,0.2l-0.8-0.1
			l-0.7,0.1c-1-0.5-1.5-0.8-1.6-0.8c-0.1,0-0.5,0.2-1.2,0.7c-1-0.1-1.6-0.2-1.7-0.2c-0.3,0-0.6,0-0.9,0.1l-0.1-0.1c-0.3,0-1,0-2.1,0
			l-0.9,0.1l-1.1,0.1l-1.2,0.1l-1,0c-0.9,0.2-1.6,0.3-1.9,0.4c-0.1,0.4-0.2,0.7-0.2,0.8c-0.1,0.2-0.3,0.4-0.6,0.6
			c0.5,0.3,0.8,0.4,0.8,0.5c0.2,0.8,0.3,1.3,0.5,1.5l0.4,0.2l-0.1,0.7l0.8,0.1c0.2,0.5,0.4,0.8,0.6,1c0.2,0.2,0.7,0.3,1.2,0.3
			c0.1,0.4,0.2,0.6,0.4,0.7c0.1,0.1,0.4,0.1,0.9,0.1l0.4,0.5c0.2,0,0.3,0,0.5,0c0.1,0,0.6,0.1,1.5,0.4c0.2,0.1,0.4,0.1,0.6,0.1
			c0.2,0,0.6-0.1,1.3-0.2l1.6-0.1l1.2-0.2c0.6,0,1-0.1,1.2-0.1c0.3-0.1,0.8-0.3,1.5-0.6c0.7-0.3,1.1-0.5,1.3-0.7
			c0.3-0.2,0.6-0.5,0.8-0.8c0.1-0.1,0.4-0.2,0.7-0.2c0.1,0,0.4,0.1,0.6,0.2c-0.1,0.4-0.2,0.7-0.3,0.8c-0.7,0.8-1.1,1.4-1.3,1.7
			c-0.2-0.1-0.4-0.1-0.5-0.1c-0.1,0-0.4,0.1-0.8,0.4c-0.3,0.1-0.7,0.2-1.1,0.2c-1,0.2-1.7,0.3-2.1,0.4c-0.7,0-1.1,0.1-1.3,0.1
			c-0.5,0.1-0.8,0.2-0.8,0.2l-1.4-0.2l-0.9,0.1l-0.4,0c-0.4,0-0.7,0.1-0.9,0.1c-0.2,0-0.8,0-1.8-0.1l-0.5,0l-0.5-0.2
			c-1.2-0.3-1.9-0.4-2-0.5c-0.1,0-0.4-0.2-0.8-0.5c0,0-0.3-0.2-0.9-0.4c-0.5-0.2-0.7-0.4-0.7-0.5l-0.4-0.6c-0.1-0.1-0.3-0.3-0.8-0.7
			c0.2-0.2,0.2-0.3,0.2-0.4c0,0-0.2-0.4-0.6-1c-0.1-0.2-0.2-0.7-0.2-1.5c0-0.3,0.1-0.7,0.3-1.3c0.2-0.5,0.3-0.7,0.4-0.8l0.8-0.7
			l0.5-0.8c0.6-0.4,1.2-0.8,1.9-1.3l1.8-0.8l1.8-0.9l0.7-0.1l1.9-0.4l1.2-0.1c1-0.3,1.5-0.4,1.6-0.4
			C621.3,317.3,621.9,317.7,622.2,318.3z M619.4,320.9l0.4,0.4c0.3,0,0.5-0.1,0.7-0.1c0.4,0,0.9-0.1,1.3-0.2l1.4,0.1
			c0,0,0.1-0.1,0.1-0.2c0-0.1,0-0.1,0-0.2c0-0.1-0.1-0.2-0.3-0.4c0,0-0.1-0.1-0.2-0.2c-0.4-0.4-0.6-0.6-0.7-0.5l-0.8-0.3
			c-0.1,0-0.3-0.2-0.5-0.4c-0.5,0-1.3-0.1-2.4-0.1l-0.5,0l-0.8,0.4c0,0-0.5,0.1-1.4,0.2c-0.7,0.2-1.3,0.3-1.8,0.5
			c-0.1,0.1-0.4,0.3-1,0.6c-0.1,0.1-0.3,0.2-0.6,0.3v0.1l0,0l1.8,0.5l0.5,0.4l1-0.8c0.1,0,0.2-0.1,0.3-0.1c0,0,0.5,0.1,1.2,0.2
			c0,0,0,0,0,0c0.2,0,0.7-0.1,1.4-0.2C618.7,321,619,320.9,619.4,320.9z"/>
		<path class="st4" d="M637.2,319.4c0.1-0.4,0.5-0.7,1.3-0.9c0.8-0.4,1.3-0.7,1.7-0.7c0.4,0,0.6,0.1,0.7,0.2c0,0,0.1,0.4,0.1,1
			c0,0.2,0.2,0.5,0.6,0.9c0.7-0.6,1-0.9,1.2-0.9l0.9-0.4c0.7-0.4,1.1-0.6,1.3-0.6c0.2,0,0.4,0.1,0.6,0.4c0.9-0.5,1.8-0.7,2.7-0.7
			c0.2,0,0.3,0,0.5,0.1l0.5,0.1c0.6-0.2,1-0.2,1.2-0.2c0.2,0,0.6,0.1,1.4,0.2c0.4,0.1,0.9,0.1,1.2,0.1c0.2,0.2,0.4,0.3,0.5,0.3
			l0.6,0.1c0.4,0,0.9,0.4,1.5,1c0.3,0.4,0.5,1.2,0.5,2.6c-0.4,0-0.8,0.1-1.2,0.2s-0.6,0.2-0.6,0.3c0,0,0.5,0.2,1.6,0.7
			c0.1,0,0.2,0.2,0.2,0.4c0,0.2-0.2,0.6-0.5,1.1c0,0,0,0.1,0,0.1c0,0.1,0.2,0.3,0.5,0.6c0,0.2-0.1,0.5-0.1,0.6
			c0,0.1,0.1,0.4,0.4,0.9l0,1l0.1,0.8l-0.1,0.7c0,0.1,0.1,0.3,0.2,0.7c-0.4,0.2-0.8,0.4-0.9,0.5c-0.1,0-0.5,0.1-1.1,0.3
			c-0.1,0-0.5,0.2-1.1,0.5c-0.5-0.3-0.7-0.6-0.7-0.9c0-0.1,0.1-0.5,0.4-1.4c0-0.1,0-0.2,0-0.4c0-0.1,0-0.2,0-0.3l0.5-0.1
			c0.8-0.1,1.2-0.2,1.3-0.2l-0.3-0.1c-0.4-0.2-1-0.3-1.8-0.5c0.1-0.5,0.2-0.8,0.4-0.9l0.7-0.5c0.4-0.3,0.6-0.5,0.6-0.7
			c0,0-0.5-0.2-1.6-0.5l0.1-0.6l-0.1-0.9c0,0,0-0.1,0.1-0.1c0.1-0.1,0.1-0.3,0.2-0.5c-0.3-0.2-0.4-0.4-0.4-0.4l0-0.9
			c0-0.1-0.1-0.3-0.4-0.5s-0.4-0.4-0.4-0.6l-0.1-0.1c-0.4-0.1-0.6-0.1-0.7-0.2l-0.7-0.8c-0.1-0.2-0.3-0.2-0.4-0.2
			c-0.3,0-0.6,0.1-1,0.4c-0.6,0.4-1.1,0.6-1.6,0.6c-0.1,0-0.4,0-1-0.1l-0.5,0.3v0.1c-0.3-0.6-0.7-0.9-1-0.9c0,0-0.1,0-0.3,0.1
			c-0.2,0.1-0.5,0.1-0.8,0.2c-0.3,0.1-0.8,0.2-1.3,0.5c-0.8,0.3-1.3,0.6-1.4,0.7c-0.3,0.3-0.4,0.6-0.4,0.8c0,0,0,0.4,0,1.1v0.1v0
			c0,0.2-0.1,0.3-0.2,0.4l-1.1,0.6c-0.1,0.1-0.2,0.1-0.2,0.2c0,0.1,0.1,0.2,0.4,0.4c0.7,0.2,1,0.4,1.1,0.5c0.1,0.1,0.1,0.2,0.1,0.3
			c0,0,0,0.2,0,0.4l0,1.3c0,0.1-0.1,0.2-0.4,0.5c0,0,0,0.1,0,0.2c0,0.2,0.2,0.4,0.5,0.7L641,328c0,0.3,0,0.5,0,0.6
			c0.1,0.7,0.2,1.2,0.4,1.6c-0.2,0.2-0.3,0.4-0.5,0.4c-0.1,0-0.3,0.1-0.8,0.1c-0.1,0-0.2,0-0.3,0.1c-0.2,0.1-0.3,0.1-0.4,0.1
			c-0.1,0-0.2,0.1-0.4,0.2c-0.1,0.1-0.3,0.2-0.6,0.2c-0.1,0-0.2-0.1-0.4-0.2c-0.1-0.1-0.2-0.2-0.2-0.3c0-0.1,0-0.2,0-0.3
			c0.1-0.4,0.2-0.6,0.2-0.6l0-1.3c0.1-0.3,0.2-0.5,0.2-0.6c0-0.1,0-0.3-0.1-0.4c-0.1-0.2-0.1-0.4-0.1-0.5c0,0,0-0.2,0-0.4
			c0-0.1,0-0.2,0-0.3c0-0.2,0-0.4,0-0.7c0-0.1,0-0.3,0-0.4c0-0.2,0.1-0.3,0.2-0.6l0.7-0.2c0-0.1-0.1-0.2-0.2-0.2
			c-0.1,0-0.4-0.1-0.8-0.1c0-0.2,0-0.4,0-0.5c0-0.1,0-0.3,0.1-0.5c0-0.1,0-0.1,0-0.2c0-0.3-0.1-0.8-0.3-1.5l0.6-0.2
			c-0.3-0.3-0.5-0.5-0.5-0.6c0,0-0.1-0.2-0.1-0.4C637.8,320,637.6,319.7,637.2,319.4z"/>
		<path class="st4" d="M678.2,324.6l-0.6,0.3c-0.6-0.1-1.1-0.2-1.5-0.2c-0.4,0-1,0-1.6,0.1c-0.2-0.3-0.4-0.5-0.7-0.6l-0.5,0.4
			c-0.3,0-0.8,0.1-1.2,0.2c-0.2,0-0.4,0.1-0.5,0.1c0,0-0.1,0-0.1,0l-0.9-0.1c0,0,0,0-0.1,0.1l-0.5-0.4c-0.3,0.1-0.5,0.1-0.7,0.1
			c-0.1,0-0.3-0.1-0.6-0.2c-0.1,0-0.2-0.1-0.4-0.1c-1.3-0.3-1.9-0.8-1.9-1.5c0-0.6,0.3-1.2,1-1.8c0.2-0.2,0.6-0.5,1.4-0.9l0.5-0.3
			l1.2-0.5c1.2-0.5,2-0.9,2.6-1c1.3-0.4,2.3-0.6,3.1-0.6c0.1,0,0.9,0.1,2.2,0.4l1.3-0.2c0.8,0,1.3,0.1,1.4,0.1
			c0.3,0.1,0.5,0.2,0.5,0.4s-0.1,0.2-0.2,0.4c0,0-0.5,0.2-1.2,0.5c-0.8,0.3-1.2,0.5-1.3,0.5c-1.1,0-1.8-0.1-2.3-0.2
			c-0.2-0.2-0.3-0.4-0.5-0.6h-0.1l-0.5,0.4c-0.3,0-0.5,0-0.6,0c-0.1,0-0.3,0-0.4,0c-0.2,0-0.3,0-0.4,0c0,0-0.2,0-0.6,0.1
			c-0.1-0.1-0.4-0.1-0.7-0.1c-0.3,0.2-0.9,0.4-1.6,0.7c-0.4,0.2-0.7,0.4-1,0.7c-0.3,0.3-0.4,0.6-0.4,0.9c0,0.1,0.2,0.3,0.5,0.5
			c0,0,0.3,0.1,0.9,0.3c0.3,0.1,0.6,0.2,1,0.4c0,0.1,0,0.2,0,0.2c0,0.2,0.1,0.4,0.4,0.4c0.3,0,0.6-0.2,0.9-0.5c0.4,0,0.7,0.1,1,0.1
			c0.1,0,0.6-0.1,1.4-0.2l0.8,0.1c0.7-0.1,1.1-0.1,1.2-0.1c0.1,0,0.5,0.1,1.3,0.2l0.9-0.1l0.9,0.4c1,0.3,1.6,0.6,1.9,0.9
			c0.3,0.2,0.4,0.4,0.4,0.6l0.2,0.6c0.2,0.7,0.3,1.1,0.3,1.2c0,0.1,0,0.3-0.1,0.6c-0.1,0.8-0.4,1.1-0.9,1.1c-0.2,0-0.4,0-0.6-0.1
			c-0.2,0.6-0.4,0.9-0.5,1c-0.7,0.6-1.2,1-1.4,1.2c-0.8,0.1-1.5,0.3-2.1,0.5c-0.2,0.1-0.4,0.2-0.4,0.2c0,0-0.3,0-0.6,0.1l-2,0.4
			c-0.7-0.1-1-0.1-1.1-0.1c-0.1,0-0.6,0.1-1.5,0.3l-0.6-0.1c-0.8,0-1.4-0.1-1.8-0.1c-0.9-0.2-1.3-0.3-1.4-0.3l-0.8-0.4
			c-1-0.4-1.6-0.7-1.8-0.9c-0.5-0.4-0.7-0.8-0.7-1.2c0-0.1,0.2-0.2,0.5-0.4l0.7-0.4c0.6-0.3,1-0.5,1.1-0.5c0.1,0,0.1,0,0.2,0.1
			c0.4,0.3,0.6,0.5,0.6,0.8l-0.1,0.6v0c0,0.1,0,0.2,0.1,0.2c0.1,0,0.4,0.2,0.9,0.4c0.1,0,0.3,0.1,0.4,0.2c0.4,0.3,0.6,0.4,0.6,0.4
			l0.9,0.3l0.8,0.3h0.9l0.6,0.1c0.6-0.1,1.1-0.2,1.6-0.2c0.5,0,0.8-0.1,1-0.1l1-0.3c0.5-0.1,0.8-0.2,0.9-0.3
			c0.3-0.2,0.7-0.6,1.2-1.2c0.5-0.6,0.8-1.3,0.8-2.1c0-0.2-0.1-0.3-0.2-0.5C678.8,325.4,678.4,324.9,678.2,324.6z"/>
		<path class="st4" d="M705.6,318.3l0.8-0.4c0.2,0.2,0.4,0.3,0.5,0.4c0,0,0.2,0.1,0.5,0.2c0.2,0.1,0.9,0.6,2.1,1.5
			c0.4,0.3,0.7,0.6,0.8,0.8c0.1,0.2,0.3,0.5,0.4,0.8c0.1,0.2,0.2,0.4,0.3,0.6l-0.2,0.1c-0.2,0-0.4-0.1-0.7-0.2l-0.9,0.2l-0.8-0.1
			l-0.7,0.1c-1-0.5-1.5-0.8-1.6-0.8c-0.1,0-0.5,0.2-1.2,0.7c-1-0.1-1.6-0.2-1.7-0.2c-0.3,0-0.6,0-0.9,0.1l-0.1-0.1c-0.3,0-1,0-2.1,0
			l-0.9,0.1l-1.1,0.1l-1.2,0.1l-1,0c-0.9,0.2-1.6,0.3-1.9,0.4c-0.1,0.4-0.2,0.7-0.2,0.8c-0.1,0.2-0.3,0.4-0.6,0.6
			c0.5,0.3,0.8,0.4,0.8,0.5c0.2,0.8,0.3,1.3,0.5,1.5l0.4,0.2l-0.1,0.7l0.8,0.1c0.2,0.5,0.4,0.8,0.6,1c0.2,0.2,0.7,0.3,1.2,0.3
			c0.1,0.4,0.2,0.6,0.4,0.7c0.1,0.1,0.4,0.1,0.9,0.1l0.4,0.5c0.2,0,0.3,0,0.5,0c0.1,0,0.6,0.1,1.5,0.4c0.2,0.1,0.4,0.1,0.6,0.1
			c0.2,0,0.6-0.1,1.3-0.2l1.6-0.1l1.2-0.2c0.6,0,1-0.1,1.2-0.1c0.3-0.1,0.8-0.3,1.5-0.6c0.7-0.3,1.1-0.5,1.3-0.7
			c0.3-0.2,0.6-0.5,0.8-0.8c0.1-0.1,0.4-0.2,0.7-0.2c0.1,0,0.4,0.1,0.6,0.2c-0.1,0.4-0.2,0.7-0.3,0.8c-0.7,0.8-1.1,1.4-1.3,1.7
			c-0.2-0.1-0.4-0.1-0.5-0.1c-0.1,0-0.4,0.1-0.8,0.4c-0.3,0.1-0.7,0.2-1.1,0.2c-1,0.2-1.7,0.3-2.1,0.4c-0.7,0-1.1,0.1-1.3,0.1
			c-0.5,0.1-0.8,0.2-0.8,0.2L702,331l-0.9,0.1l-0.4,0c-0.4,0-0.7,0.1-0.9,0.1s-0.8,0-1.8-0.1l-0.5,0l-0.5-0.2
			c-1.2-0.3-1.9-0.4-2-0.5c-0.1,0-0.4-0.2-0.8-0.5c0,0-0.3-0.2-0.9-0.4c-0.5-0.2-0.7-0.4-0.7-0.5l-0.4-0.6c-0.1-0.1-0.3-0.3-0.8-0.7
			c0.2-0.2,0.2-0.3,0.2-0.4c0,0-0.2-0.4-0.6-1c-0.1-0.2-0.2-0.7-0.2-1.5c0-0.3,0.1-0.7,0.3-1.3c0.2-0.5,0.3-0.7,0.4-0.8l0.8-0.7
			l0.5-0.8c0.6-0.4,1.2-0.8,1.9-1.3l1.8-0.8l1.8-0.9l0.7-0.1l1.9-0.4l1.2-0.1c1-0.3,1.5-0.4,1.6-0.4
			C704.7,317.3,705.3,317.7,705.6,318.3z M702.8,320.9l0.4,0.4c0.3,0,0.5-0.1,0.7-0.1c0.4,0,0.9-0.1,1.3-0.2l1.4,0.1
			c0,0,0.1-0.1,0.1-0.2c0-0.1,0-0.1,0-0.2c0-0.1-0.1-0.2-0.3-0.4c0,0-0.1-0.1-0.2-0.2c-0.4-0.4-0.6-0.6-0.7-0.5l-0.8-0.3
			c-0.1,0-0.3-0.2-0.5-0.4c-0.5,0-1.3-0.1-2.4-0.1l-0.5,0l-0.8,0.4c0,0-0.5,0.1-1.4,0.2c-0.7,0.2-1.3,0.3-1.8,0.5
			c-0.1,0.1-0.4,0.3-1,0.6c-0.1,0.1-0.3,0.2-0.6,0.3v0.1l0,0l1.8,0.5l0.5,0.4l1-0.8c0.1,0,0.2-0.1,0.3-0.1c0,0,0.5,0.1,1.2,0.2
			c0,0,0,0,0,0c0.2,0,0.7-0.1,1.4-0.2C702.1,321,702.4,320.9,702.8,320.9z"/>
		<path class="st4" d="M720.3,319.3c0.1-0.3,0.3-0.5,0.5-0.6c0.4-0.3,1-0.6,1.9-0.9c0.3-0.1,0.5-0.2,0.5-0.2c0.1,0,0.2,0.1,0.4,0.2
			c0.1,0.1,0.2,0.1,0.4,0.2c0.1,0.3,0.1,0.5,0.1,0.5c0.1,0.3,0.1,0.5,0.1,0.5c0,0.2,0,0.5-0.1,0.8l0.1,0.1c0.5-0.1,0.8-0.1,0.9-0.2
			c0.1,0,0.4-0.2,0.7-0.5c0.3,0,0.6-0.1,0.7-0.2c0,0,0.2-0.1,0.4-0.3c0.7-0.3,1.3-0.4,1.7-0.5c0.7-0.1,1.2-0.3,1.6-0.4
			c0,0,0.1,0,0.1,0c0.3,0,0.5,0.2,0.5,0.7h0.7V318c0.4-0.1,0.7-0.2,1.1-0.2c0.4-0.1,0.6-0.1,0.6-0.1c0.5,0,0.9,0.2,1.3,0.6
			c0.1,0.1,0.3,0.5,0.6,1.1c0,0.1,0.2,0.2,0.4,0.2c0.1,0,0.3-0.2,0.6-0.5c0.2-0.2,0.5-0.3,1-0.4c1.1-0.5,1.7-0.7,1.9-0.7
			c0,0,0.3,0,0.8,0.1l0.8-0.2l1.3,0l0.8-0.1l0.9,0.2l0.8,0.2c0.6,0.2,0.9,0.4,1.1,0.5l0.1,0.4c-0.2,0-0.4,0.1-0.4,0.3
			c0,0.1,0,0.2,0.1,0.3h0.5c0.1,0.2,0.1,0.6,0.1,1.1l0.2,0.5v1.8v0.3c0,0.1-0.1,0.4-0.4,0.7c-0.1,0.1-0.1,0.2-0.1,0.3
			c0,0.1,0.1,0.4,0.3,0.9c0,0.1,0,0.2,0,0.3c0,0.1,0,0.2-0.1,0.5c0,0,0,0,0,0.1c0,0.1,0.1,0.5,0.2,1.3l-0.5,0.3v0.4
			c0.1,0,0.2,0,0.2,0c0.1,0,0.2,0,0.3,0.1c0,0.3,0,0.5,0,0.6c0,0.2,0,0.3,0,0.4c0,0.2,0.1,0.5,0.4,0.9c-0.4,0.2-0.9,0.4-1.6,0.6
			c-0.9,0.4-1.3,0.7-1.5,0.7c-0.2,0-0.4,0-0.6-0.1c0-0.3,0-0.5,0-0.7c0-0.2,0.1-0.5,0.2-1c0-0.1,0-0.2,0-0.3c0,0,0-0.3-0.1-0.8
			c0,0,0-0.1,0-0.1s0.1-0.5,0.2-1.2l0-0.7c0.3-0.4,0.5-0.7,0.5-0.8c0-0.1-0.2-0.3-0.5-0.6c0,0,0,0,0-0.1l0.9-0.4l0.4-0.2l-1.4-0.8
			c0.3-0.3,0.4-0.7,0.5-1.1c-0.3-0.2-0.5-0.3-0.5-0.4c-0.2-0.9-0.4-1.5-0.5-1.8c-0.3-0.2-0.8-0.7-1.4-1.2c-0.2-0.2-0.6-0.3-1.4-0.3
			c-0.4,0-0.7,0-1,0.1l-0.9,0.3l-0.4,0.1l-0.4,0.3c-0.5,0.2-0.8,0.3-1,0.5c-0.3,0.3-0.5,0.6-0.7,0.8v1.2c-0.4,0.1-0.6,0.3-0.6,0.4
			c0,0.1,0.2,0.3,0.6,0.4c0,0.5,0.1,0.9,0.1,1c0.1,0.6,0.1,1,0.1,1.4c0,0.1,0,0.3-0.1,0.6l-0.7-0.1l-0.1,0.1c0,0.1,0.2,0.3,0.5,0.7
			c0.1,0.1,0.1,0.2,0.1,0.3v0.4c0,0.3,0,0.5,0,0.5h0c0.3,0.7,0.4,1.4,0.4,2.1c0,0.2-0.1,0.3-0.4,0.5c-0.1,0-0.4,0.2-1,0.4
			c-1,0.3-1.5,0.4-1.6,0.4c0,0-0.1,0-0.1,0c-0.1-0.2-0.2-0.3-0.2-0.5v0c0-0.2,0-0.4,0-0.7c0-0.3,0-0.8,0-1.5c0-0.4,0-0.8,0.1-1.1
			h0.1l0.4-0.3c0-0.2,0-0.4-0.1-0.5l-0.3-0.6l-0.3-0.4l0-0.3c0-0.5,0.1-0.8,0.1-0.9c0.5-0.3,0.8-0.5,0.8-0.7c0-0.2-0.3-0.4-0.8-0.4
			c-0.1-0.3-0.1-0.9-0.1-1.9c-0.2-0.7-0.4-1.1-0.5-1.2c-0.2-0.2-0.5-0.3-0.9-0.3h-0.1l-0.7,0.1V320l-0.5-0.4
			c-0.3,0.2-0.5,0.3-0.6,0.3l-1.2,0.2c-0.8,0.2-1.3,0.3-1.4,0.4c-0.2,0-0.5,0-0.9,0.1c-0.4,0.4-0.7,0.8-1,1.3
			c-0.1,0.2-0.2,0.4-0.2,0.5v0.8l-0.1,0.6l0.1,0.6v0c0,0.3-0.1,0.7-0.1,1l-0.6,0.3c0.4,0.4,0.6,0.6,0.7,0.7c0,0.1,0,0.4,0,1l0,0.6
			c0,0,0,0.1,0,0.2c0,0.5,0.1,0.9,0.1,1.2c0,0.6,0.1,1.1,0.2,1.4c-0.4,0.1-1,0.4-2,0.8c-0.2,0.1-0.4,0.1-0.6,0.1
			c-0.2,0-0.4,0-0.6-0.1c0-0.1,0-0.1,0-0.1l0-0.7l0-0.9v-0.9l0-0.4c0-0.1,0.2-0.2,0.5-0.6c0,0,0,0,0-0.1c0-0.1-0.2-0.2-0.5-0.3
			c0-0.2,0-0.4,0-0.5c0-0.1,0.2-0.4,0.6-0.9c0,0,0-0.2,0-0.5h-0.4c-0.1-0.3-0.2-0.6-0.2-0.8c0-0.2,0-0.7,0.1-1.4h0.2l0.1-0.1
			c0-0.3,0-0.4,0-0.5c0-0.4-0.1-0.7-0.4-1c0-0.1-0.1-0.4-0.2-1.1c0-0.3-0.1-0.6-0.3-1.1C720.7,319.5,720.5,319.4,720.3,319.3z"/>
		<path class="st4" d="M755.5,330.1c0.5-0.2,0.8-0.4,1-0.5c0.1,0,0.2-0.3,0.4-0.6c0.3-0.3,0.4-0.5,0.4-0.5c0-0.1,0-0.3-0.1-0.5
			c-0.1-0.2-0.1-0.4-0.1-0.6c0-0.7,0.3-1,1-1l0.1-0.7l-1-0.3l0.1-2.9l-0.1-0.5l0.5-0.1l0.1-0.4c-0.4-0.1-0.6-0.3-0.6-0.4
			c0-0.1,0-0.3,0-0.5c0-0.1,0-0.2,0-0.3c0-0.1-0.1-0.4-0.3-1.1l1.3-0.9l-1.3-1.1l0-0.1c0.4-0.2,0.6-0.4,0.6-0.6
			c0-0.2-0.2-0.4-0.5-0.6c0-0.3,0-1,0-2.1c0-0.1,0-0.3,0-0.3c0-0.1,0-0.1,0-0.1c0-0.1,0-0.1,0.1-0.2l1.8-0.5l-1.9-0.4l0.1-0.3l0-0.4
			l0.1-1c-0.1-0.7-0.2-1-0.2-1.1c0-0.3,0.2-0.5,0.6-0.8c0-0.1-0.1-0.4-0.4-0.6c-0.1-0.1-0.1-0.2-0.1-0.2c0-0.1,0-0.2,0.1-0.4
			c0.5-0.1,0.7-0.3,0.7-0.6c0-0.1-0.1-0.2-0.2-0.4l-0.6-0.1c-0.1-0.2-0.1-0.3-0.2-0.4c-0.1-0.2-0.2-0.3-0.2-0.4c0,0,0.6-0.3,1.7-0.6
			v-0.6l0.6-0.5c0-0.1-0.2-0.2-0.6-0.3c-0.1,0-0.2,0-0.4-0.1c-0.4-0.1-0.9-0.2-1.6-0.4v-0.3c0.3-0.1,0.4-0.2,0.5-0.3
			c0.5-0.3,0.8-0.4,0.9-0.5l1-0.2c0.6-0.2,1.1-0.4,1.3-0.4c0.3,0,0.5,0.1,0.8,0.2c0,0.3-0.1,0.5-0.1,0.6c-0.2,0.4-0.3,0.7-0.3,0.7
			c0,0,0.1,0.2,0.4,0.6c0,0,0,0.1,0,0.1c0,0-0.3,0.2-0.9,0.6l-0.2,0.8l-1.1,0.6c1,0.8,1.5,1.3,1.7,1.5c0.2,0.2,0.2,0.3,0.2,0.4
			c0,0.1,0,0.2,0,0.3c-0.3,0.3-0.5,0.6-0.5,0.8c0,0.1,0,0.2,0.1,0.2c0.4,0.4,0.6,0.7,0.6,0.9c0,0.1,0,0.2,0,0.4
			c-0.1,0.4-0.1,0.6-0.1,0.7l0,0.7c0,0,0,0.1-0.1,0.3c0,0.2,0.1,0.4,0.1,0.5l0,0.4c0,0.2,0,0.3,0,0.3c0,0.1,0,0.2,0,0.3
			s-0.1,0.2-0.2,0.3c-0.4,0.1-0.7,0.2-0.9,0.4l0.1,0.1c0,0.3,0,0.5,0.1,0.7c0,0.1,0.3,0.3,0.8,0.4c0,0.2-0.1,0.3-0.1,0.3
			c0,0.2,0,0.4,0.1,0.8c0.1,0.3,0.1,0.5,0,0.7c0,0-0.1,0.2-0.4,0.5c-0.2,0.2-0.2,0.4-0.2,0.6c0,0.2,0.2,0.2,0.5,0.2
			c0.4,0.1,0.6,0.2,0.7,0.2c0.2,0,0.5-0.2,0.8-0.5c0.2,0,0.4,0.1,0.4,0.1c0,0,0.6-0.1,1.7-0.3c0.8-0.2,1.5-0.4,1.9-0.5
			c0.3,0.2,0.6,0.4,0.9,0.4c0.2,0,0.4,0,0.6-0.1l0.1-0.4c0.3,0.1,0.5,0.1,0.6,0.1l1.2,0l0.6,0.2c0.1,0,0.2,0,0.3,0
			c1.3,0,2.3,0.1,3.1,0.4c0.5,0.2,0.8,0.5,1.1,1.1c0.3,0,0.5-0.1,0.7-0.2c0.1-0.1,0.2-0.1,0.3-0.1s0.3,0.1,0.6,0.4
			c0.5,0.3,0.7,0.5,0.8,0.5c0,0,0,0.1,0.1,0.3s0.4,0.5,1.1,0.9c0.1,0.5,0.3,1.1,0.7,1.9c0,0.1,0.1,0.4,0.1,0.9c0,0.4-0.1,0.7-0.4,1
			c-0.1,0.1-0.1,0.1-0.2,0.2c-0.1,0.1-0.2,0.2-0.4,0.4h-0.4c-0.2,0.2-0.3,0.3-0.3,0.4l0,1.2c0,0-0.1,0.1-0.3,0.3
			c-0.1,0.1-0.4,0.4-1,0.9c-0.2,0.2-0.5,0.4-1.1,0.6l-0.7,0.5l-0.9,0.6c-0.5,0.4-0.9,0.6-1.1,0.7c-1.2,0.4-2.2,0.6-2.9,0.8l-0.6,0.1
			l-0.5,0c-0.9,0.1-1.4,0.2-1.6,0.2c-0.4,0-0.8-0.1-1-0.3l-0.7-0.5l-1,0.6c-1.8-0.3-2.6-0.5-2.7-0.5c0,0-0.4,0-1,0
			c-0.3,0-0.8-0.1-1.5-0.3c-0.1,0-0.2,0-0.2,0c-0.2,0-0.9,0.2-2,0.5c-0.1,0-0.2,0.1-0.2,0.1c-0.2,0-0.3-0.1-0.4-0.3c0,0,0-0.1,0-0.1
			L755.5,330.1z M762.7,330c0.2,0,0.4,0,0.6,0c0.1,0,0.4,0.1,0.7,0.2c0.3,0.1,0.6,0.2,0.8,0.2l1.3-0.1l0.9,0l0.6,0l2-0.4
			c0.8-0.2,1.4-0.4,2-0.7c0.1-0.1,0.5-0.3,1.1-0.8l0.6-0.5c0,0,0.1-0.2,0.3-0.5c0-0.1,0.2-0.3,0.5-0.6c0.4-0.4,0.6-0.8,0.6-1.1
			c0-0.3,0.1-0.5,0.1-0.6c0.1-0.2,0.1-0.2,0.1-0.2l-0.1-0.5l1.9-0.6l-0.3-0.8c0-0.1-0.1-0.3-0.1-0.8c0-0.2-0.1-0.3-0.2-0.4
			c-0.1,0-0.4-0.1-0.9-0.3c-0.4-0.4-0.6-0.7-0.7-0.7c-0.1,0-0.4-0.2-0.9-0.4l-0.5-0.2l-0.7-0.3l-0.6-0.2l-1.3-0.3l-0.6-0.2
			c-0.5,0-0.9,0-1.3-0.1c-0.2,0-0.8-0.1-1.6-0.1c-0.5,0-1.2-0.1-2.1-0.2h0c0,0-0.1,0-0.1,0h0c0,0,0,0-0.1,0l-0.6,0.1
			c-0.5,0-0.8,0.1-0.9,0.1c0,0-0.4,0.2-0.9,0.4c-0.4,0.1-0.9,0.3-1.6,0.5c-0.1,0-0.4,0.1-0.7,0.2c-0.7,0.2-1.1,0.5-1.1,0.9
			c0,0.2,0.1,0.3,0.2,0.4l0.7,0.7l0.3,0.9c0.4,0.5,0.6,0.8,0.6,0.9c0,0.1-0.2,0.4-0.5,0.9c0,0,0,0.1,0,0.1c0,0,0,0.2,0.1,0.5
			l0.1,0.4l0.3,0.6c-0.1,0.5-0.1,0.8-0.1,0.8l0.1,1v0.8v0.2c0,0.1-0.2,0.3-0.7,0.6c0,0,0,0.1,0,0.1c0,0.1,0.2,0.3,0.6,0.5l1.5-0.9
			c0.3,0.3,0.5,0.4,0.7,0.4C762.6,330,762.6,330,762.7,330z"/>
		<path class="st4" d="M787.4,302.9c0.2,0,0.5-0.1,0.6-0.2c0.4-0.2,0.7-0.3,0.9-0.4c0.4-0.1,0.9-0.4,1.2-0.7c0.1,0,0.2,0,0.2,0
			c0.4,0,0.6,0.2,0.6,0.5v0c0,0.1,0,0.1,0,0.2c0,0.1,0,0.1,0,0.1l0.2,0.6l-0.1,1.5c0,0.9,0,1.4,0,1.5c0,0.1-0.2,0.3-0.4,0.5
			l-0.1,0.6l0.5,0.1c0.1,0.3,0.1,0.5,0.1,0.6c0,0.2-0.2,0.5-0.5,0.7c0,0.3,0,0.5,0,0.6c0,0.1,0.1,0.3,0.3,0.4c0,0.2,0,0.4,0,0.5
			l-0.1,2.2v2.2c0,0.1-0.1,0.3-0.4,0.7c-0.1,0.1-0.1,0.2-0.1,0.4c0,0,0.1,0.3,0.3,0.9c0,0,0,0,0,0.1c0,0.2-0.2,0.4-0.5,0.6l0.5,0.8
			l0.3,0.1v1.1l0.1,4l-0.4,0.2c0,0.3,0.1,0.5,0.1,0.6c0,0,0,0.3-0.1,0.8c0,0,0,0.2,0,0.5l0.8,0.1l-0.1,0.1l0.4,2.9l0,0.7l0.1,0.5
			c-0.3,0.4-0.5,0.6-0.5,0.6c0,0.1,0,0.1,0.1,0.2c-0.3,0.1-0.8,0.3-1.4,0.5c-0.3,0.1-0.5,0.2-0.6,0.2s-0.2,0-0.5,0
			c-0.4,0.2-0.7,0.3-1,0.3c-0.1,0-0.2,0-0.3-0.1c0-0.2,0-0.3,0-0.4s0-0.3-0.1-0.5c0-0.1,0-0.2,0-0.3c0,0,0.1-0.2,0.2-0.5l0-0.4
			l0.1-0.5l-0.1-0.3l2.1-0.9l-2-1l0-0.2l0.2-0.6l0.2-0.4c0,0-0.1-0.2-0.4-0.6c0-0.1-0.1-0.1-0.1-0.2c0,0,0.1-0.3,0.4-0.7
			c0.2-0.3,0.3-0.7,0.3-0.9l-0.6-0.2c0-0.3,0-0.5,0-0.6c0-0.3,0-0.4,0-0.5c0,0,0.1-0.3,0.3-0.8c0,0,0-0.1,0-0.3c0-0.4,0-0.9-0.1-1.4
			c0-0.2,0-0.4,0-0.5c0-0.1,0.1-0.4,0.4-0.8c0-0.4,0.1-0.7,0.1-0.9l-0.5-0.4v-3.9c0.2-0.1,0.4-0.2,0.4-0.4c0.1-0.2,0.2-0.4,0.4-0.7
			c-0.3-0.1-0.6-0.2-0.8-0.3c0.1-0.3,0.2-0.5,0.2-0.6c0-0.1-0.1-0.2-0.4-0.4c0-0.2-0.1-0.4-0.1-0.6l0-0.7c0-0.1,0.1-0.3,0.3-0.5
			c0,0,0.1-0.1,0.1-0.1c0,0,0-0.1-0.1-0.3s-0.1-0.3-0.2-0.3l-0.1-0.1l1.8-0.9l-1.3-1.2c-0.6-0.6-1-1-1-1.1c0-0.1,0-0.3,0.1-0.6
			C787.3,303.3,787.4,303.1,787.4,302.9z"/>
		<path class="st4" d="M814.8,318.3l0.8-0.4c0.2,0.2,0.4,0.3,0.5,0.4c0,0,0.2,0.1,0.5,0.2c0.2,0.1,0.9,0.6,2.1,1.5
			c0.4,0.3,0.7,0.6,0.8,0.8c0.1,0.2,0.3,0.5,0.4,0.8c0.1,0.2,0.2,0.4,0.3,0.6l-0.2,0.1c-0.2,0-0.4-0.1-0.7-0.2l-0.9,0.2l-0.8-0.1
			l-0.7,0.1c-1-0.5-1.5-0.8-1.6-0.8c-0.1,0-0.5,0.2-1.2,0.7c-1-0.1-1.6-0.2-1.7-0.2c-0.3,0-0.6,0-0.9,0.1l-0.1-0.1c-0.3,0-1,0-2.1,0
			l-0.9,0.1l-1.1,0.1l-1.2,0.1l-1,0c-0.9,0.2-1.6,0.3-1.9,0.4c-0.1,0.4-0.2,0.7-0.2,0.8c-0.1,0.2-0.3,0.4-0.6,0.6
			c0.5,0.3,0.8,0.4,0.8,0.5c0.2,0.8,0.3,1.3,0.5,1.5l0.4,0.2l-0.1,0.7l0.8,0.1c0.2,0.5,0.4,0.8,0.6,1c0.2,0.2,0.7,0.3,1.2,0.3
			c0.1,0.4,0.2,0.6,0.4,0.7c0.1,0.1,0.4,0.1,0.9,0.1l0.4,0.5c0.2,0,0.3,0,0.5,0c0.1,0,0.6,0.1,1.5,0.4c0.2,0.1,0.4,0.1,0.6,0.1
			c0.2,0,0.6-0.1,1.3-0.2l1.6-0.1l1.2-0.2c0.6,0,1-0.1,1.2-0.1c0.3-0.1,0.8-0.3,1.5-0.6c0.7-0.3,1.1-0.5,1.3-0.7
			c0.3-0.2,0.6-0.5,0.8-0.8c0.1-0.1,0.4-0.2,0.7-0.2c0.1,0,0.4,0.1,0.6,0.2c-0.1,0.4-0.2,0.7-0.3,0.8c-0.7,0.8-1.1,1.4-1.3,1.7
			c-0.2-0.1-0.4-0.1-0.5-0.1c-0.1,0-0.4,0.1-0.8,0.4c-0.3,0.1-0.7,0.2-1.1,0.2c-1,0.2-1.7,0.3-2.1,0.4c-0.7,0-1.1,0.1-1.3,0.1
			c-0.5,0.1-0.8,0.2-0.8,0.2l-1.4-0.2l-0.9,0.1l-0.4,0c-0.4,0-0.7,0.1-0.9,0.1s-0.8,0-1.8-0.1l-0.5,0l-0.5-0.2
			c-1.2-0.3-1.9-0.4-2-0.5c-0.1,0-0.4-0.2-0.8-0.5c0,0-0.3-0.2-0.9-0.4c-0.5-0.2-0.7-0.4-0.7-0.5l-0.4-0.6c-0.1-0.1-0.3-0.3-0.8-0.7
			c0.2-0.2,0.2-0.3,0.2-0.4c0,0-0.2-0.4-0.6-1c-0.1-0.2-0.2-0.7-0.2-1.5c0-0.3,0.1-0.7,0.3-1.3c0.2-0.5,0.3-0.7,0.4-0.8l0.8-0.7
			l0.5-0.8c0.6-0.4,1.2-0.8,1.9-1.3l1.8-0.8l1.8-0.9l0.7-0.1l1.9-0.4l1.2-0.1c1-0.3,1.5-0.4,1.6-0.4
			C813.8,317.3,814.4,317.7,814.8,318.3z M811.9,320.9l0.4,0.4c0.3,0,0.5-0.1,0.7-0.1c0.4,0,0.9-0.1,1.3-0.2l1.4,0.1
			c0,0,0.1-0.1,0.1-0.2c0-0.1,0-0.1,0-0.2c0-0.1-0.1-0.2-0.3-0.4c0,0-0.1-0.1-0.2-0.2c-0.4-0.4-0.6-0.6-0.7-0.5l-0.8-0.3
			c-0.1,0-0.3-0.2-0.5-0.4c-0.5,0-1.3-0.1-2.4-0.1l-0.5,0l-0.8,0.4c0,0-0.5,0.1-1.4,0.2c-0.7,0.2-1.3,0.3-1.8,0.5
			c-0.1,0.1-0.4,0.3-1,0.6c-0.1,0.1-0.3,0.2-0.6,0.3v0.1l0,0l1.8,0.5l0.5,0.4l1-0.8c0.1,0,0.2-0.1,0.3-0.1c0,0,0.5,0.1,1.2,0.2
			c0,0,0,0,0,0c0.2,0,0.7-0.1,1.4-0.2C811.3,321,811.5,320.9,811.9,320.9z"/>
	</g>
</g>
</svg>
